{
.appVersion = "1300";
DisplayStrings = (
"/ij",
A
);
classes = (
{
automatic = 1;

glyphs = (
{
glyphname = A;
layers = (
{
anchors = (
{
name = bottom;
position = "{321, 0}";
},
{
name = ogonek;
position = "{566, 0}";
},
{
name = top;
position = "{321, 686}";
}
);
layerId = "86BFE29D-DE3A-4B42-8FD7-32CE7A5DD9A0";
paths = (
{
closed = 1;
nodes = (
"648 0 LINE",
"380 686 LINE",
"272 686 LINE",
"4 0 LINE",
"99 0 LINE",
"156 149 LINE",
"484 149 LINE",
"542 0 LINE"
);
},
{
closed = 1;
nodes = (
"191 238 LINE",
"318 568 LINE",
"324 568 LINE",
"450 238 LINE"
);
}
);
width = 652;
},
{
anchors = (
{
name = bottom;
position = "{325, 0}";
},
{
name = ogonek;
position = "{588, 0}";
},
{
name = top;
position = "{325, 686}";
}
);
layerId = "F84504BD-929B-4EC5-838D-CC63F45B30C5";
paths = (
{
closed = 1;
nodes = (
"635 0 LINE",
"351 686 LINE",
"301 686 LINE",
"17 0 LINE",
"73 0 LINE",
"143 170 LINE",
"505 170 LINE",
"576 0 LINE"
);
},
{
closed = 1;
nodes = (
"163 219 LINE",
"322 612 LINE",
"326 612 LINE",
"485 219 LINE"
);
}
);
width = 652;
},
{
anchors = (
{
name = bottom;
position = "{337, 0}";
},
{
name = ogonek;
position = "{575, 0}";
},
{
name = top;
position = "{337, 686}";
}
);
layerId = "4FE665F2-115E-4010-81D6-04A4227E19CC";
paths = (
{
closed = 1;
nodes = (
"684 0 LINE",
"435 686 LINE",
"251 686 LINE",
"2 0 LINE",
"151 0 LINE",
"199 135 LINE",
"472 135 LINE",
"522 0 LINE"
);
},
{
closed = 1;
nodes = (
"241 252 LINE",
"334 521 LINE",
"339 521 LINE",
"431 252 LINE"
);
}
);
width = 686;
},
{
anchors = (
{
name = bottom;
position = "{347, 0}";
},
{
name = ogonek;
position = "{586, 0}";
},
{
name = top;
position = "{347, 686}";
}
);
layerId = "B61048DD-A105-4E1B-AF86-BB1631F6D87A";
paths = (
{
closed = 1;
nodes = (
"714 0 LINE",
"485 686 LINE",
"224 686 LINE",
"-5 0 LINE",
"197 0 LINE",
"237 122 LINE",
"455 122 LINE",
"496 0 LINE"
);
},
{
closed = 1;
nodes = (
"285 267 LINE",
"344 475 LINE",
"349 475 LINE",
"407 267 LINE"
);
}
);
width = 709;
}
);
leftKerningGroup = A;
note = A;
rightKerningGroup = A;
unicode = 0041;
},
{
glyphname = Aacute;
layers = (
{
background = {
paths = (
{
closed = 1;
nodes = (
"476 895 LINE",
"386 895 LINE",
"292 750 LINE",
"361 750 LINE",
"477 892 LINE"
);
},
{
closed = 1;
nodes = (
"380 686 LINE",
"272 686 LINE",
"4 0 LINE",
"99 0 LINE",
"156 149 LINE",
"484 149 LINE",
"542 0 LINE",
"648 0 LINE"
);
},
{
closed = 1;
nodes = (
"324 568 LINE",
"450 238 LINE",
"191 238 LINE",
"318 568 LINE"
);
}
);
};
components = (
{
name = A;
},
{
name = acutecomb.case;
transform = "{1, 0, 0, 1, 516, 0}";
}
);
layerId = "86BFE29D-DE3A-4B42-8FD7-32CE7A5DD9A0";
width = 652;
},
{
background = {
paths = (
{
closed = 1;
nodes = (
"297 750 LINE",
"347 750 LINE",
"458 892 LINE",
"458 895 LINE",
"393 895 LINE"
);
},
{
closed = 1;
nodes = (
"492 170 LINE",
"563 0 LINE",
"622 0 LINE",
"338 686 LINE",
"288 686 LINE",
"4 0 LINE",
"60 0 LINE",
"130 170 LINE"
);
},
{
closed = 1;
nodes = (
"150 219 LINE",
"309 612 LINE",
"313 612 LINE",
"472 219 LINE"
);
}
);
};
components = (
{
name = A;
},
{
name = acutecomb.case;
transform = "{1, 0, 0, 1, 508, 0}";
}
);
layerId = "F84504BD-929B-4EC5-838D-CC63F45B30C5";
width = 652;
},
{
background = {
paths = (
{
closed = 1;
nodes = (
"269 750 LINE",
"370 750 LINE",
"491 892 LINE",
"490 895 LINE",
"361 895 LINE"
);
},
{
closed = 1;
nodes = (
"472 135 LINE",
"522 0 LINE",
"684 0 LINE",
"435 686 LINE",
"251 686 LINE",
"2 0 LINE",
"151 0 LINE",
"199 135 LINE"
);
},
{
closed = 1;
nodes = (
"334 521 LINE",
"339 521 LINE",
"370 432 OFFCURVE",
"401 342 OFFCURVE",
"431 252 CURVE",
"241 252 LINE"
);
}
);
};
components = (
{
name = A;
},
{
name = acutecomb.case;
transform = "{1, 0, 0, 1, 549, 0}";
}
);
layerId = "4FE665F2-115E-4010-81D6-04A4227E19CC";
width = 686;
},
{
background = {
paths = (
{
closed = 1;
nodes = (
"545 893 LINE",
"543 896 LINE",
"392 896 LINE",
"301 751 LINE",
"419 751 LINE"
);
},
{
closed = 1;
nodes = (
"714 0 LINE",
"485 686 LINE",
"224 686 LINE",
"-5 0 LINE",
"197 0 LINE",
"237 122 LINE",
"455 122 LINE",
"496 0 LINE"
);
},
{
closed = 1;
nodes = (
"344 475 LINE",
"349 475 LINE",
"407 267 LINE",
"285 267 LINE"
);
}
);
};
components = (
{
name = A;
},
{
name = acutecomb.case;
transform = "{1, 0, 0, 1, 575, 0}";
}
);
layerId = "B61048DD-A105-4E1B-AF86-BB1631F6D87A";
width = 709;
}
);
leftKerningGroup = A;
note = Aacute;
rightKerningGroup = A;
unicode = 00C1;
},
{
glyphname = Agrave;
layers = (
{
background = {
paths = (
{
closed = 1;
nodes = (
"265 895 LINE",
"176 895 LINE",
"175 892 LINE",
"290 750 LINE",
"360 750 LINE"
);
},
{
closed = 1;
nodes = (
"380 686 LINE",
"272 686 LINE",
"4 0 LINE",
"99 0 LINE",
"156 149 LINE",
"484 149 LINE",
"542 0 LINE",
"648 0 LINE"
);
},
{
closed = 1;
nodes = (
"324 568 LINE",
"450 238 LINE",
"191 238 LINE",
"318 568 LINE"
);
}
);
};
components = (
{
name = A;
},
{
name = gravecomb.case;
transform = "{1, 0, 0, 1, 399, 0}";
}
);
layerId = "86BFE29D-DE3A-4B42-8FD7-32CE7A5DD9A0";
width = 652;
},
{
background = {
paths = (
{
closed = 1;
nodes = (
"300 750 LINE",
"350 750 LINE",
"254 895 LINE",
"189 895 LINE",
"189 892 LINE"
);
},
{
closed = 1;
nodes = (
"492 170 LINE",
"563 0 LINE",
"622 0 LINE",
"338 686 LINE",
"288 686 LINE",
"4 0 LINE",
"60 0 LINE",
"130 170 LINE"
);
},
{
closed = 1;
nodes = (
"150 219 LINE",
"309 612 LINE",
"313 612 LINE",
"472 219 LINE"
);
}
);
};
components = (
{
name = A;
},
{
name = gravecomb.case;
transform = "{1, 0, 0, 1, 393, 0}";
}
);
layerId = "F84504BD-929B-4EC5-838D-CC63F45B30C5";
width = 652;
},
{
background = {
paths = (
{
closed = 1;
nodes = (
"307 750 LINE",
"409 750 LINE",
"316 895 LINE",
"188 895 LINE",
"187 892 LINE"
);
},
{
closed = 1;
nodes = (
"472 135 LINE",
"522 0 LINE",
"684 0 LINE",
"435 686 LINE",
"251 686 LINE",
"2 0 LINE",
"151 0 LINE",
"199 135 LINE"
);
},
{
closed = 1;
nodes = (
"334 521 LINE",
"339 521 LINE",
"370 432 OFFCURVE",
"401 342 OFFCURVE",
"431 252 CURVE",
"241 252 LINE"
);
}
);
};
components = (
{
name = A;
},
{
name = gravecomb.case;
transform = "{1, 0, 0, 1, 429, 0}";
}
);
layerId = "4FE665F2-115E-4010-81D6-04A4227E19CC";
width = 686;
},
{
background = {
paths = (
{
closed = 1;
nodes = (
"415 750 LINE",
"324 895 LINE",
"173 895 LINE",
"171 892 LINE",
"297 750 LINE"
);
},
{
closed = 1;
nodes = (
"714 0 LINE",
"485 686 LINE",
"224 686 LINE",
"-5 0 LINE",
"197 0 LINE",
"237 122 LINE",
"455 122 LINE",
"496 0 LINE"
);
},
{
closed = 1;
nodes = (
"344 475 LINE",
"349 475 LINE",
"407 267 LINE",
"285 267 LINE"
);
}
);
};
components = (
{
name = A;
},
{
name = gravecomb.case;
transform = "{1, 0, 0, 1, 444, 0}";
}
);
layerId = "B61048DD-A105-4E1B-AF86-BB1631F6D87A";
width = 709;
}
);
leftKerningGroup = A;
note = Agrave;
rightKerningGroup = A;
unicode = 00C0;
},
{
glyphname = AE;
layers = (
{
anchors = (
{
name = top;
position = "{463, 686}";
}
);
layerId = "86BFE29D-DE3A-4B42-8FD7-32CE7A5DD9A0";
paths = (
{
closed = 1;
nodes = (
"371 686 LINE",
"7 0 LINE",
"101 0 LINE",
"179 149 LINE",
"507 149 LINE",
"544 0 LINE",
"939 0 LINE",
"925 89 LINE",
"627 89 LINE",
"573 306 LINE",
"887 306 LINE",
"887 395 LINE",
"551 395 LINE",
"501 597 LINE",
"919 597 LINE",
"932 686 LINE"
);
},
{
closed = 1;
nodes = (
"486 238 LINE",
"227 238 LINE",
"400 568 LINE",
"406 568 LINE"
);
}
);
width = 983;
},
{
anchors = (
{
name = top;
position = "{473, 686}";
}
);
layerId = "F84504BD-929B-4EC5-838D-CC63F45B30C5";
paths = (
{
closed = 1;
nodes = (
"398 686 LINE",
"17 0 LINE",
"79 0 LINE",
"173 170 LINE",
"527 170 LINE",
"574 0 LINE",
"923 0 LINE",
"914 48 LINE",
"618 48 LINE",
"542 326 LINE",
"862 326 LINE",
"862 374 LINE",
"529 374 LINE",
"457 638 LINE",
"901 638 LINE",
"913 686 LINE"
);
},
{
closed = 1;
nodes = (
"514 219 LINE",
"200 219 LINE",
"408 607 LINE",
"411 608 LINE"
);
}
);
width = 975;
},
{
anchors = (
{
name = top;
position = "{473, 686}";
}
);
layerId = "4FE665F2-115E-4010-81D6-04A4227E19CC";
paths = (
{
closed = 1;
nodes = (
"344 686 LINE",
"0 0 LINE",
"147 0 LINE",
"215 135 LINE",
"488 135 LINE",
"518 0 LINE",
"964 0 LINE",
"947 126 LINE",
"653 126 LINE",
"615 290 LINE",
"922 290 LINE",
"922 411 LINE",
"589 411 LINE",
"555 562 LINE",
"944 562 LINE",
"960 686 LINE"
);
},
{
closed = 1;
nodes = (
"464 252 LINE",
"273 252 LINE",
"404 521 LINE",
"409 521 LINE"
);
}
);
width = 1004;
},
{
anchors = (
{
name = top;
position = "{473, 686}";
}
);
layerId = "B61048DD-A105-4E1B-AF86-BB1631F6D87A";
paths = (
{
closed = 1;
nodes = (
"312 686 LINE",
"-13 0 LINE",
"187 0 LINE",
"245 122 LINE",
"463 122 LINE",
"487 0 LINE",
"983 0 LINE",
"963 164 LINE",
"674 164 LINE",
"652 275 LINE",
"952 275 LINE",
"952 428 LINE",
"622 428 LINE",
"603 528 LINE",
"963 528 LINE",
"983 686 LINE"
);
},
{
closed = 1;
nodes = (
"436 267 LINE",
"314 267 LINE",
"402 475 LINE",
"407 475 LINE"
);
}
);
width = 1011;
}
);
leftKerningGroup = A;
note = AE;
rightKerningGroup = E;
unicode = 00C6;
},
{
glyphname = B;
layers = (
{
layerId = "86BFE29D-DE3A-4B42-8FD7-32CE7A5DD9A0";
paths = (
{
closed = 1;
nodes = (
"92 686 LINE",
"92 0 LINE",
"402 0 LINE SMOOTH",
"499 0 OFFCURVE",
"592 73 OFFCURVE",
"592 187 CURVE SMOOTH",
"592 283 OFFCURVE",
"531 341 OFFCURVE",
"456 353 CURVE",
"456 358 LINE",
"538 381 OFFCURVE",
"576 439 OFFCURVE",
"576 518 CURVE SMOOTH",
"576 612 OFFCURVE",
"495 686 OFFCURVE",
"396 686 CURVE SMOOTH"
);
},
{
closed = 1;
nodes = (
"190 394 LINE",
"190 597 LINE",
"376 597 LINE SMOOTH",
"432 597 OFFCURVE",
"478 551 OFFCURVE",
"478 495 CURVE SMOOTH",
"478 436 OFFCURVE",
"427 394 OFFCURVE",
"376 394 CURVE SMOOTH"
);
},
{
closed = 1;
nodes = (
"190 89 LINE",
"190 305 LINE",
"386 305 LINE SMOOTH",
"446 305 OFFCURVE",
"494 257 OFFCURVE",
"494 197 CURVE SMOOTH",
"494 137 OFFCURVE",
"446 89 OFFCURVE",
"386 89 CURVE SMOOTH"
);
}
);
width = 651;
},
{
layerId = "F84504BD-929B-4EC5-838D-CC63F45B30C5";
paths = (
{
closed = 1;
nodes = (
"107 686 LINE",
"107 0 LINE",
"387 0 LINE SMOOTH",
"492 0 OFFCURVE",
"577 82 OFFCURVE",
"577 183 CURVE SMOOTH",
"577 317 OFFCURVE",
"476 348 OFFCURVE",
"440 353 CURVE",
"440 359 LINE",
"493 372 OFFCURVE",
"561 421 OFFCURVE",
"561 523 CURVE SMOOTH",
"561 616 OFFCURVE",
"491 686 OFFCURVE",
"381 686 CURVE SMOOTH"
);
},
{
closed = 1;
nodes = (
"161 374 LINE",
"161 638 LINE",
"388 638 LINE SMOOTH",
"468 638 OFFCURVE",
"506 586 OFFCURVE",
"506 511 CURVE SMOOTH",
"506 436 OFFCURVE",
"446 374 OFFCURVE",
"371 374 CURVE SMOOTH"
);
},
{
closed = 1;
nodes = (
"161 48 LINE",
"161 326 LINE",
"381 326 LINE SMOOTH",
"459 326 OFFCURVE",
"523 264 OFFCURVE",
"523 186 CURVE SMOOTH",
"523 108 OFFCURVE",
"459 48 OFFCURVE",
"381 48 CURVE SMOOTH"
);
}
);
width = 651;
},
{
layerId = "4FE665F2-115E-4010-81D6-04A4227E19CC";
paths = (
{
closed = 1;
nodes = (
"72 686 LINE",
"72 0 LINE",
"418 0 LINE SMOOTH",
"523 0 OFFCURVE",
"608 82 OFFCURVE",
"608 183 CURVE SMOOTH",
"608 299 OFFCURVE",
"534 341 OFFCURVE",
"475 353 CURVE",
"475 358 LINE",
"534 374 OFFCURVE",
"592 417 OFFCURVE",
"592 518 CURVE SMOOTH",
"592 611 OFFCURVE",
"511 686 OFFCURVE",
"412 686 CURVE SMOOTH"
);
},
{
closed = 1;
nodes = (
"218 408 LINE",
"218 568 LINE",
"368 568 LINE SMOOTH",
"400 568 OFFCURVE",
"444 551 OFFCURVE",
"444 489 CURVE SMOOTH",
"444 441 OFFCURVE",
"407 408 OFFCURVE",
"368 408 CURVE SMOOTH"
);
},
{
closed = 1;
nodes = (
"218 124 LINE",
"218 291 LINE",
"379 291 LINE SMOOTH",
"423 291 OFFCURVE",
"458 256 OFFCURVE",
"458 212 CURVE SMOOTH",
"458 157 OFFCURVE",
"425 124 OFFCURVE",
"379 124 CURVE SMOOTH"
);
}
);
width = 645;
},
{
layerId = "B61048DD-A105-4E1B-AF86-BB1631F6D87A";
paths = (
{
closed = 1;
nodes = (
"57 686 LINE",
"57 0 LINE",
"439 0 LINE SMOOTH",
"544 0 OFFCURVE",
"629 82 OFFCURVE",
"629 183 CURVE SMOOTH",
"629 292 OFFCURVE",
"569 338 OFFCURVE",
"498 354 CURVE",
"498 358 LINE",
"559 377 OFFCURVE",
"613 417 OFFCURVE",
"613 518 CURVE SMOOTH",
"613 611 OFFCURVE",
"533 686 OFFCURVE",
"433 686 CURVE SMOOTH"
);
},
{
closed = 1;
nodes = (
"250 423 LINE",
"250 540 LINE",
"365 540 LINE SMOOTH",
"393 540 OFFCURVE",
"415 527 OFFCURVE",
"415 487 CURVE SMOOTH",
"415 454 OFFCURVE",
"403 423 OFFCURVE",
"365 423 CURVE SMOOTH"
);
},
{
closed = 1;
nodes = (
"250 159 LINE",
"250 277 LINE",
"377 277 LINE SMOOTH",
"405 277 OFFCURVE",
"427 264 OFFCURVE",
"427 224 CURVE SMOOTH",
"427 190 OFFCURVE",
"415 159 OFFCURVE",
"377 159 CURVE SMOOTH"
);
}
);
width = 656;
}
);
leftKerningGroup = H;
note = B;
rightKerningGroup = B;
unicode = 0042;
},
{
glyphname = C;
layers = (
{
anchors = (
{
name = bottom;
position = "{337, 0}";
},
{
name = top;
position = "{334, 686}";
}
);
background = {
paths = (
{
closed = 1;
nodes = (
"167 696 OFFCURVE",
"62 580 OFFCURVE",
"62 388 CURVE SMOOTH",
"62 298 LINE SMOOTH",
"62 104 OFFCURVE",
"167 -10 OFFCURVE",
"344 -10 CURVE SMOOTH",
"506 -10 OFFCURVE",
"609 94 OFFCURVE",
"609 261 CURVE",
"515 261 LINE",
"515 148 OFFCURVE",
"456 79 OFFCURVE",
"342 79 CURVE SMOOTH",
"222 79 OFFCURVE",
"160 156 OFFCURVE",
"160 298 CURVE SMOOTH",
"160 388 LINE SMOOTH",
"160 532 OFFCURVE",
"225 607 OFFCURVE",
"344 607 CURVE SMOOTH",
"453 607 OFFCURVE",
"511 538 OFFCURVE",
"511 423 CURVE",
"609 423 LINE",
"609 593 OFFCURVE",
"505 696 OFFCURVE",
"344 696 CURVE SMOOTH"
);
}
);
};
layerId = "86BFE29D-DE3A-4B42-8FD7-32CE7A5DD9A0";
paths = (
{
closed = 1;
nodes = (
"337 696 LINE SMOOTH",
"168 696 OFFCURVE",
"62 578 OFFCURVE",
"62 388 CURVE SMOOTH",
"62 298 LINE SMOOTH",
"62 104 OFFCURVE",
"168 -10 OFFCURVE",
"340 -10 CURVE SMOOTH",
"351 -10 LINE SMOOTH",
"505 -10 OFFCURVE",
"609 96 OFFCURVE",
"609 261 CURVE",
"515 261 LINE",
"515 148 OFFCURVE",
"456 79 OFFCURVE",
"342 79 CURVE SMOOTH",
"222 79 OFFCURVE",
"160 156 OFFCURVE",
"160 298 CURVE SMOOTH",
"160 388 LINE SMOOTH",
"160 532 OFFCURVE",
"225 607 OFFCURVE",
"344 607 CURVE SMOOTH",
"453 607 OFFCURVE",
"511 538 OFFCURVE",
"511 423 CURVE",
"609 423 LINE",
"609 593 OFFCURVE",
"504 696 OFFCURVE",
"348 696 CURVE SMOOTH"
);
}
);
width = 663;
},
{
anchors = (
{
name = bottom;
position = "{332, 0}";
},
{
name = top;
position = "{329, 686}";
}
);
background = {
hints = (
{
horizontal = 1;
place = "{-10, 48}";
type = Stem;
},
{
horizontal = 1;
place = "{648, 48}";
type = Stem;
},
{
place = "{61, 54}";
type = Stem;
},
{
place = "{539, 54}";
type = Stem;
}
);
paths = (
{
closed = 1;
nodes = (
"538 251 LINE",
"538 81 OFFCURVE",
"442 38 OFFCURVE",
"337 38 CURVE SMOOTH",
"220 38 OFFCURVE",
"133 91 OFFCURVE",
"133 318 CURVE SMOOTH",
"133 368 LINE SMOOTH",
"133 595 OFFCURVE",
"220 648 OFFCURVE",
"337 648 CURVE SMOOTH",
"442 648 OFFCURVE",
"538 606 OFFCURVE",
"538 434 CURVE",
"591 434 LINE",
"591 642 OFFCURVE",
"469 696 OFFCURVE",
"337 696 CURVE SMOOTH",
"190 696 OFFCURVE",
"79 631 OFFCURVE",
"79 356 CURVE SMOOTH",
"79 330 LINE SMOOTH",
"79 55 OFFCURVE",
"190 -10 OFFCURVE",
"337 -10 CURVE SMOOTH",
"469 -10 OFFCURVE",
"591 48 OFFCURVE",
"591 251 CURVE"
);
}
);
};
layerId = "F84504BD-929B-4EC5-838D-CC63F45B30C5";
paths = (
{
closed = 1;
nodes = (
"335 696 LINE SMOOTH",
"191 696 OFFCURVE",
"79 631 OFFCURVE",
"79 356 CURVE SMOOTH",
"79 330 LINE SMOOTH",
"79 55 OFFCURVE",
"191 -10 OFFCURVE",
"335 -10 CURVE SMOOTH",
"340 -10 LINE SMOOTH",
"470 -10 OFFCURVE",
"591 50 OFFCURVE",
"591 251 CURVE",
"538 251 LINE",
"538 81 OFFCURVE",
"442 38 OFFCURVE",
"337 38 CURVE SMOOTH",
"220 38 OFFCURVE",
"133 91 OFFCURVE",
"133 318 CURVE SMOOTH",
"133 368 LINE SMOOTH",
"133 595 OFFCURVE",
"220 648 OFFCURVE",
"337 648 CURVE SMOOTH",
"442 648 OFFCURVE",
"538 606 OFFCURVE",
"538 434 CURVE",
"591 434 LINE",
"591 640 OFFCURVE",
"469 696 OFFCURVE",
"340 696 CURVE SMOOTH"
);
}
);
width = 663;
},
{
anchors = (
{
name = bottom;
position = "{345, 0}";
},
{
name = top;
position = "{342, 686}";
}
);
layerId = "4FE665F2-115E-4010-81D6-04A4227E19CC";
paths = (
{
closed = 1;
nodes = (
"344 696 LINE SMOOTH",
"180 696 OFFCURVE",
"48 586 OFFCURVE",
"48 392 CURVE SMOOTH",
"48 294 LINE SMOOTH",
"48 95 OFFCURVE",
"178 -10 OFFCURVE",
"348 -10 CURVE SMOOTH",
"362 -10 LINE SMOOTH",
"515 -10 OFFCURVE",
"635 88 OFFCURVE",
"635 270 CURVE",
"494 270 LINE",
"494 163 OFFCURVE",
"450 113 OFFCURVE",
"355 113 CURVE SMOOTH",
"275 113 OFFCURVE",
"210 167 OFFCURVE",
"210 272 CURVE SMOOTH",
"210 414 LINE SMOOTH",
"210 519 OFFCURVE",
"274 573 OFFCURVE",
"354 573 CURVE SMOOTH",
"440 573 OFFCURVE",
"488 519 OFFCURVE",
"488 414 CURVE",
"635 414 LINE",
"635 603 OFFCURVE",
"514 696 OFFCURVE",
"358 696 CURVE SMOOTH"
);
}
);
width = 683;
},
{
anchors = (
{
name = bottom;
position = "{349, 0}";
},
{
name = top;
position = "{346, 686}";
}
);
layerId = "B61048DD-A105-4E1B-AF86-BB1631F6D87A";
paths = (
{
closed = 1;
nodes = (
"341 696 LINE SMOOTH",
"175 696 OFFCURVE",
"31 576 OFFCURVE",
"31 396 CURVE SMOOTH",
"31 290 LINE SMOOTH",
"31 100 OFFCURVE",
"173 -10 OFFCURVE",
"349 -10 CURVE SMOOTH",
"377 -10 LINE SMOOTH",
"539 -10 OFFCURVE",
"659 100 OFFCURVE",
"659 280 CURVE",
"471 280 LINE",
"471 178 OFFCURVE",
"441 147 OFFCURVE",
"356 147 CURVE SMOOTH",
"292 147 OFFCURVE",
"257 188 OFFCURVE",
"257 247 CURVE SMOOTH",
"257 440 LINE SMOOTH",
"257 499 OFFCURVE",
"295 540 OFFCURVE",
"356 540 CURVE SMOOTH",
"430 540 OFFCURVE",
"462 506 OFFCURVE",
"462 405 CURVE",
"659 405 LINE",
"659 600 OFFCURVE",
"532 696 OFFCURVE",
"369 696 CURVE SMOOTH"
);
}
);
width = 683;
}
);
leftKerningGroup = O;
note = C;
rightKerningGroup = C;
unicode = 0043;
},
{
glyphname = D;
layers = (
{
anchors = (
{
name = center;
position = "{185, 348}";
},
{
name = top;
position = "{341, 686}";
}
);
layerId = "86BFE29D-DE3A-4B42-8FD7-32CE7A5DD9A0";
paths = (
{
closed = 1;
nodes = (
"92 686 LINE",
"92 0 LINE",
"330 0 LINE SMOOTH",
"503 0 OFFCURVE",
"614 119 OFFCURVE",
"614 308 CURVE SMOOTH",
"614 378 LINE SMOOTH",
"614 567 OFFCURVE",
"503 686 OFFCURVE",
"330 686 CURVE SMOOTH"
);
},
{
closed = 1;
nodes = (
"330 597 LINE SMOOTH",
"452 597 OFFCURVE",
"516 519 OFFCURVE",
"516 378 CURVE SMOOTH",
"516 308 LINE SMOOTH",
"516 162 OFFCURVE",
"447 89 OFFCURVE",
"330 89 CURVE SMOOTH",
"190 89 LINE",
"190 597 LINE"
);
}
);
width = 675;
},
{
anchors = (
{
name = center;
position = "{185, 348}";
},
{
name = top;
position = "{332, 686}";
}
);
layerId = "F84504BD-929B-4EC5-838D-CC63F45B30C5";
paths = (
{
closed = 1;
nodes = (
"107 686 LINE",
"107 0 LINE",
"327 0 LINE SMOOTH",
"474 0 OFFCURVE",
"593 74 OFFCURVE",
"593 331 CURVE SMOOTH",
"593 356 LINE SMOOTH",
"593 615 OFFCURVE",
"474 686 OFFCURVE",
"327 686 CURVE SMOOTH"
);
},
{
closed = 1;
nodes = (
"327 638 LINE SMOOTH",
"444 638 OFFCURVE",
"539 577 OFFCURVE",
"539 365 CURVE SMOOTH",
"539 322 LINE SMOOTH",
"539 104 OFFCURVE",
"444 48 OFFCURVE",
"327 48 CURVE SMOOTH",
"161 48 LINE",
"161 638 LINE"
);
}
);
width = 672;
},
{
anchors = (
{
name = center;
position = "{182, 348}";
},
{
name = top;
position = "{338, 686}";
}
);
layerId = "4FE665F2-115E-4010-81D6-04A4227E19CC";
paths = (
{
closed = 1;
nodes = (
"72 686 LINE",
"72 0 LINE",
"332 0 LINE SMOOTH",
"499 0 OFFCURVE",
"638 109 OFFCURVE",
"638 304 CURVE SMOOTH",
"638 382 LINE SMOOTH",
"638 577 OFFCURVE",
"499 686 OFFCURVE",
"332 686 CURVE SMOOTH"
);
},
{
closed = 1;
nodes = (
"332 563 LINE SMOOTH",
"414 563 OFFCURVE",
"476 509 OFFCURVE",
"476 404 CURVE SMOOTH",
"476 282 LINE SMOOTH",
"476 177 OFFCURVE",
"414 123 OFFCURVE",
"332 123 CURVE SMOOTH",
"227 123 LINE",
"227 563 LINE"
);
}
);
width = 686;
},
{
anchors = (
{
name = center;
position = "{198, 348}";
},
{
name = top;
position = "{349, 686}";
}
);
layerId = "B61048DD-A105-4E1B-AF86-BB1631F6D87A";
paths = (
{
closed = 1;
nodes = (
"57 686 LINE",
"57 0 LINE",
"366 0 LINE SMOOTH",
"532 0 OFFCURVE",
"666 134 OFFCURVE",
"666 300 CURVE SMOOTH",
"666 386 LINE SMOOTH",
"666 552 OFFCURVE",
"532 686 OFFCURVE",
"366 686 CURVE SMOOTH"
);
},
{
closed = 1;
nodes = (
"346 530 LINE SMOOTH",
"402 530 OFFCURVE",
"446 486 OFFCURVE",
"446 430 CURVE SMOOTH",
"446 259 LINE SMOOTH",
"446 203 OFFCURVE",
"402 159 OFFCURVE",
"346 159 CURVE SMOOTH",
"269 159 LINE",
"269 530 LINE"
);
}
);
width = 696;
}
);
leftKerningGroup = H;
note = D;
rightKerningGroup = O;
unicode = 0044;
},
{
glyphname = E;
layers = (
{
anchors = (
{
name = bottom;
position = "{332, 0}";
},
{
name = ogonek;
position = "{485, 0}";
},
{
name = top;
position = "{314, 686}";
}
);
layerId = "86BFE29D-DE3A-4B42-8FD7-32CE7A5DD9A0";
paths = (
{
closed = 1;
nodes = (
"92 0 LINE",
"549 0 LINE",
"535 89 LINE",
"190 89 LINE",
"190 306 LINE",
"497 306 LINE",
"497 395 LINE",
"190 395 LINE",
"190 597 LINE",
"529 597 LINE",
"542 686 LINE",
"92 686 LINE"
);
}
);
width = 593;
},
{
anchors = (
{
name = bottom;
position = "{337, 0}";
},
{
name = ogonek;
position = "{490, 0}";
},
{
name = top;
position = "{319, 686}";
}
);
layerId = "F84504BD-929B-4EC5-838D-CC63F45B30C5";
paths = (
{
closed = 1;
nodes = (
"107 0 LINE",
"541 0 LINE",
"530 48 LINE",
"161 48 LINE",
"161 326 LINE",
"480 326 LINE",
"480 374 LINE",
"161 374 LINE",
"161 638 LINE",
"521 638 LINE",
"531 686 LINE",
"107 686 LINE"
);
}
);
width = 593;
},
{
anchors = (
{
name = bottom;
position = "{334, 0}";
},
{
name = ogonek;
position = "{478, 0}";
},
{
name = top;
position = "{316, 686}";
}
);
layerId = "4FE665F2-115E-4010-81D6-04A4227E19CC";
paths = (
{
closed = 1;
nodes = (
"72 0 LINE",
"558 0 LINE",
"541 123 LINE",
"224 123 LINE",
"224 290 LINE",
"517 290 LINE",
"517 413 LINE",
"224 413 LINE",
"224 563 LINE",
"538 563 LINE",
"555 686 LINE",
"72 686 LINE"
);
}
);
width = 598;
},
{
anchors = (
{
name = bottom;
position = "{325, 0}";
},
{
name = ogonek;
position = "{483, 0}";
},
{
name = top;
position = "{309, 686}";
}
);
layerId = "B61048DD-A105-4E1B-AF86-BB1631F6D87A";
paths = (
{
closed = 1;
nodes = (
"57 0 LINE",
"572 0 LINE",
"552 164 LINE",
"263 164 LINE",
"263 275 LINE",
"541 275 LINE",
"541 428 LINE",
"263 428 LINE",
"263 528 LINE",
"552 528 LINE",
"572 686 LINE",
"57 686 LINE"
);
}
);
width = 600;
}
);
leftKerningGroup = H;
note = E;
rightKerningGroup = E;
unicode = 0045;
},
{
glyphname = Eogonek;
layers = (
{
background = {
paths = (
{
closed = 1;
nodes = (
"589 -82 LINE",
"559 -91 OFFCURVE",
"537 -96 OFFCURVE",
"522 -96 CURVE SMOOTH",
"493 -96 OFFCURVE",
"478 -83 OFFCURVE",
"478 -58 CURVE SMOOTH",
"478 -35 OFFCURVE",
"504 -11 OFFCURVE",
"524 0 CURVE",
"549 0 LINE",
"535 89 LINE",
"190 89 LINE",
"190 306 LINE",
"497 306 LINE",
"497 395 LINE",
"190 395 LINE",
"190 597 LINE",
"529 597 LINE",
"542 686 LINE",
"92 686 LINE",
"92 0 LINE",
"470 0 LINE",
"446 -16 OFFCURVE",
"416 -40 OFFCURVE",
"416 -69 CURVE SMOOTH",
"416 -120 OFFCURVE",
"454 -143 OFFCURVE",
"513 -143 CURVE SMOOTH",
"545 -143 OFFCURVE",
"575 -135 OFFCURVE",
"602 -119 CURVE"
);
}
);
};
components = (
{
name = E;
},
{
name = ogonekcomb;
transform = "{1, 0, 0, 1, 690, 0}";
}
);
layerId = "86BFE29D-DE3A-4B42-8FD7-32CE7A5DD9A0";
width = 593;
},
{
background = {
paths = (
{
closed = 1;
nodes = (
"576 -86 LINE",
"555 -93 OFFCURVE",
"533 -100 OFFCURVE",
"509 -100 CURVE SMOOTH",
"488 -100 OFFCURVE",
"465 -91 OFFCURVE",
"465 -60 CURVE SMOOTH",
"465 -33 OFFCURVE",
"489 -16 OFFCURVE",
"509 -2 CURVE SMOOTH",
"512 0 LINE",
"526 0 LINE",
"515 48 LINE",
"146 48 LINE",
"146 326 LINE",
"465 326 LINE",
"465 374 LINE",
"146 374 LINE",
"146 638 LINE",
"506 638 LINE",
"516 686 LINE",
"92 686 LINE",
"92 0 LINE",
"462 0 LINE",
"438 -16 OFFCURVE",
"408 -39 OFFCURVE",
"408 -71 CURVE SMOOTH",
"408 -126 OFFCURVE",
"459 -143 OFFCURVE",
"505 -143 CURVE SMOOTH",
"534 -143 OFFCURVE",
"563 -135 OFFCURVE",
"589 -119 CURVE"
);
}
);
};
components = (
{
name = E;
},
{
name = ogonekcomb;
transform = "{1, 0, 0, 1, 695, 0}";
}
);
layerId = "F84504BD-929B-4EC5-838D-CC63F45B30C5";
width = 593;
},
{
background = {
paths = (
{
closed = 1;
nodes = (
"592 -79 LINE",
"571 -87 OFFCURVE",
"549 -93 OFFCURVE",
"525 -93 CURVE SMOOTH",
"504 -93 OFFCURVE",
"481 -85 OFFCURVE",
"481 -57 CURVE SMOOTH",
"481 -32 OFFCURVE",
"508 -11 OFFCURVE",
"528 0 CURVE",
"558 0 LINE",
"541 123 LINE",
"224 123 LINE",
"224 290 LINE",
"517 290 LINE",
"517 413 LINE",
"224 413 LINE",
"224 563 LINE",
"538 563 LINE",
"555 686 LINE",
"72 686 LINE",
"72 0 LINE",
"466 0 LINE",
"442 -16 OFFCURVE",
"412 -39 OFFCURVE",
"412 -71 CURVE SMOOTH",
"412 -126 OFFCURVE",
"463 -143 OFFCURVE",
"509 -143 CURVE SMOOTH",
"542 -143 OFFCURVE",
"576 -135 OFFCURVE",
"605 -119 CURVE"
);
}
);
};
components = (
{
name = E;
},
{
name = ogonekcomb;
transform = "{1, 0, 0, 1, 683, 0}";
}
);
layerId = "4FE665F2-115E-4010-81D6-04A4227E19CC";
width = 598;
},
{
background = {
paths = (
{
closed = 1;
nodes = (
"605 -76 LINE",
"584 -84 OFFCURVE",
"561 -90 OFFCURVE",
"538 -90 CURVE SMOOTH",
"517 -90 OFFCURVE",
"494 -83 OFFCURVE",
"494 -56 CURVE SMOOTH",
"494 -29 OFFCURVE",
"522 -12 OFFCURVE",
"541 0 CURVE",
"572 0 LINE",
"552 164 LINE",
"263 164 LINE",
"263 275 LINE",
"541 275 LINE",
"541 428 LINE",
"263 428 LINE",
"263 528 LINE",
"552 528 LINE",
"572 686 LINE",
"57 686 LINE",
"57 0 LINE",
"471 0 LINE",
"447 -16 OFFCURVE",
"417 -39 OFFCURVE",
"417 -71 CURVE SMOOTH",
"417 -126 OFFCURVE",
"468 -143 OFFCURVE",
"514 -143 CURVE SMOOTH",
"551 -143 OFFCURVE",
"586 -135 OFFCURVE",
"618 -119 CURVE"
);
}
);
};
components = (
{
name = E;
},
{
name = ogonekcomb;
transform = "{1, 0, 0, 1, 688, 0}";
}
);
layerId = "B61048DD-A105-4E1B-AF86-BB1631F6D87A";
width = 600;
}
);
leftKerningGroup = H;
note = Eogonek;
rightKerningGroup = E;
unicode = 0118;
},
{
glyphname = F;
layers = (
{
layerId = "86BFE29D-DE3A-4B42-8FD7-32CE7A5DD9A0";
paths = (
{
closed = 1;
nodes = (
"92 0 LINE",
"190 0 LINE",
"190 299 LINE",
"470 299 LINE",
"470 388 LINE",
"190 388 LINE",
"190 597 LINE",
"511 597 LINE",
"524 686 LINE",
"92 686 LINE"
);
}
);
width = 550;
},
{
layerId = "F84504BD-929B-4EC5-838D-CC63F45B30C5";
paths = (
{
closed = 1;
nodes = (
"107 0 LINE",
"161 0 LINE",
"161 326 LINE",
"454 326 LINE",
"454 374 LINE",
"161 374 LINE",
"161 638 LINE",
"504 638 LINE",
"513 686 LINE",
"107 686 LINE"
);
}
);
width = 550;
},
{
layerId = "4FE665F2-115E-4010-81D6-04A4227E19CC";
paths = (
{
closed = 1;
nodes = (
"72 0 LINE",
"224 0 LINE",
"224 276 LINE",
"490 276 LINE",
"490 399 LINE",
"224 399 LINE",
"224 563 LINE",
"520 563 LINE",
"536 686 LINE",
"72 686 LINE"
);
}
);
width = 563;
},
{
layerId = "B61048DD-A105-4E1B-AF86-BB1631F6D87A";
paths = (
{
closed = 1;
nodes = (
"57 0 LINE",
"262 0 LINE",
"262 257 LINE",
"514 257 LINE",
"514 411 LINE",
"262 411 LINE",
"262 523 LINE",
"533 523 LINE",
"553 686 LINE",
"57 686 LINE"
);
}
);
width = 562;
}
);
leftKerningGroup = H;
note = F;
rightKerningGroup = F;
unicode = 0046;
},
{
glyphname = Fhook;
layers = (
{
layerId = "B61048DD-A105-4E1B-AF86-BB1631F6D87A";
paths = (
{
closed = 1;
nodes = (
"-29 -178 OFFCURVE",
"39 -187 OFFCURVE",
"73 -187 CURVE SMOOTH",
"182 -187 OFFCURVE",
"262 -134 OFFCURVE",
"262 -26 CURVE SMOOTH",
"262 257 LINE",
"514 257 LINE",
"514 411 LINE",
"262 411 LINE",
"262 523 LINE",
"533 523 LINE",
"553 686 LINE",
"57 686 LINE",
"57 4 LINE SMOOTH",
"57 -55 OFFCURVE",
"29 -65 OFFCURVE",
"1 -65 CURVE SMOOTH",
"-14 -65 OFFCURVE",
"-46 -60 OFFCURVE",
"-61 -53 CURVE",
"-61 -165 LINE"
);
}
);
width = 562;
},
{
layerId = "F84504BD-929B-4EC5-838D-CC63F45B30C5";
paths = (
{
closed = 1;
nodes = (
"3 -179 OFFCURVE",
"29 -186 OFFCURVE",
"54 -186 CURVE SMOOTH",
"113 -186 OFFCURVE",
"159 -152 OFFCURVE",
"159 -75 CURVE SMOOTH",
"159 326 LINE",
"452 326 LINE",
"452 374 LINE",
"159 374 LINE",
"159 638 LINE",
"502 638 LINE",
"511 686 LINE",
"105 686 LINE",
"105 -73 LINE SMOOTH",
"105 -132 OFFCURVE",
"76 -140 OFFCURVE",
"48 -140 CURVE SMOOTH",
"33 -140 OFFCURVE",
"2 -131 OFFCURVE",
"-14 -124 CURVE",
"-14 -169 LINE"
);
}
);
width = 548;
},
{
layerId = "4FE665F2-115E-4010-81D6-04A4227E19CC";
paths = (
{
closed = 1;
nodes = (
"-18 -179 OFFCURVE",
"33 -186 OFFCURVE",
"64 -186 CURVE SMOOTH",
"165 -186 OFFCURVE",
"224 -133 OFFCURVE",
"224 -20 CURVE SMOOTH",
"224 276 LINE",
"490 276 LINE",
"490 399 LINE",
"224 399 LINE",
"224 563 LINE",
"520 563 LINE",
"536 686 LINE",
"72 686 LINE",
"72 -18 LINE SMOOTH",
"72 -77 OFFCURVE",
"44 -86 OFFCURVE",
"16 -86 CURVE SMOOTH",
"1 -86 OFFCURVE",
"-30 -80 OFFCURVE",
"-45 -73 CURVE",
"-45 -166 LINE"
);
}
);
width = 563;
},
{
layerId = "86BFE29D-DE3A-4B42-8FD7-32CE7A5DD9A0";
paths = (
{
closed = 1;
nodes = (
"-2 -180 OFFCURVE",
"26 -186 OFFCURVE",
"61 -186 CURVE SMOOTH",
"154 -186 OFFCURVE",
"190 -134 OFFCURVE",
"190 -15 CURVE SMOOTH",
"190 299 LINE",
"470 299 LINE",
"470 388 LINE",
"190 388 LINE",
"190 597 LINE",
"511 597 LINE",
"524 686 LINE",
"92 686 LINE",
"92 -44 LINE SMOOTH",
"92 -93 OFFCURVE",
"77 -112 OFFCURVE",
"27 -112 CURVE SMOOTH",
"14 -112 OFFCURVE",
"-3 -107 OFFCURVE",
"-25 -97 CURVE",
"-25 -167 LINE"
);
}
);
width = 550;
}
);
leftKerningGroup = j;
rightKerningGroup = F;
unicode = 0191;
},
{
glyphname = G;
layers = (
{
anchors = (
{
name = bottom;
position = "{341, 0}";
},
{
name = top;
position = "{343, 686}";
}
);
background = {
paths = (
{
closed = 1;
nodes = (
"167 696 OFFCURVE",
"62 580 OFFCURVE",
"62 388 CURVE SMOOTH",
"62 298 LINE SMOOTH",
"62 104 OFFCURVE",
"167 -10 OFFCURVE",
"344 -10 CURVE SMOOTH",
"429 -10 OFFCURVE",
"492 21 OFFCURVE",
"535 82 CURVE",
"540 52 OFFCURVE",
"547 25 OFFCURVE",
"555 0 CURVE",
"613 0 LINE",
"609 30 OFFCURVE",
"607 73 OFFCURVE",
"607 128 CURVE SMOOTH",
"607 362 LINE",
"317 362 LINE",
"317 274 LINE",
"511 274 LINE",
"511 261 LINE SMOOTH",
"511 133 OFFCURVE",
"459 79 OFFCURVE",
"344 79 CURVE SMOOTH",
"222 79 OFFCURVE",
"160 155 OFFCURVE",
"160 298 CURVE SMOOTH",
"160 388 LINE SMOOTH",
"160 532 OFFCURVE",
"225 607 OFFCURVE",
"344 607 CURVE SMOOTH",
"452 607 OFFCURVE",
"509 547 OFFCURVE",
"509 445 CURVE",
"607 445 LINE",
"607 596 OFFCURVE",
"505 696 OFFCURVE",
"344 696 CURVE SMOOTH"
);
}
);
};
layerId = "86BFE29D-DE3A-4B42-8FD7-32CE7A5DD9A0";
paths = (
{
closed = 1;
nodes = (
"342 696 LINE SMOOTH",
"167 696 OFFCURVE",
"62 580 OFFCURVE",
"62 388 CURVE SMOOTH",
"62 298 LINE SMOOTH",
"62 106 OFFCURVE",
"167 -10 OFFCURVE",
"340 -10 CURVE SMOOTH",
"345 -10 LINE SMOOTH",
"430 -10 OFFCURVE",
"492 21 OFFCURVE",
"535 82 CURVE",
"555 0 LINE",
"613 0 LINE",
"609 30 OFFCURVE",
"607 73 OFFCURVE",
"607 128 CURVE SMOOTH",
"607 362 LINE",
"317 362 LINE",
"317 274 LINE",
"511 274 LINE",
"511 261 LINE SMOOTH",
"511 133 OFFCURVE",
"459 79 OFFCURVE",
"344 79 CURVE SMOOTH",
"222 79 OFFCURVE",
"160 155 OFFCURVE",
"160 298 CURVE SMOOTH",
"160 388 LINE SMOOTH",
"160 532 OFFCURVE",
"225 607 OFFCURVE",
"344 607 CURVE SMOOTH",
"452 607 OFFCURVE",
"509 547 OFFCURVE",
"509 445 CURVE",
"607 445 LINE",
"607 594 OFFCURVE",
"505 696 OFFCURVE",
"347 696 CURVE SMOOTH"
);
}
);
width = 677;
},
{
anchors = (
{
name = bottom;
position = "{340, 0}";
},
{
name = top;
position = "{342, 686}";
}
);
background = {
paths = (
{
closed = 1;
nodes = (
"541 303 LINE",
"541 251 LINE SMOOTH",
"541 79 OFFCURVE",
"442 38 OFFCURVE",
"337 38 CURVE SMOOTH",
"220 38 OFFCURVE",
"133 91 OFFCURVE",
"133 318 CURVE SMOOTH",
"133 368 LINE SMOOTH",
"133 595 OFFCURVE",
"220 648 OFFCURVE",
"337 648 CURVE SMOOTH",
"439 648 OFFCURVE",
"538 608 OFFCURVE",
"538 449 CURVE",
"591 449 LINE",
"591 645 OFFCURVE",
"466 696 OFFCURVE",
"337 696 CURVE SMOOTH",
"190 696 OFFCURVE",
"79 631 OFFCURVE",
"79 356 CURVE SMOOTH",
"79 330 LINE SMOOTH",
"79 55 OFFCURVE",
"190 -10 OFFCURVE",
"337 -10 CURVE SMOOTH",
"422 -10 OFFCURVE",
"502 18 OFFCURVE",
"544 92 CURVE",
"552 30 OFFCURVE",
"560 0 OFFCURVE",
"560 0 CURVE",
"597 0 LINE",
"597 0 OFFCURVE",
"591 48 OFFCURVE",
"591 119 CURVE SMOOTH",
"591 350 LINE",
"309 350 LINE",
"309 303 LINE"
);
}
);
};
layerId = "F84504BD-929B-4EC5-838D-CC63F45B30C5";
paths = (
{
closed = 1;
nodes = (
"336 696 LINE SMOOTH",
"190 696 OFFCURVE",
"79 631 OFFCURVE",
"79 356 CURVE SMOOTH",
"79 330 LINE SMOOTH",
"79 55 OFFCURVE",
"190 -10 OFFCURVE",
"336 -10 CURVE SMOOTH",
"341 -10 LINE SMOOTH",
"424 -10 OFFCURVE",
"503 20 OFFCURVE",
"544 92 CURVE",
"560 0 LINE",
"597 0 LINE",
"597 0 OFFCURVE",
"591 48 OFFCURVE",
"591 119 CURVE SMOOTH",
"591 350 LINE",
"309 350 LINE",
"309 303 LINE",
"541 303 LINE",
"541 251 LINE SMOOTH",
"541 79 OFFCURVE",
"442 38 OFFCURVE",
"337 38 CURVE SMOOTH",
"220 38 OFFCURVE",
"133 91 OFFCURVE",
"133 318 CURVE SMOOTH",
"133 368 LINE SMOOTH",
"133 595 OFFCURVE",
"220 648 OFFCURVE",
"337 648 CURVE SMOOTH",
"439 648 OFFCURVE",
"538 608 OFFCURVE",
"538 449 CURVE",
"591 449 LINE",
"591 642 OFFCURVE",
"468 696 OFFCURVE",
"341 696 CURVE SMOOTH"
);
}
);
width = 677;
},
{
anchors = (
{
name = bottom;
position = "{349, 0}";
},
{
name = top;
position = "{351, 686}";
}
);
layerId = "4FE665F2-115E-4010-81D6-04A4227E19CC";
paths = (
{
closed = 1;
nodes = (
"348 696 LINE SMOOTH",
"173 696 OFFCURVE",
"48 579 OFFCURVE",
"48 392 CURVE SMOOTH",
"48 294 LINE SMOOTH",
"48 107 OFFCURVE",
"167 -10 OFFCURVE",
"332 -10 CURVE SMOOTH",
"337 -10 LINE SMOOTH",
"415 -10 OFFCURVE",
"487 23 OFFCURVE",
"530 77 CURVE",
"554 0 LINE",
"639 0 LINE",
"639 0 OFFCURVE",
"633 56 OFFCURVE",
"633 136 CURVE SMOOTH",
"633 373 LINE",
"333 373 LINE",
"333 261 LINE",
"488 261 LINE",
"488 242 LINE SMOOTH",
"488 156 OFFCURVE",
"431 113 OFFCURVE",
"356 113 CURVE SMOOTH",
"276 113 OFFCURVE",
"210 167 OFFCURVE",
"210 272 CURVE SMOOTH",
"210 414 LINE SMOOTH",
"210 519 OFFCURVE",
"272 573 OFFCURVE",
"353 573 CURVE SMOOTH",
"425 573 OFFCURVE",
"487 534 OFFCURVE",
"487 442 CURVE",
"633 442 LINE",
"633 597 OFFCURVE",
"512 696 OFFCURVE",
"362 696 CURVE SMOOTH"
);
}
);
width = 699;
},
{
anchors = (
{
name = bottom;
position = "{349, 0}";
},
{
name = top;
position = "{351, 686}";
}
);
layerId = "B61048DD-A105-4E1B-AF86-BB1631F6D87A";
paths = (
{
closed = 1;
nodes = (
"350 696 LINE SMOOTH",
"162 696 OFFCURVE",
"31 562 OFFCURVE",
"31 396 CURVE SMOOTH",
"31 290 LINE SMOOTH",
"31 124 OFFCURVE",
"152 -10 OFFCURVE",
"317 -10 CURVE SMOOTH",
"327 -10 LINE SMOOTH",
"401 -10 OFFCURVE",
"481 25 OFFCURVE",
"523 73 CURVE",
"551 0 LINE",
"663 0 LINE",
"658 51 OFFCURVE",
"656 82 OFFCURVE",
"656 144 CURVE SMOOTH",
"656 384 LINE",
"346 384 LINE",
"346 248 LINE",
"462 248 LINE",
"462 236 LINE SMOOTH",
"462 173 OFFCURVE",
"425 147 OFFCURVE",
"357 147 CURVE SMOOTH",
"296 147 OFFCURVE",
"257 191 OFFCURVE",
"257 247 CURVE SMOOTH",
"257 440 LINE SMOOTH",
"257 496 OFFCURVE",
"296 540 OFFCURVE",
"357 540 CURVE SMOOTH",
"425 540 OFFCURVE",
"462 504 OFFCURVE",
"462 439 CURVE",
"656 439 LINE",
"656 589 OFFCURVE",
"535 696 OFFCURVE",
"378 696 CURVE SMOOTH"
);
}
);
width = 699;
}
);
leftKerningGroup = O;
note = G;
rightKerningGroup = G;
unicode = 0047;
},
{
glyphname = H;
layers = (
{
anchors = (
{
name = bottom;
position = "{341, 0}";
},
{
name = center;
position = "{347, 538}";
},
{
name = top;
position = "{343, 686}";
}
);
layerId = "86BFE29D-DE3A-4B42-8FD7-32CE7A5DD9A0";
paths = (
{
closed = 1;
nodes = (
"601 0 LINE",
"601 686 LINE",
"503 686 LINE",
"503 395 LINE",
"190 395 LINE",
"190 686 LINE",
"92 686 LINE",
"92 0 LINE",
"190 0 LINE",
"190 306 LINE",
"503 306 LINE",
"503 0 LINE"
);
}
);
width = 693;
},
{
anchors = (
{
name = bottom;
position = "{343, 0}";
},
{
name = center;
position = "{347, 538}";
},
{
name = top;
position = "{345, 686}";
}
);
layerId = "F84504BD-929B-4EC5-838D-CC63F45B30C5";
paths = (
{
closed = 1;
nodes = (
"586 0 LINE",
"586 686 LINE",
"532 686 LINE",
"532 374 LINE",
"161 374 LINE",
"161 686 LINE",
"107 686 LINE",
"107 0 LINE",
"161 0 LINE",
"161 326 LINE",
"532 326 LINE",
"532 0 LINE"
);
}
);
width = 693;
},
{
anchors = (
{
name = bottom;
position = "{340, 0}";
},
{
name = center;
position = "{344, 538}";
},
{
name = top;
position = "{344, 686}";
}
);
layerId = "4FE665F2-115E-4010-81D6-04A4227E19CC";
paths = (
{
closed = 1;
nodes = (
"618 0 LINE",
"618 686 LINE",
"464 686 LINE",
"464 414 LINE",
"226 414 LINE",
"226 686 LINE",
"72 686 LINE",
"72 0 LINE",
"227 0 LINE",
"227 286 LINE",
"464 286 LINE",
"464 0 LINE"
);
}
);
width = 691;
},
{
anchors = (
{
name = bottom;
position = "{346, 0}";
},
{
name = center;
position = "{350, 547}";
},
{
name = top;
position = "{348, 686}";
}
);
layerId = "B61048DD-A105-4E1B-AF86-BB1631F6D87A";
paths = (
{
closed = 1;
nodes = (
"640 0 LINE",
"640 686 LINE",
"429 686 LINE",
"429 433 LINE",
"267 433 LINE",
"267 686 LINE",
"57 686 LINE",
"57 0 LINE",
"268 0 LINE",
"268 267 LINE",
"430 267 LINE",
"430 0 LINE"
);
}
);
width = 697;
}
);
leftKerningGroup = H;
note = H;
rightKerningGroup = H;
unicode = 0048;
},
{
glyphname = I;
layers = (
{
anchors = (
{
name = bottom;
position = "{181, 0}";
},
{
name = ogonek;
position = "{246, 0}";
},
{
name = top;
position = "{182, 686}";
}
);
layerId = "86BFE29D-DE3A-4B42-8FD7-32CE7A5DD9A0";
paths = (
{
closed = 1;
nodes = (
"53 686 LINE",
"53 597 LINE",
"133 597 LINE",
"133 89 LINE",
"53 89 LINE",
"53 0 LINE",
"311 0 LINE",
"311 89 LINE",
"231 89 LINE",
"231 597 LINE",
"311 597 LINE",
"311 686 LINE"
);
}
);
width = 364;
},
{
anchors = (
{
name = bottom;
position = "{182, 0}";
},
{
name = ogonek;
position = "{236, 0}";
},
{
name = top;
position = "{183, 686}";
}
);
layerId = "F84504BD-929B-4EC5-838D-CC63F45B30C5";
paths = (
{
closed = 1;
nodes = (
"76 686 LINE",
"76 637 LINE",
"155 637 LINE",
"155 49 LINE",
"76 49 LINE",
"76 0 LINE",
"288 0 LINE",
"288 49 LINE",
"209 49 LINE",
"209 637 LINE",
"288 637 LINE",
"288 686 LINE"
);
}
);
width = 364;
},
{
anchors = (
{
name = bottom;
position = "{225, 0}";
},
{
name = ogonek;
position = "{319, 0}";
},
{
name = top;
position = "{226, 686}";
}
);
layerId = "4FE665F2-115E-4010-81D6-04A4227E19CC";
paths = (
{
closed = 1;
nodes = (
"72 686 LINE",
"72 563 LINE",
"153 563 LINE",
"153 123 LINE",
"72 123 LINE",
"72 0 LINE",
"388 0 LINE",
"388 123 LINE",
"308 123 LINE",
"308 563 LINE",
"388 563 LINE",
"388 686 LINE"
);
}
);
width = 461;
},
{
anchors = (
{
name = bottom;
position = "{221, 0}";
},
{
name = ogonek;
position = "{342, 0}";
},
{
name = top;
position = "{222, 686}";
}
);
layerId = "B61048DD-A105-4E1B-AF86-BB1631F6D87A";
paths = (
{
closed = 1;
nodes = (
"36 686 LINE",
"36 539 LINE",
"117 539 LINE",
"117 148 LINE",
"36 148 LINE",
"36 0 LINE",
"410 0 LINE",
"410 148 LINE",
"329 148 LINE",
"329 539 LINE",
"410 539 LINE",
"410 686 LINE"
);
}
);
width = 446;
}
);
leftKerningGroup = H;
note = I;
rightKerningGroup = H;
unicode = 0049;
},
{
glyphname = J;
layers = (
{
anchors = (
{
name = top;
position = "{389, 686}";
}
);
layerId = "86BFE29D-DE3A-4B42-8FD7-32CE7A5DD9A0";
paths = (
{
closed = 1;
nodes = (
"341 686 LINE",
"341 181 LINE SMOOTH",
"341 118 OFFCURVE",
"296 79 OFFCURVE",
"235 79 CURVE SMOOTH",
"172 79 OFFCURVE",
"127 121 OFFCURVE",
"127 181 CURVE SMOOTH",
"127 208 LINE",
"29 208 LINE",
"29 187 LINE SMOOTH",
"29 57 OFFCURVE",
"108 -10 OFFCURVE",
"227 -10 CURVE SMOOTH",
"236 -10 LINE SMOOTH",
"356 -10 OFFCURVE",
"439 65 OFFCURVE",
"439 187 CURVE SMOOTH",
"439 686 LINE"
);
}
);
width = 526;
},
{
anchors = (
{
name = top;
position = "{399, 686}";
}
);
background = {
paths = (
{
closed = 1;
nodes = (
"372 686 LINE",
"372 172 LINE SMOOTH",
"372 78 OFFCURVE",
"310 38 OFFCURVE",
"233 38 CURVE SMOOTH",
"156 38 OFFCURVE",
"94 77 OFFCURVE",
"94 172 CURVE SMOOTH",
"94 185 LINE",
"44 185 LINE",
"44 166 LINE SMOOTH",
"44 50 OFFCURVE",
"126 -10 OFFCURVE",
"233 -10 CURVE SMOOTH",
"340 -10 OFFCURVE",
"426 50 OFFCURVE",
"426 166 CURVE SMOOTH",
"426 686 LINE"
);
}
);
};
layerId = "F84504BD-929B-4EC5-838D-CC63F45B30C5";
paths = (
{
closed = 1;
nodes = (
"372 686 LINE",
"372 172 LINE SMOOTH",
"372 78 OFFCURVE",
"310 38 OFFCURVE",
"233 38 CURVE SMOOTH",
"156 38 OFFCURVE",
"94 77 OFFCURVE",
"94 172 CURVE SMOOTH",
"94 185 LINE",
"44 185 LINE",
"44 166 LINE SMOOTH",
"44 51 OFFCURVE",
"126 -10 OFFCURVE",
"230 -10 CURVE SMOOTH",
"234 -10 LINE SMOOTH",
"340 -10 OFFCURVE",
"426 50 OFFCURVE",
"426 166 CURVE SMOOTH",
"426 686 LINE"
);
}
);
width = 526;
},
{
anchors = (
{
name = top;
position = "{379, 686}";
}
);
layerId = "4FE665F2-115E-4010-81D6-04A4227E19CC";
paths = (
{
closed = 1;
nodes = (
"304 686 LINE",
"304 187 LINE SMOOTH",
"304 142 OFFCURVE",
"272 113 OFFCURVE",
"228 113 CURVE SMOOTH",
"190 113 OFFCURVE",
"155 147 OFFCURVE",
"155 187 CURVE SMOOTH",
"155 228 LINE",
"10 228 LINE",
"10 183 LINE SMOOTH",
"10 57 OFFCURVE",
"94 -10 OFFCURVE",
"219 -10 CURVE SMOOTH",
"239 -10 LINE SMOOTH",
"363 -10 OFFCURVE",
"455 56 OFFCURVE",
"455 183 CURVE SMOOTH",
"455 686 LINE"
);
}
);
width = 527;
},
{
anchors = (
{
name = top;
position = "{389, 686}";
}
);
layerId = "B61048DD-A105-4E1B-AF86-BB1631F6D87A";
paths = (
{
closed = 1;
nodes = (
"287 686 LINE",
"287 186 LINE SMOOTH",
"287 158 OFFCURVE",
"268 140 OFFCURVE",
"245 140 CURVE SMOOTH",
"222 140 OFFCURVE",
"204 158 OFFCURVE",
"204 186 CURVE SMOOTH",
"204 248 LINE",
"11 248 LINE",
"11 180 LINE SMOOTH",
"11 57 OFFCURVE",
"96 -10 OFFCURVE",
"231 -10 CURVE SMOOTH",
"262 -10 LINE SMOOTH",
"396 -10 OFFCURVE",
"492 55 OFFCURVE",
"492 180 CURVE SMOOTH",
"492 686 LINE"
);
}
);
width = 545;
}
);
leftKerningGroup = J;
note = J;
rightKerningGroup = J;
unicode = 004A;
},
{
glyphname = K;
layers = (
{
anchors = (
{
name = bottom;
position = "{327, 0}";
}
);
layerId = "86BFE29D-DE3A-4B42-8FD7-32CE7A5DD9A0";
paths = (
{
closed = 1;
nodes = (
"92 686 LINE",
"92 0 LINE",
"190 0 LINE",
"190 206 LINE",
"287 308 LINE",
"495 0 LINE",
"609 0 LINE",
"349 383 LINE",
"601 686 LINE",
"488 686 LINE",
"190 329 LINE",
"190 686 LINE"
);
}
);
width = 623;
},
{
anchors = (
{
name = bottom;
position = "{322, 0}";
}
);
layerId = "F84504BD-929B-4EC5-838D-CC63F45B30C5";
paths = (
{
closed = 1;
nodes = (
"107 686 LINE",
"107 0 LINE",
"161 0 LINE",
"161 208 LINE",
"284 346 LINE",
"528 0 LINE",
"596 0 LINE",
"321 387 LINE",
"588 686 LINE",
"524 686 LINE",
"161 279 LINE",
"161 686 LINE"
);
}
);
width = 623;
},
{
anchors = (
{
name = bottom;
position = "{337, 0}";
}
);
layerId = "4FE665F2-115E-4010-81D6-04A4227E19CC";
paths = (
{
closed = 1;
nodes = (
"72 686 LINE",
"72 0 LINE",
"223 0 LINE",
"223 179 LINE",
"312 278 LINE",
"475 0 LINE",
"650 0 LINE",
"412 397 LINE",
"643 686 LINE",
"470 686 LINE",
"223 372 LINE",
"223 686 LINE"
);
}
);
width = 660;
},
{
anchors = (
{
name = bottom;
position = "{344, 0}";
}
);
layerId = "B61048DD-A105-4E1B-AF86-BB1631F6D87A";
paths = (
{
closed = 1;
nodes = (
"57 686 LINE",
"57 0 LINE",
"261 0 LINE",
"261 152 LINE",
"341 248 LINE",
"460 0 LINE",
"695 0 LINE",
"480 411 LINE",
"689 686 LINE",
"457 686 LINE",
"261 415 LINE",
"261 686 LINE"
);
}
);
width = 685;
}
);
leftKerningGroup = H;
note = K;
rightKerningGroup = K;
unicode = 004B;
},
{
glyphname = L;
layers = (
{
anchors = (
{
name = bottom;
position = "{316, 0}";
},
{
name = center;
position = "{141, 375}";
},
{
name = top;
position = "{139, 686}";
},
{
name = topright;
position = "{216, 398}";
}
);
layerId = "86BFE29D-DE3A-4B42-8FD7-32CE7A5DD9A0";
paths = (
{
closed = 1;
nodes = (
"92 0 LINE",
"519 0 LINE",
"505 89 LINE",
"190 89 LINE",
"190 686 LINE",
"92 686 LINE"
);
}
);
width = 536;
},
{
anchors = (
{
name = bottom;
position = "{311, 0}";
},
{
name = center;
position = "{136, 355}";
},
{
name = top;
position = "{134, 686}";
},
{
name = topright;
position = "{241, 468}";
}
);
layerId = "F84504BD-929B-4EC5-838D-CC63F45B30C5";
paths = (
{
closed = 1;
nodes = (
"107 0 LINE",
"513 0 LINE",
"501 48 LINE",
"161 48 LINE",
"161 686 LINE",
"107 686 LINE"
);
}
);
width = 535;
},
{
anchors = (
{
name = bottom;
position = "{324, 0}";
},
{
name = center;
position = "{149, 375}";
},
{
name = top;
position = "{147, 686}";
},
{
name = topright;
position = "{194, 335}";
}
);
layerId = "4FE665F2-115E-4010-81D6-04A4227E19CC";
paths = (
{
closed = 1;
nodes = (
"72 0 LINE",
"526 0 LINE",
"509 128 LINE",
"227 128 LINE",
"227 686 LINE",
"72 686 LINE"
);
}
);
width = 533;
},
{
anchors = (
{
name = bottom;
position = "{339, 0}";
},
{
name = center;
position = "{164, 395}";
},
{
name = top;
position = "{162, 686}";
},
{
name = topright;
position = "{105, 287}";
}
);
layerId = "B61048DD-A105-4E1B-AF86-BB1631F6D87A";
paths = (
{
closed = 1;
nodes = (
"57 0 LINE",
"538 0 LINE",
"518 168 LINE",
"269 168 LINE",
"269 686 LINE",
"57 686 LINE"
);
}
);
width = 544;
}
);
leftKerningGroup = H;
note = L;
rightKerningGroup = L;
unicode = 004C;
},
{
glyphname = M;
layers = (
{
layerId = "86BFE29D-DE3A-4B42-8FD7-32CE7A5DD9A0";
paths = (
{
closed = 1;
nodes = (
"92 686 LINE",
"92 0 LINE",
"181 0 LINE",
"181 571 LINE",
"186 571 LINE",
"422 0 LINE",
"505 0 LINE",
"742 571 LINE",
"748 571 LINE",
"748 0 LINE",
"846 0 LINE",
"846 686 LINE",
"693 686 LINE",
"471 146 LINE",
"467 146 LINE",
"246 686 LINE"
);
}
);
width = 938;
},
{
layerId = "F84504BD-929B-4EC5-838D-CC63F45B30C5";
paths = (
{
closed = 1;
nodes = (
"107 686 LINE",
"107 0 LINE",
"155 0 LINE",
"155 625 LINE",
"160 625 LINE",
"433 0 LINE",
"484 0 LINE",
"759 625 LINE",
"764 625 LINE",
"764 0 LINE",
"818 0 LINE",
"818 686 LINE",
"733 686 LINE",
"462 69 LINE",
"461 69 LINE",
"193 686 LINE"
);
}
);
width = 925;
},
{
layerId = "4FE665F2-115E-4010-81D6-04A4227E19CC";
paths = (
{
closed = 1;
nodes = (
"72 686 LINE",
"72 0 LINE",
"212 0 LINE",
"212 505 LINE",
"217 505 LINE",
"395 0 LINE",
"557 0 LINE",
"735 505 LINE",
"740 505 LINE",
"740 0 LINE",
"894 0 LINE",
"894 686 LINE",
"645 686 LINE",
"485 233 LINE",
"481 233 LINE",
"321 686 LINE"
);
}
);
width = 967;
},
{
layerId = "B61048DD-A105-4E1B-AF86-BB1631F6D87A";
paths = (
{
closed = 1;
nodes = (
"57 686 LINE",
"57 0 LINE",
"248 0 LINE",
"248 440 LINE",
"253 440 LINE",
"372 0 LINE",
"613 0 LINE",
"733 440 LINE",
"737 440 LINE",
"737 0 LINE",
"947 0 LINE",
"947 686 LINE",
"601 686 LINE",
"504 320 LINE",
"500 320 LINE",
"401 686 LINE"
);
}
);
width = 1004;
}
);
leftKerningGroup = H;
note = M;
rightKerningGroup = H;
unicode = 004D;
},
{
glyphname = N;
layers = (
{
anchors = (
{
name = bottom;
position = "{349, 0}";
},
{
name = top;
position = "{352, 686}";
}
);
layerId = "86BFE29D-DE3A-4B42-8FD7-32CE7A5DD9A0";
paths = (
{
closed = 1;
nodes = (
"92 686 LINE",
"92 0 LINE",
"181 0 LINE",
"181 504 LINE",
"184 505 LINE",
"216 454 LINE",
"519 0 LINE",
"602 0 LINE",
"602 686 LINE",
"513 686 LINE",
"513 188 LINE",
"510 187 LINE",
"470 250 LINE",
"178 686 LINE"
);
}
);
width = 694;
},
{
anchors = (
{
name = bottom;
position = "{347, 0}";
},
{
name = top;
position = "{350, 686}";
}
);
layerId = "F84504BD-929B-4EC5-838D-CC63F45B30C5";
paths = (
{
closed = 1;
nodes = (
"107 686 LINE",
"107 0 LINE",
"155 0 LINE",
"155 586 LINE",
"158 586 LINE",
"190 534 LINE",
"538 0 LINE",
"586 0 LINE",
"586 686 LINE",
"538 686 LINE",
"538 100 LINE",
"535 100 LINE",
"492 168 LINE",
"153 686 LINE"
);
}
);
width = 693;
},
{
anchors = (
{
name = bottom;
position = "{341, 0}";
},
{
name = top;
position = "{344, 686}";
}
);
layerId = "4FE665F2-115E-4010-81D6-04A4227E19CC";
paths = (
{
closed = 1;
nodes = (
"72 686 LINE",
"72 0 LINE",
"213 0 LINE",
"213 402 LINE",
"217 405 LINE",
"272 316 LINE",
"487 0 LINE",
"618 0 LINE",
"618 686 LINE",
"477 686 LINE",
"477 283 LINE",
"474 280 LINE",
"419 368 LINE",
"203 686 LINE"
);
}
);
width = 691;
},
{
anchors = (
{
name = bottom;
position = "{341, 0}";
},
{
name = top;
position = "{344, 686}";
}
);
layerId = "B61048DD-A105-4E1B-AF86-BB1631F6D87A";
paths = (
{
closed = 1;
nodes = (
"57 686 LINE",
"57 0 LINE",
"250 0 LINE",
"250 304 LINE",
"255 306 LINE",
"276 264 LINE",
"459 0 LINE",
"639 0 LINE",
"639 686 LINE",
"445 686 LINE",
"445 375 LINE",
"440 372 LINE",
"409 431 LINE",
"233 686 LINE"
);
}
);
width = 696;
}
);
leftKerningGroup = H;
note = N;
rightKerningGroup = H;
unicode = 004E;
},
{
glyphname = Eng;
layers = (
{
layerId = "B61048DD-A105-4E1B-AF86-BB1631F6D87A";
paths = (
{
closed = 1;
nodes = (
"250 0 LINE",
"250 304 LINE",
"255 306 LINE",
"276 264 LINE",
"440 27 LINE",
"440 4 LINE SMOOTH",
"440 -55 OFFCURVE",
"412 -65 OFFCURVE",
"384 -65 CURVE SMOOTH",
"369 -65 OFFCURVE",
"337 -60 OFFCURVE",
"322 -53 CURVE",
"322 -165 LINE",
"354 -178 OFFCURVE",
"422 -187 OFFCURVE",
"456 -187 CURVE SMOOTH",
"565 -187 OFFCURVE",
"639 -134 OFFCURVE",
"639 -26 CURVE SMOOTH",
"639 686 LINE",
"445 686 LINE",
"445 375 LINE",
"440 372 LINE",
"409 431 LINE",
"233 686 LINE",
"57 686 LINE",
"57 0 LINE"
);
}
);
width = 696;
},
{
layerId = "F84504BD-929B-4EC5-838D-CC63F45B30C5";
paths = (
{
closed = 1;
nodes = (
"155 0 LINE",
"155 586 LINE",
"158 586 LINE",
"190 534 LINE",
"535 5 LINE",
"535 -73 LINE SMOOTH",
"535 -132 OFFCURVE",
"506 -140 OFFCURVE",
"478 -140 CURVE SMOOTH",
"463 -140 OFFCURVE",
"432 -131 OFFCURVE",
"416 -124 CURVE",
"416 -169 LINE",
"433 -179 OFFCURVE",
"459 -186 OFFCURVE",
"484 -186 CURVE SMOOTH",
"543 -186 OFFCURVE",
"586 -152 OFFCURVE",
"586 -75 CURVE SMOOTH",
"586 686 LINE",
"538 686 LINE",
"538 100 LINE",
"535 100 LINE",
"492 168 LINE",
"153 686 LINE",
"107 686 LINE",
"107 0 LINE"
);
}
);
width = 693;
},
{
layerId = "4FE665F2-115E-4010-81D6-04A4227E19CC";
paths = (
{
closed = 1;
nodes = (
"213 0 LINE",
"213 402 LINE",
"217 405 LINE",
"272 316 LINE",
"472 22 LINE",
"472 -18 LINE SMOOTH",
"472 -77 OFFCURVE",
"444 -86 OFFCURVE",
"416 -86 CURVE SMOOTH",
"401 -86 OFFCURVE",
"370 -80 OFFCURVE",
"355 -73 CURVE",
"355 -166 LINE",
"382 -179 OFFCURVE",
"433 -186 OFFCURVE",
"464 -186 CURVE SMOOTH",
"565 -186 OFFCURVE",
"618 -133 OFFCURVE",
"618 -20 CURVE SMOOTH",
"618 686 LINE",
"477 686 LINE",
"477 283 LINE",
"474 280 LINE",
"419 368 LINE",
"203 686 LINE",
"72 686 LINE",
"72 0 LINE"
);
}
);
width = 691;
},
{
layerId = "86BFE29D-DE3A-4B42-8FD7-32CE7A5DD9A0";
paths = (
{
closed = 1;
nodes = (
"181 0 LINE",
"181 504 LINE",
"184 505 LINE",
"216 454 LINE",
"508 16 LINE",
"508 -44 LINE SMOOTH",
"508 -93 OFFCURVE",
"493 -112 OFFCURVE",
"443 -112 CURVE SMOOTH",
"430 -112 OFFCURVE",
"413 -107 OFFCURVE",
"391 -97 CURVE",
"391 -167 LINE",
"414 -180 OFFCURVE",
"442 -186 OFFCURVE",
"477 -186 CURVE SMOOTH",
"570 -186 OFFCURVE",
"602 -134 OFFCURVE",
"602 -15 CURVE SMOOTH",
"602 686 LINE",
"513 686 LINE",
"513 188 LINE",
"510 187 LINE",
"470 250 LINE",
"178 686 LINE",
"92 686 LINE",
"92 0 LINE"
);
}
);
width = 694;
}
);
leftKerningGroup = H;
rightKerningGroup = H;
unicode = 014A;
},
{
glyphname = Nhookleft;
layers = (
{
layerId = "B61048DD-A105-4E1B-AF86-BB1631F6D87A";
paths = (
{
closed = 1;
nodes = (
"-29 -178 OFFCURVE",
"39 -187 OFFCURVE",
"73 -187 CURVE SMOOTH",
"182 -187 OFFCURVE",
"250 -134 OFFCURVE",
"250 -26 CURVE SMOOTH",
"250 304 LINE",
"255 306 LINE",
"276 264 LINE",
"459 0 LINE",
"639 0 LINE",
"639 686 LINE",
"445 686 LINE",
"445 375 LINE",
"440 372 LINE",
"409 431 LINE",
"233 686 LINE",
"57 686 LINE",
"57 4 LINE SMOOTH",
"57 -55 OFFCURVE",
"29 -65 OFFCURVE",
"1 -65 CURVE SMOOTH",
"-14 -65 OFFCURVE",
"-46 -60 OFFCURVE",
"-61 -53 CURVE",
"-61 -165 LINE"
);
}
);
width = 696;
},
{
layerId = "F84504BD-929B-4EC5-838D-CC63F45B30C5";
paths = (
{
closed = 1;
nodes = (
"3 -179 OFFCURVE",
"29 -186 OFFCURVE",
"54 -186 CURVE SMOOTH",
"113 -186 OFFCURVE",
"153 -152 OFFCURVE",
"153 -75 CURVE SMOOTH",
"153 586 LINE",
"156 586 LINE",
"188 534 LINE",
"536 0 LINE",
"584 0 LINE",
"584 686 LINE",
"536 686 LINE",
"536 100 LINE",
"533 100 LINE",
"490 168 LINE",
"151 686 LINE",
"105 686 LINE",
"105 -73 LINE SMOOTH",
"105 -132 OFFCURVE",
"76 -140 OFFCURVE",
"48 -140 CURVE SMOOTH",
"33 -140 OFFCURVE",
"2 -131 OFFCURVE",
"-14 -124 CURVE",
"-14 -169 LINE"
);
}
);
width = 691;
},
{
layerId = "4FE665F2-115E-4010-81D6-04A4227E19CC";
paths = (
{
closed = 1;
nodes = (
"-18 -179 OFFCURVE",
"33 -186 OFFCURVE",
"64 -186 CURVE SMOOTH",
"165 -186 OFFCURVE",
"213 -133 OFFCURVE",
"213 -20 CURVE SMOOTH",
"213 402 LINE",
"217 405 LINE",
"272 316 LINE",
"487 0 LINE",
"618 0 LINE",
"618 686 LINE",
"477 686 LINE",
"477 283 LINE",
"474 280 LINE",
"419 368 LINE",
"203 686 LINE",
"72 686 LINE",
"72 -18 LINE SMOOTH",
"72 -77 OFFCURVE",
"44 -86 OFFCURVE",
"16 -86 CURVE SMOOTH",
"1 -86 OFFCURVE",
"-30 -80 OFFCURVE",
"-45 -73 CURVE",
"-45 -166 LINE"
);
}
);
width = 691;
},
{
layerId = "86BFE29D-DE3A-4B42-8FD7-32CE7A5DD9A0";
paths = (
{
closed = 1;
nodes = (
"-2 -180 OFFCURVE",
"26 -186 OFFCURVE",
"61 -186 CURVE SMOOTH",
"154 -186 OFFCURVE",
"181 -134 OFFCURVE",
"181 -15 CURVE SMOOTH",
"181 504 LINE",
"184 505 LINE",
"216 454 LINE",
"519 0 LINE",
"602 0 LINE",
"602 686 LINE",
"513 686 LINE",
"513 188 LINE",
"510 187 LINE",
"470 250 LINE",
"178 686 LINE",
"92 686 LINE",
"92 -44 LINE SMOOTH",
"92 -93 OFFCURVE",
"77 -112 OFFCURVE",
"27 -112 CURVE SMOOTH",
"14 -112 OFFCURVE",
"-3 -107 OFFCURVE",
"-25 -97 CURVE",
"-25 -167 LINE"
);
}
);
width = 694;
}
);
leftKerningGroup = j;
rightKerningGroup = H;
unicode = 019D;
},
{
glyphname = O;
layers = (
{
anchors = (
{
name = bottom;
position = "{359, 0}";
},
{
name = center;
position = "{345, 336}";
},
{
name = ogonek;
position = "{388, 0}";
},
{
name = top;
position = "{345, 686}";
},
{
name = topright;
position = "{377, 686}";
}
);
background = {
paths = (
{
closed = 1;
nodes = (
"515 -10 OFFCURVE",
"629 105 OFFCURVE",
"629 298 CURVE SMOOTH",
"629 388 LINE SMOOTH",
"629 581 OFFCURVE",
"515 696 OFFCURVE",
"346 696 CURVE SMOOTH",
"342 696 LINE SMOOTH",
"175 696 OFFCURVE",
"61 580 OFFCURVE",
"61 388 CURVE SMOOTH",
"61 298 LINE SMOOTH",
"61 105 OFFCURVE",
"175 -10 OFFCURVE",
"345 -10 CURVE SMOOTH"
);
}
);
};
layerId = "86BFE29D-DE3A-4B42-8FD7-32CE7A5DD9A0";
paths = (
{
closed = 1;
nodes = (
"351 -10 LINE SMOOTH",
"514 -10 OFFCURVE",
"629 106 OFFCURVE",
"629 298 CURVE SMOOTH",
"629 388 LINE SMOOTH",
"629 580 OFFCURVE",
"514 696 OFFCURVE",
"349 696 CURVE SMOOTH",
"339 696 LINE SMOOTH",
"176 696 OFFCURVE",
"61 581 OFFCURVE",
"61 388 CURVE SMOOTH",
"61 298 LINE SMOOTH",
"61 105 OFFCURVE",
"176 -10 OFFCURVE",
"341 -10 CURVE SMOOTH"
);
},
{
closed = 1;
nodes = (
"223 79 OFFCURVE",
"159 156 OFFCURVE",
"159 298 CURVE SMOOTH",
"159 388 LINE SMOOTH",
"159 533 OFFCURVE",
"229 607 OFFCURVE",
"345 607 CURVE SMOOTH",
"467 607 OFFCURVE",
"531 530 OFFCURVE",
"531 388 CURVE SMOOTH",
"531 298 LINE SMOOTH",
"531 151 OFFCURVE",
"459 79 OFFCURVE",
"345 79 CURVE SMOOTH"
);
}
);
width = 690;
},
{
anchors = (
{
name = bottom;
position = "{359, 0}";
},
{
name = center;
position = "{345, 336}";
},
{
name = ogonek;
position = "{396, 0}";
},
{
name = top;
position = "{345, 686}";
},
{
name = topright;
position = "{377, 686}";
}
);
background = {
paths = (
{
closed = 1;
nodes = (
"342 696 LINE SMOOTH",
"197 696 OFFCURVE",
"79 628 OFFCURVE",
"79 356 CURVE SMOOTH",
"79 330 LINE SMOOTH",
"79 55 OFFCURVE",
"198 -10 OFFCURVE",
"345 -10 CURVE SMOOTH",
"492 -10 OFFCURVE",
"611 55 OFFCURVE",
"611 330 CURVE SMOOTH",
"611 356 LINE SMOOTH",
"611 631 OFFCURVE",
"492 696 OFFCURVE",
"345 696 CURVE SMOOTH"
);
}
);
};
layerId = "F84504BD-929B-4EC5-838D-CC63F45B30C5";
paths = (
{
closed = 1;
nodes = (
"348 -10 LINE SMOOTH",
"493 -10 OFFCURVE",
"611 58 OFFCURVE",
"611 330 CURVE SMOOTH",
"611 356 LINE SMOOTH",
"611 629 OFFCURVE",
"493 696 OFFCURVE",
"346 696 CURVE SMOOTH",
"343 696 LINE SMOOTH",
"203 696 OFFCURVE",
"79 631 OFFCURVE",
"79 356 CURVE SMOOTH",
"79 330 LINE SMOOTH",
"79 55 OFFCURVE",
"198 -10 OFFCURVE",
"345 -10 CURVE SMOOTH"
);
},
{
closed = 1;
nodes = (
"228 38 OFFCURVE",
"133 91 OFFCURVE",
"133 318 CURVE SMOOTH",
"133 368 LINE SMOOTH",
"133 595 OFFCURVE",
"228 648 OFFCURVE",
"345 648 CURVE SMOOTH",
"462 648 OFFCURVE",
"557 595 OFFCURVE",
"557 368 CURVE SMOOTH",
"557 318 LINE SMOOTH",
"557 91 OFFCURVE",
"462 38 OFFCURVE",
"345 38 CURVE SMOOTH"
);
}
);
width = 690;
},
{
anchors = (
{
name = bottom;
position = "{368, 0}";
},
{
name = center;
position = "{354, 336}";
},
{
name = ogonek;
position = "{392, 0}";
},
{
name = top;
position = "{354, 686}";
},
{
name = topright;
position = "{386, 686}";
}
);
background = {
paths = (
{
closed = 1;
nodes = (
"48 294 LINE SMOOTH",
"48 99 OFFCURVE",
"187 -10 OFFCURVE",
"354 -10 CURVE SMOOTH",
"521 -10 OFFCURVE",
"660 99 OFFCURVE",
"660 294 CURVE SMOOTH",
"660 392 LINE SMOOTH",
"660 587 OFFCURVE",
"518 696 OFFCURVE",
"359 696 CURVE SMOOTH",
"348 696 LINE SMOOTH",
"186 696 OFFCURVE",
"48 585 OFFCURVE",
"48 392 CURVE SMOOTH"
);
}
);
};
layerId = "4FE665F2-115E-4010-81D6-04A4227E19CC";
paths = (
{
closed = 1;
nodes = (
"360 -10 LINE SMOOTH",
"522 -10 OFFCURVE",
"660 101 OFFCURVE",
"660 294 CURVE SMOOTH",
"660 392 LINE SMOOTH",
"660 586 OFFCURVE",
"519 696 OFFCURVE",
"360 696 CURVE SMOOTH",
"349 696 LINE SMOOTH",
"187 696 OFFCURVE",
"48 587 OFFCURVE",
"48 392 CURVE SMOOTH",
"48 294 LINE SMOOTH",
"48 99 OFFCURVE",
"190 -10 OFFCURVE",
"349 -10 CURVE SMOOTH"
);
},
{
closed = 1;
nodes = (
"272 113 OFFCURVE",
"210 167 OFFCURVE",
"210 272 CURVE SMOOTH",
"210 414 LINE SMOOTH",
"210 519 OFFCURVE",
"272 573 OFFCURVE",
"354 573 CURVE SMOOTH",
"436 573 OFFCURVE",
"498 519 OFFCURVE",
"498 414 CURVE SMOOTH",
"498 272 LINE SMOOTH",
"498 167 OFFCURVE",
"436 113 OFFCURVE",
"354 113 CURVE SMOOTH"
);
}
);
width = 708;
},
{
anchors = (
{
name = bottom;
position = "{373, 0}";
},
{
name = center;
position = "{359, 336}";
},
{
name = ogonek;
position = "{405, 0}";
},
{
name = top;
position = "{359, 686}";
},
{
name = topright;
position = "{391, 686}";
}
);
background = {
paths = (
{
closed = 1;
nodes = (
"331 694 LINE SMOOTH",
"165 694 OFFCURVE",
"31 560 OFFCURVE",
"31 394 CURVE SMOOTH",
"31 290 LINE SMOOTH",
"31 124 OFFCURVE",
"165 -10 OFFCURVE",
"331 -10 CURVE SMOOTH",
"387 -10 LINE SMOOTH",
"553 -10 OFFCURVE",
"687 124 OFFCURVE",
"687 290 CURVE SMOOTH",
"687 394 LINE SMOOTH",
"687 560 OFFCURVE",
"553 694 OFFCURVE",
"387 694 CURVE SMOOTH"
);
},
{
closed = 1;
nodes = (
"362 540 LINE SMOOTH",
"418 540 OFFCURVE",
"462 496 OFFCURVE",
"462 440 CURVE SMOOTH",
"462 247 LINE SMOOTH",
"462 191 OFFCURVE",
"418 147 OFFCURVE",
"362 147 CURVE SMOOTH",
"357 147 LINE SMOOTH",
"301 147 OFFCURVE",
"257 191 OFFCURVE",
"257 247 CURVE SMOOTH",
"257 440 LINE SMOOTH",
"257 496 OFFCURVE",
"301 540 OFFCURVE",
"357 540 CURVE SMOOTH"
);
}
);
};
layerId = "B61048DD-A105-4E1B-AF86-BB1631F6D87A";
paths = (
{
closed = 1;
nodes = (
"387 -10 LINE SMOOTH",
"553 -10 OFFCURVE",
"687 124 OFFCURVE",
"687 290 CURVE SMOOTH",
"687 394 LINE SMOOTH",
"687 560 OFFCURVE",
"553 694 OFFCURVE",
"387 694 CURVE SMOOTH",
"331 694 LINE SMOOTH",
"165 694 OFFCURVE",
"31 560 OFFCURVE",
"31 394 CURVE SMOOTH",
"31 290 LINE SMOOTH",
"31 124 OFFCURVE",
"165 -10 OFFCURVE",
"331 -10 CURVE SMOOTH"
);
},
{
closed = 1;
nodes = (
"302 147 OFFCURVE",
"257 189 OFFCURVE",
"257 247 CURVE SMOOTH",
"257 440 LINE SMOOTH",
"257 495 OFFCURVE",
"299 540 OFFCURVE",
"359 540 CURVE SMOOTH",
"419 540 OFFCURVE",
"462 496 OFFCURVE",
"462 440 CURVE SMOOTH",
"462 247 LINE SMOOTH",
"462 191 OFFCURVE",
"420 147 OFFCURVE",
"359 147 CURVE SMOOTH"
);
}
);
width = 718;
}
);
leftKerningGroup = O;
note = O;
rightKerningGroup = O;
unicode = 004F;
},
{
glyphname = Ohungarumlaut;
layers = (
{
background = {
paths = (
{
closed = 1;
nodes = (
"399 895 LINE",
"310 895 LINE",
"215 750 LINE",
"285 750 LINE",
"400 892 LINE"
);
},
{
closed = 1;
nodes = (
"554 895 LINE",
"464 895 LINE",
"370 750 LINE",
"440 750 LINE",
"555 892 LINE"
);
},
{
closed = 1;
nodes = (
"175 696 OFFCURVE",
"61 581 OFFCURVE",
"61 388 CURVE SMOOTH",
"61 298 LINE SMOOTH",
"61 105 OFFCURVE",
"175 -10 OFFCURVE",
"345 -10 CURVE SMOOTH",
"515 -10 OFFCURVE",
"629 105 OFFCURVE",
"629 298 CURVE SMOOTH",
"629 388 LINE SMOOTH",
"629 581 OFFCURVE",
"515 696 OFFCURVE",
"345 696 CURVE SMOOTH"
);
},
{
closed = 1;
nodes = (
"467 607 OFFCURVE",
"531 530 OFFCURVE",
"531 388 CURVE SMOOTH",
"531 298 LINE SMOOTH",
"531 151 OFFCURVE",
"459 79 OFFCURVE",
"345 79 CURVE SMOOTH",
"223 79 OFFCURVE",
"159 156 OFFCURVE",
"159 298 CURVE SMOOTH",
"159 388 LINE SMOOTH",
"159 533 OFFCURVE",
"229 607 OFFCURVE",
"345 607 CURVE SMOOTH"
);
}
);
};
components = (
{
name = O;
},
{
name = hungarumlautcomb.case;
transform = "{1, 0, 0, 1, 587, 0}";
}
);
layerId = "86BFE29D-DE3A-4B42-8FD7-32CE7A5DD9A0";
width = 690;
},
{
background = {
paths = (
{
closed = 1;
nodes = (
"242 750 LINE",
"292 750 LINE",
"403 892 LINE",
"402 895 LINE",
"338 895 LINE"
);
},
{
closed = 1;
nodes = (
"367 750 LINE",
"417 750 LINE",
"528 892 LINE",
"527 895 LINE",
"463 895 LINE"
);
},
{
closed = 1;
nodes = (
"474 -10 OFFCURVE",
"593 55 OFFCURVE",
"593 330 CURVE SMOOTH",
"593 356 LINE SMOOTH",
"593 631 OFFCURVE",
"474 696 OFFCURVE",
"327 696 CURVE SMOOTH",
"180 696 OFFCURVE",
"61 631 OFFCURVE",
"61 356 CURVE SMOOTH",
"61 330 LINE SMOOTH",
"61 55 OFFCURVE",
"180 -10 OFFCURVE",
"327 -10 CURVE SMOOTH"
);
},
{
closed = 1;
nodes = (
"210 38 OFFCURVE",
"115 91 OFFCURVE",
"115 318 CURVE SMOOTH",
"115 368 LINE SMOOTH",
"115 595 OFFCURVE",
"210 648 OFFCURVE",
"327 648 CURVE SMOOTH",
"444 648 OFFCURVE",
"539 595 OFFCURVE",
"539 368 CURVE SMOOTH",
"539 318 LINE SMOOTH",
"539 91 OFFCURVE",
"444 38 OFFCURVE",
"327 38 CURVE SMOOTH"
);
}
);
};
components = (
{
name = O;
},
{
name = hungarumlautcomb.case;
transform = "{1, 0, 0, 1, 576, 0}";
}
);
layerId = "F84504BD-929B-4EC5-838D-CC63F45B30C5";
width = 690;
},
{
background = {
paths = (
{
closed = 1;
nodes = (
"177 750 LINE",
"279 750 LINE",
"400 892 LINE",
"398 895 LINE",
"270 895 LINE"
);
},
{
closed = 1;
nodes = (
"368 750 LINE",
"470 750 LINE",
"591 892 LINE",
"589 895 LINE",
"461 895 LINE"
);
},
{
closed = 1;
nodes = (
"660 392 LINE SMOOTH",
"660 587 OFFCURVE",
"521 696 OFFCURVE",
"354 696 CURVE SMOOTH",
"187 696 OFFCURVE",
"48 587 OFFCURVE",
"48 392 CURVE SMOOTH",
"48 294 LINE SMOOTH",
"48 99 OFFCURVE",
"187 -10 OFFCURVE",
"354 -10 CURVE SMOOTH",
"521 -10 OFFCURVE",
"660 99 OFFCURVE",
"660 294 CURVE SMOOTH"
);
},
{
closed = 1;
nodes = (
"498 272 LINE SMOOTH",
"498 167 OFFCURVE",
"436 113 OFFCURVE",
"354 113 CURVE SMOOTH",
"272 113 OFFCURVE",
"210 167 OFFCURVE",
"210 272 CURVE SMOOTH",
"210 414 LINE SMOOTH",
"210 519 OFFCURVE",
"272 573 OFFCURVE",
"354 573 CURVE SMOOTH",
"436 573 OFFCURVE",
"498 519 OFFCURVE",
"498 414 CURVE SMOOTH"
);
}
);
};
components = (
{
name = O;
},
{
name = hungarumlautcomb.case;
transform = "{1, 0, 0, 1, 636, 0}";
}
);
layerId = "4FE665F2-115E-4010-81D6-04A4227E19CC";
width = 708;
},
{
background = {
paths = (
{
closed = 1;
nodes = (
"395 895 LINE",
"244 895 LINE",
"153 750 LINE",
"271 750 LINE",
"397 892 LINE"
);
},
{
closed = 1;
nodes = (
"622 895 LINE",
"471 895 LINE",
"380 750 LINE",
"498 750 LINE",
"624 892 LINE"
);
},
{
closed = 1;
nodes = (
"331 694 LINE SMOOTH",
"165 694 OFFCURVE",
"31 560 OFFCURVE",
"31 394 CURVE SMOOTH",
"31 290 LINE SMOOTH",
"31 124 OFFCURVE",
"165 -10 OFFCURVE",
"331 -10 CURVE SMOOTH",
"387 -10 LINE SMOOTH",
"553 -10 OFFCURVE",
"687 124 OFFCURVE",
"687 290 CURVE SMOOTH",
"687 394 LINE SMOOTH",
"687 560 OFFCURVE",
"553 694 OFFCURVE",
"387 694 CURVE SMOOTH"
);
},
{
closed = 1;
nodes = (
"362 540 LINE SMOOTH",
"418 540 OFFCURVE",
"462 496 OFFCURVE",
"462 440 CURVE SMOOTH",
"462 247 LINE SMOOTH",
"462 191 OFFCURVE",
"418 147 OFFCURVE",
"362 147 CURVE SMOOTH",
"357 147 LINE SMOOTH",
"301 147 OFFCURVE",
"257 191 OFFCURVE",
"257 247 CURVE SMOOTH",
"257 440 LINE SMOOTH",
"257 496 OFFCURVE",
"301 540 OFFCURVE",
"357 540 CURVE SMOOTH"
);
}
);
};
components = (
{
name = O;
},
{
name = hungarumlautcomb.case;
transform = "{1, 0, 0, 1, 681, 0}";
}
);
layerId = "B61048DD-A105-4E1B-AF86-BB1631F6D87A";
width = 718;
}
);
leftKerningGroup = O;
note = Ohungarumlaut;
rightKerningGroup = O;
unicode = 0150;
},
{
glyphname = OE;
layers = (
{
layerId = "86BFE29D-DE3A-4B42-8FD7-32CE7A5DD9A0";
paths = (
{
closed = 1;
nodes = (
"176 696 OFFCURVE",
"61 581 OFFCURVE",
"61 388 CURVE SMOOTH",
"61 298 LINE SMOOTH",
"61 105 OFFCURVE",
"175 -10 OFFCURVE",
"345 -10 CURVE SMOOTH",
"422 -10 OFFCURVE",
"484 13 OFFCURVE",
"531 58 CURVE",
"531 0 LINE",
"988 0 LINE",
"974 89 LINE",
"629 89 LINE",
"629 306 LINE",
"936 306 LINE",
"936 395 LINE",
"629 395 LINE",
"629 597 LINE",
"968 597 LINE",
"981 686 LINE",
"531 686 LINE",
"531 628 LINE",
"482 673 OFFCURVE",
"419 696 OFFCURVE",
"340 696 CURVE SMOOTH"
);
},
{
closed = 1;
nodes = (
"467 607 OFFCURVE",
"531 530 OFFCURVE",
"531 388 CURVE SMOOTH",
"531 298 LINE SMOOTH",
"531 151 OFFCURVE",
"459 79 OFFCURVE",
"345 79 CURVE SMOOTH",
"223 79 OFFCURVE",
"159 156 OFFCURVE",
"159 298 CURVE SMOOTH",
"159 388 LINE SMOOTH",
"159 533 OFFCURVE",
"229 607 OFFCURVE",
"345 607 CURVE SMOOTH"
);
}
);
width = 1032;
},
{
layerId = "F84504BD-929B-4EC5-838D-CC63F45B30C5";
paths = (
{
closed = 1;
nodes = (
"198 696 OFFCURVE",
"79 631 OFFCURVE",
"79 356 CURVE SMOOTH",
"79 330 LINE SMOOTH",
"79 55 OFFCURVE",
"198 -10 OFFCURVE",
"345 -10 CURVE SMOOTH",
"431 -10 OFFCURVE",
"508 12 OFFCURVE",
"557 87 CURVE",
"557 0 LINE",
"991 0 LINE",
"980 48 LINE",
"611 48 LINE",
"611 326 LINE",
"930 326 LINE",
"930 374 LINE",
"611 374 LINE",
"611 638 LINE",
"971 638 LINE",
"981 686 LINE",
"557 686 LINE",
"557 598 LINE",
"508 673 OFFCURVE",
"431 696 OFFCURVE",
"345 696 CURVE SMOOTH"
);
},
{
closed = 1;
nodes = (
"462 648 OFFCURVE",
"557 595 OFFCURVE",
"557 368 CURVE SMOOTH",
"557 318 LINE SMOOTH",
"557 91 OFFCURVE",
"462 38 OFFCURVE",
"345 38 CURVE SMOOTH",
"228 38 OFFCURVE",
"133 91 OFFCURVE",
"133 318 CURVE SMOOTH",
"133 368 LINE SMOOTH",
"133 595 OFFCURVE",
"228 648 OFFCURVE",
"345 648 CURVE SMOOTH"
);
}
);
width = 1043;
},
{
layerId = "4FE665F2-115E-4010-81D6-04A4227E19CC";
paths = (
{
closed = 1;
nodes = (
"178 695 OFFCURVE",
"48 578 OFFCURVE",
"48 391 CURVE SMOOTH",
"48 294 LINE SMOOTH",
"48 107 OFFCURVE",
"178 -10 OFFCURVE",
"340 -10 CURVE SMOOTH",
"399 -10 OFFCURVE",
"453 -1 OFFCURVE",
"498 29 CURVE",
"498 0 LINE",
"984 0 LINE",
"962 123 LINE",
"652 123 LINE",
"652 286 LINE",
"928 286 LINE",
"928 407 LINE",
"652 407 LINE",
"652 562 LINE",
"949 562 LINE",
"976 686 LINE",
"499 686 LINE",
"499 657 LINE",
"453 684 OFFCURVE",
"400 695 OFFCURVE",
"340 695 CURVE SMOOTH"
);
},
{
closed = 1;
nodes = (
"436 573 OFFCURVE",
"498 519 OFFCURVE",
"498 414 CURVE SMOOTH",
"498 272 LINE SMOOTH",
"498 167 OFFCURVE",
"436 113 OFFCURVE",
"354 113 CURVE SMOOTH",
"272 113 OFFCURVE",
"210 167 OFFCURVE",
"210 272 CURVE SMOOTH",
"210 414 LINE SMOOTH",
"210 519 OFFCURVE",
"272 573 OFFCURVE",
"354 573 CURVE SMOOTH"
);
}
);
width = 1024;
},
{
layerId = "B61048DD-A105-4E1B-AF86-BB1631F6D87A";
paths = (
{
closed = 1;
nodes = (
"163 694 OFFCURVE",
"31 560 OFFCURVE",
"31 394 CURVE SMOOTH",
"31 290 LINE SMOOTH",
"31 124 OFFCURVE",
"165 -10 OFFCURVE",
"331 -10 CURVE SMOOTH",
"403 -10 OFFCURVE",
"435 1 OFFCURVE",
"462 18 CURVE",
"462 0 LINE",
"977 0 LINE",
"947 157 LINE",
"672 157 LINE",
"672 266 LINE",
"916 266 LINE",
"916 419 LINE",
"672 419 LINE",
"672 528 LINE",
"927 528 LINE",
"967 686 LINE",
"463 686 LINE",
"463 667 LINE",
"432 683 OFFCURVE",
"400 694 OFFCURVE",
"336 694 CURVE SMOOTH"
);
},
{
closed = 1;
nodes = (
"418 540 OFFCURVE",
"462 498 OFFCURVE",
"462 440 CURVE SMOOTH",
"462 247 LINE SMOOTH",
"462 192 OFFCURVE",
"421 147 OFFCURVE",
"357 147 CURVE SMOOTH",
"301 147 OFFCURVE",
"257 191 OFFCURVE",
"257 247 CURVE SMOOTH",
"257 440 LINE SMOOTH",
"257 496 OFFCURVE",
"301 540 OFFCURVE",
"357 540 CURVE SMOOTH"
);
}
);
width = 991;
}
);
leftKerningGroup = O;
note = OE;
rightKerningGroup = E;
unicode = 0152;
},
{
glyphname = P;
layers = (
{
background = {
paths = (
{
closed = 1;
nodes = (
"92 686 LINE",
"92 0 LINE",
"190 0 LINE",
"190 286 LINE",
"388 286 LINE SMOOTH",
"506 286 OFFCURVE",
"593 370 OFFCURVE",
"593 486 CURVE SMOOTH",
"593 602 OFFCURVE",
"506 686 OFFCURVE",
"388 686 CURVE SMOOTH"
);
},
{
closed = 1;
nodes = (
"441 597 OFFCURVE",
"495 549 OFFCURVE",
"495 486 CURVE SMOOTH",
"495 423 OFFCURVE",
"440 375 OFFCURVE",
"379 375 CURVE SMOOTH",
"190 375 LINE",
"190 597 LINE",
"379 597 LINE SMOOTH"
);
}
);
};
layerId = "86BFE29D-DE3A-4B42-8FD7-32CE7A5DD9A0";
paths = (
{
closed = 1;
nodes = (
"92 686 LINE",
"92 0 LINE",
"190 0 LINE",
"190 286 LINE",
"388 286 LINE SMOOTH",
"506 286 OFFCURVE",
"593 371 OFFCURVE",
"593 483 CURVE SMOOTH",
"593 489 LINE SMOOTH",
"593 602 OFFCURVE",
"505 686 OFFCURVE",
"388 686 CURVE SMOOTH"
);
},
{
closed = 1;
nodes = (
"441 597 OFFCURVE",
"495 549 OFFCURVE",
"495 486 CURVE SMOOTH",
"495 423 OFFCURVE",
"440 375 OFFCURVE",
"379 375 CURVE SMOOTH",
"190 375 LINE",
"190 597 LINE",
"379 597 LINE SMOOTH"
);
}
);
width = 624;
},
{
background = {
paths = (
{
closed = 1;
nodes = (
"107 686 LINE",
"107 0 LINE",
"161 0 LINE",
"161 312 LINE",
"388 312 LINE SMOOTH",
"491 312 OFFCURVE",
"575 396 OFFCURVE",
"575 499 CURVE SMOOTH",
"575 602 OFFCURVE",
"491 686 OFFCURVE",
"388 686 CURVE SMOOTH"
);
},
{
closed = 1;
nodes = (
"459 638 OFFCURVE",
"523 577 OFFCURVE",
"523 499 CURVE SMOOTH",
"523 421 OFFCURVE",
"459 359 OFFCURVE",
"381 359 CURVE SMOOTH",
"161 359 LINE",
"161 638 LINE",
"381 638 LINE SMOOTH"
);
}
);
};
layerId = "F84504BD-929B-4EC5-838D-CC63F45B30C5";
paths = (
{
closed = 1;
nodes = (
"107 686 LINE",
"107 0 LINE",
"161 0 LINE",
"161 312 LINE",
"388 312 LINE SMOOTH",
"491 312 OFFCURVE",
"575 396 OFFCURVE",
"575 497 CURVE SMOOTH",
"575 501 LINE SMOOTH",
"575 602 OFFCURVE",
"490 686 OFFCURVE",
"388 686 CURVE SMOOTH"
);
},
{
closed = 1;
nodes = (
"459 638 OFFCURVE",
"523 577 OFFCURVE",
"523 499 CURVE SMOOTH",
"523 421 OFFCURVE",
"459 359 OFFCURVE",
"381 359 CURVE SMOOTH",
"161 359 LINE",
"161 638 LINE",
"381 638 LINE SMOOTH"
);
}
);
width = 624;
},
{
layerId = "4FE665F2-115E-4010-81D6-04A4227E19CC";
paths = (
{
closed = 1;
nodes = (
"72 686 LINE",
"72 0 LINE",
"226 0 LINE",
"226 265 LINE",
"403 265 LINE SMOOTH",
"520 265 OFFCURVE",
"610 359 OFFCURVE",
"610 475 CURVE SMOOTH",
"610 481 LINE SMOOTH",
"610 599 OFFCURVE",
"517 686 OFFCURVE",
"403 686 CURVE SMOOTH"
);
},
{
closed = 1;
nodes = (
"420 563 OFFCURVE",
"455 522 OFFCURVE",
"455 477 CURVE SMOOTH",
"455 424 OFFCURVE",
"418 386 OFFCURVE",
"367 386 CURVE SMOOTH",
"226 386 LINE",
"226 563 LINE",
"367 563 LINE SMOOTH"
);
}
);
width = 629;
},
{
layerId = "B61048DD-A105-4E1B-AF86-BB1631F6D87A";
paths = (
{
closed = 1;
nodes = (
"57 686 LINE",
"57 0 LINE",
"267 0 LINE",
"267 244 LINE",
"422 244 LINE SMOOTH",
"538 244 OFFCURVE",
"632 338 OFFCURVE",
"632 454 CURVE SMOOTH",
"632 476 LINE SMOOTH",
"632 592 OFFCURVE",
"538 686 OFFCURVE",
"422 686 CURVE SMOOTH"
);
},
{
closed = 1;
nodes = (
"400 529 OFFCURVE",
"419 497 OFFCURVE",
"419 464 CURVE SMOOTH",
"419 421 OFFCURVE",
"396 397 OFFCURVE",
"359 397 CURVE SMOOTH",
"267 397 LINE",
"267 529 LINE",
"359 529 LINE SMOOTH"
);
}
);
width = 645;
}
);
leftKerningGroup = H;
note = P;
rightKerningGroup = P;
unicode = 0050;
},
{
glyphname = Thorn;
layers = (
{
layerId = "86BFE29D-DE3A-4B42-8FD7-32CE7A5DD9A0";
paths = (
{
closed = 1;
nodes = (
"190 562 LINE",
"190 686 LINE",
"92 686 LINE",
"92 0 LINE",
"190 0 LINE",
"190 162 LINE",
"388 162 LINE SMOOTH",
"506 162 OFFCURVE",
"593 246 OFFCURVE",
"593 362 CURVE SMOOTH",
"593 478 OFFCURVE",
"506 562 OFFCURVE",
"388 562 CURVE SMOOTH"
);
},
{
closed = 1;
nodes = (
"441 473 OFFCURVE",
"495 425 OFFCURVE",
"495 362 CURVE SMOOTH",
"495 299 OFFCURVE",
"440 251 OFFCURVE",
"379 251 CURVE SMOOTH",
"190 251 LINE",
"190 473 LINE",
"379 473 LINE SMOOTH"
);
}
);
width = 633;
},
{
layerId = "F84504BD-929B-4EC5-838D-CC63F45B30C5";
paths = (
{
closed = 1;
nodes = (
"161 551 LINE",
"161 686 LINE",
"107 686 LINE",
"107 0 LINE",
"161 0 LINE",
"161 177 LINE",
"388 177 LINE SMOOTH",
"491 177 OFFCURVE",
"575 261 OFFCURVE",
"575 364 CURVE SMOOTH",
"575 467 OFFCURVE",
"491 551 OFFCURVE",
"388 551 CURVE SMOOTH"
);
},
{
closed = 1;
nodes = (
"459 503 OFFCURVE",
"523 442 OFFCURVE",
"523 364 CURVE SMOOTH",
"523 286 OFFCURVE",
"459 224 OFFCURVE",
"381 224 CURVE SMOOTH",
"161 224 LINE",
"161 503 LINE",
"381 503 LINE SMOOTH"
);
}
);
width = 633;
},
{
layerId = "4FE665F2-115E-4010-81D6-04A4227E19CC";
paths = (
{
closed = 1;
nodes = (
"226 572 LINE",
"226 686 LINE",
"72 686 LINE",
"72 0 LINE",
"226 0 LINE",
"226 154 LINE",
"403 154 LINE SMOOTH",
"519 154 OFFCURVE",
"610 239 OFFCURVE",
"610 367 CURVE SMOOTH",
"610 486 OFFCURVE",
"517 572 OFFCURVE",
"403 572 CURVE SMOOTH"
);
},
{
closed = 1;
nodes = (
"418 450 OFFCURVE",
"455 414 OFFCURVE",
"455 369 CURVE SMOOTH",
"455 318 OFFCURVE",
"426 272 OFFCURVE",
"372 272 CURVE SMOOTH",
"226 272 LINE",
"226 450 LINE",
"372 450 LINE SMOOTH"
);
}
);
width = 634;
},
{
layerId = "B61048DD-A105-4E1B-AF86-BB1631F6D87A";
paths = (
{
closed = 1;
nodes = (
"266 583 LINE",
"266 686 LINE",
"57 686 LINE",
"57 0 LINE",
"266 0 LINE",
"266 146 LINE",
"422 146 LINE SMOOTH",
"541 146 OFFCURVE",
"632 236 OFFCURVE",
"632 373 CURVE SMOOTH",
"632 489 OFFCURVE",
"538 583 OFFCURVE",
"422 583 CURVE SMOOTH"
);
},
{
closed = 1;
nodes = (
"404 427 OFFCURVE",
"419 403 OFFCURVE",
"419 360 CURVE SMOOTH",
"419 319 OFFCURVE",
"405 294 OFFCURVE",
"365 294 CURVE SMOOTH",
"266 294 LINE",
"266 427 LINE",
"365 427 LINE SMOOTH"
);
}
);
width = 646;
}
);
leftKerningGroup = H;
note = Thorn;
rightKerningGroup = P;
unicode = 00DE;
},
{
glyphname = Q;
layers = (
{
layerId = "86BFE29D-DE3A-4B42-8FD7-32CE7A5DD9A0";
paths = (
{
closed = 1;
nodes = (
"61 119 OFFCURVE",
"160 8 OFFCURVE",
"305 -8 CURVE",
"318 -77 OFFCURVE",
"355 -145 OFFCURVE",
"499 -145 CURVE SMOOTH",
"539 -145 OFFCURVE",
"579 -134 OFFCURVE",
"618 -112 CURVE",
"618 -42 LINE",
"567 -62 OFFCURVE",
"532 -70 OFFCURVE",
"501 -70 CURVE SMOOTH",
"457 -70 OFFCURVE",
"416 -54 OFFCURVE",
"402 -6 CURVE",
"538 16 OFFCURVE",
"629 127 OFFCURVE",
"629 298 CURVE SMOOTH",
"629 388 LINE SMOOTH",
"629 580 OFFCURVE",
"514 696 OFFCURVE",
"349 696 CURVE SMOOTH",
"339 696 LINE SMOOTH",
"176 696 OFFCURVE",
"61 581 OFFCURVE",
"61 388 CURVE SMOOTH",
"61 298 LINE SMOOTH"
);
},
{
closed = 1;
nodes = (
"159 388 LINE SMOOTH",
"159 533 OFFCURVE",
"229 607 OFFCURVE",
"345 607 CURVE SMOOTH",
"467 607 OFFCURVE",
"531 530 OFFCURVE",
"531 388 CURVE SMOOTH",
"531 298 LINE SMOOTH",
"531 151 OFFCURVE",
"459 79 OFFCURVE",
"345 79 CURVE SMOOTH",
"223 79 OFFCURVE",
"159 156 OFFCURVE",
"159 298 CURVE SMOOTH"
);
}
);
width = 690;
},
{
layerId = "F84504BD-929B-4EC5-838D-CC63F45B30C5";
paths = (
{
closed = 1;
nodes = (
"79 69 OFFCURVE",
"186 -3 OFFCURVE",
"323 -9 CURVE",
"331 -66 OFFCURVE",
"363 -137 OFFCURVE",
"482 -137 CURVE SMOOTH",
"545 -137 OFFCURVE",
"595 -110 OFFCURVE",
"595 -110 CURVE",
"595 -61 LINE",
"595 -62 OFFCURVE",
"528 -90 OFFCURVE",
"481 -90 CURVE SMOOTH",
"406 -90 OFFCURVE",
"380 -46 OFFCURVE",
"373 -9 CURVE",
"506 -1 OFFCURVE",
"611 74 OFFCURVE",
"611 330 CURVE SMOOTH",
"611 356 LINE SMOOTH",
"611 629 OFFCURVE",
"493 696 OFFCURVE",
"346 696 CURVE SMOOTH",
"343 696 LINE SMOOTH",
"203 696 OFFCURVE",
"79 631 OFFCURVE",
"79 356 CURVE SMOOTH",
"79 330 LINE SMOOTH"
);
},
{
closed = 1;
nodes = (
"133 368 LINE SMOOTH",
"133 595 OFFCURVE",
"228 648 OFFCURVE",
"345 648 CURVE SMOOTH",
"462 648 OFFCURVE",
"557 595 OFFCURVE",
"557 368 CURVE SMOOTH",
"557 318 LINE SMOOTH",
"557 91 OFFCURVE",
"462 38 OFFCURVE",
"345 38 CURVE SMOOTH",
"228 38 OFFCURVE",
"133 91 OFFCURVE",
"133 318 CURVE SMOOTH"
);
}
);
width = 690;
},
{
layerId = "4FE665F2-115E-4010-81D6-04A4227E19CC";
paths = (
{
closed = 1;
nodes = (
"48 123 OFFCURVE",
"157 19 OFFCURVE",
"290 -5 CURVE",
"305 -72 OFFCURVE",
"362 -153 OFFCURVE",
"498 -153 CURVE SMOOTH",
"590 -153 OFFCURVE",
"655 -116 OFFCURVE",
"655 -116 CURVE",
"655 -28 LINE",
"655 -29 OFFCURVE",
"580 -54 OFFCURVE",
"533 -54 CURVE SMOOTH",
"478 -54 OFFCURVE",
"453 -26 OFFCURVE",
"443 0 CURVE",
"567 32 OFFCURVE",
"660 135 OFFCURVE",
"660 294 CURVE SMOOTH",
"660 392 LINE SMOOTH",
"660 586 OFFCURVE",
"519 696 OFFCURVE",
"360 696 CURVE SMOOTH",
"349 696 LINE SMOOTH",
"187 696 OFFCURVE",
"48 587 OFFCURVE",
"48 392 CURVE SMOOTH",
"48 294 LINE SMOOTH"
);
},
{
closed = 1;
nodes = (
"210 414 LINE SMOOTH",
"210 519 OFFCURVE",
"272 573 OFFCURVE",
"354 573 CURVE SMOOTH",
"436 573 OFFCURVE",
"498 519 OFFCURVE",
"498 414 CURVE SMOOTH",
"498 272 LINE SMOOTH",
"498 167 OFFCURVE",
"436 113 OFFCURVE",
"354 113 CURVE SMOOTH",
"272 113 OFFCURVE",
"210 167 OFFCURVE",
"210 272 CURVE SMOOTH"
);
}
);
width = 708;
},
{
layerId = "B61048DD-A105-4E1B-AF86-BB1631F6D87A";
paths = (
{
closed = 1;
nodes = (
"31 144 OFFCURVE",
"135 22 OFFCURVE",
"273 -4 CURVE",
"289 -72 OFFCURVE",
"355 -162 OFFCURVE",
"507 -162 CURVE SMOOTH",
"595 -162 OFFCURVE",
"652 -139 OFFCURVE",
"688 -120 CURVE",
"688 -15 LINE",
"645 -29 OFFCURVE",
"595 -39 OFFCURVE",
"562 -39 CURVE SMOOTH",
"514 -39 OFFCURVE",
"495 -18 OFFCURVE",
"484 6 CURVE",
"602 46 OFFCURVE",
"687 158 OFFCURVE",
"687 290 CURVE SMOOTH",
"687 394 LINE SMOOTH",
"687 560 OFFCURVE",
"553 694 OFFCURVE",
"387 694 CURVE SMOOTH",
"331 694 LINE SMOOTH",
"165 694 OFFCURVE",
"31 560 OFFCURVE",
"31 394 CURVE SMOOTH",
"31 290 LINE SMOOTH"
);
},
{
closed = 1;
nodes = (
"257 440 LINE SMOOTH",
"257 495 OFFCURVE",
"299 540 OFFCURVE",
"359 540 CURVE SMOOTH",
"419 540 OFFCURVE",
"462 496 OFFCURVE",
"462 440 CURVE SMOOTH",
"462 247 LINE SMOOTH",
"462 191 OFFCURVE",
"420 147 OFFCURVE",
"359 147 CURVE SMOOTH",
"302 147 OFFCURVE",
"257 189 OFFCURVE",
"257 247 CURVE SMOOTH"
);
}
);
width = 718;
}
);
leftKerningGroup = O;
note = Q;
rightKerningGroup = O;
unicode = 0051;
},
{
glyphname = R;
layers = (
{
anchors = (
{
name = bottom;
position = "{325, 0}";
},
{
name = top;
position = "{325, 686}";
}
);
background = {
paths = (
{
closed = 1;
nodes = (
"92 686 LINE",
"92 0 LINE",
"190 0 LINE",
"190 302 LINE",
"364 302 LINE SMOOTH",
"427 302 OFFCURVE",
"481 243 OFFCURVE",
"481 130 CURVE SMOOTH",
"481 16 OFFCURVE",
"528 -6 OFFCURVE",
"583 -6 CURVE SMOOTH",
"599 -6 OFFCURVE",
"615 -3 OFFCURVE",
"630 3 CURVE",
"630 31 LINE",
"598 42 OFFCURVE",
"579 56 OFFCURVE",
"579 170 CURVE SMOOTH",
"579 261 OFFCURVE",
"530 325 OFFCURVE",
"469 349 CURVE",
"469 354 LINE",
"535 367 OFFCURVE",
"592 433 OFFCURVE",
"592 525 CURVE SMOOTH",
"592 628 OFFCURVE",
"501 686 OFFCURVE",
"384 686 CURVE SMOOTH"
);
},
{
closed = 1;
nodes = (
"452 597 OFFCURVE",
"494 553 OFFCURVE",
"494 496 CURVE SMOOTH",
"494 436 OFFCURVE",
"446 391 OFFCURVE",
"385 391 CURVE SMOOTH",
"190 391 LINE",
"190 597 LINE",
"385 597 LINE SMOOTH"
);
}
);
};
layerId = "86BFE29D-DE3A-4B42-8FD7-32CE7A5DD9A0";
paths = (
{
closed = 1;
nodes = (
"92 686 LINE",
"92 0 LINE",
"190 0 LINE",
"190 288 LINE",
"364 288 LINE SMOOTH",
"427 288 OFFCURVE",
"481 229 OFFCURVE",
"481 130 CURVE SMOOTH",
"481 16 OFFCURVE",
"528 -6 OFFCURVE",
"583 -6 CURVE SMOOTH",
"599 -6 OFFCURVE",
"615 -3 OFFCURVE",
"630 3 CURVE",
"630 31 LINE",
"598 42 OFFCURVE",
"579 56 OFFCURVE",
"579 170 CURVE SMOOTH",
"579 247 OFFCURVE",
"530 311 OFFCURVE",
"469 335 CURVE",
"469 340 LINE",
"531 366 OFFCURVE",
"592 421 OFFCURVE",
"592 523 CURVE SMOOTH",
"592 626 OFFCURVE",
"501 686 OFFCURVE",
"384 686 CURVE SMOOTH"
);
},
{
closed = 1;
nodes = (
"456 597 OFFCURVE",
"494 557 OFFCURVE",
"494 500 CURVE SMOOTH",
"494 433 OFFCURVE",
"446 377 OFFCURVE",
"385 377 CURVE SMOOTH",
"190 377 LINE",
"190 597 LINE",
"389 597 LINE SMOOTH"
);
}
);
width = 670;
},
{
anchors = (
{
name = bottom;
position = "{332, 0}";
},
{
name = top;
position = "{332, 686}";
}
);
background = {
paths = (
{
closed = 1;
nodes = (
"107 686 LINE",
"107 0 LINE",
"161 0 LINE",
"161 326 LINE",
"382 326 LINE SMOOTH",
"414 326 OFFCURVE",
"511 313 OFFCURVE",
"511 127 CURVE SMOOTH",
"511 15 OFFCURVE",
"558 -3 OFFCURVE",
"589 -3 CURVE SMOOTH",
"603 -3 OFFCURVE",
"614 1 OFFCURVE",
"614 1 CURVE",
"614 20 LINE",
"589 32 OFFCURVE",
"563 30 OFFCURVE",
"563 153 CURVE SMOOTH",
"563 332 OFFCURVE",
"453 349 OFFCURVE",
"453 349 CURVE",
"453 354 LINE",
"523 367 OFFCURVE",
"576 443 OFFCURVE",
"576 516 CURVE SMOOTH",
"576 619 OFFCURVE",
"483 686 OFFCURVE",
"386 686 CURVE SMOOTH"
);
},
{
closed = 1;
nodes = (
"463 638 OFFCURVE",
"523 581 OFFCURVE",
"523 507 CURVE SMOOTH",
"523 433 OFFCURVE",
"463 374 OFFCURVE",
"389 374 CURVE SMOOTH",
"161 374 LINE",
"161 638 LINE",
"389 638 LINE SMOOTH"
);
}
);
};
layerId = "F84504BD-929B-4EC5-838D-CC63F45B30C5";
paths = (
{
closed = 1;
nodes = (
"107 686 LINE",
"107 0 LINE",
"161 0 LINE",
"161 316 LINE",
"382 316 LINE SMOOTH",
"414 316 OFFCURVE",
"511 303 OFFCURVE",
"511 127 CURVE SMOOTH",
"511 15 OFFCURVE",
"558 -3 OFFCURVE",
"589 -3 CURVE SMOOTH",
"603 -3 OFFCURVE",
"614 1 OFFCURVE",
"614 1 CURVE",
"614 20 LINE",
"589 32 OFFCURVE",
"563 30 OFFCURVE",
"563 153 CURVE SMOOTH",
"563 322 OFFCURVE",
"457 339 OFFCURVE",
"457 339 CURVE",
"457 344 LINE",
"522 371 OFFCURVE",
"576 439 OFFCURVE",
"576 521 CURVE SMOOTH",
"576 624 OFFCURVE",
"493 686 OFFCURVE",
"396 686 CURVE SMOOTH"
);
},
{
closed = 1;
nodes = (
"468 638 OFFCURVE",
"523 596 OFFCURVE",
"523 517 CURVE SMOOTH",
"523 438 OFFCURVE",
"463 364 OFFCURVE",
"389 364 CURVE SMOOTH",
"161 364 LINE",
"161 638 LINE",
"389 638 LINE SMOOTH"
);
}
);
width = 670;
},
{
anchors = (
{
name = bottom;
position = "{335, 0}";
},
{
name = top;
position = "{335, 686}";
}
);
background = {
paths = (
{
closed = 1;
nodes = (
"72 686 LINE",
"72 0 LINE",
"224 0 LINE",
"224 284 LINE",
"340 284 LINE SMOOTH",
"429 284 OFFCURVE",
"447 202 OFFCURVE",
"447 102 CURVE SMOOTH",
"447 17 OFFCURVE",
"503 -7 OFFCURVE",
"562 -7 CURVE SMOOTH",
"591 -7 OFFCURVE",
"625 -3 OFFCURVE",
"648 6 CURVE",
"648 40 LINE",
"603 54 OFFCURVE",
"597 122 OFFCURVE",
"597 166 CURVE SMOOTH",
"597 279 OFFCURVE",
"536 333 OFFCURVE",
"487 349 CURVE",
"487 354 LINE",
"557 367 OFFCURVE",
"610 443 OFFCURVE",
"610 516 CURVE SMOOTH",
"610 646 OFFCURVE",
"492 686 OFFCURVE",
"379 686 CURVE SMOOTH"
);
},
{
closed = 1;
nodes = (
"421 563 OFFCURVE",
"454 530 OFFCURVE",
"454 487 CURVE SMOOTH",
"454 437 OFFCURVE",
"420 405 OFFCURVE",
"374 405 CURVE SMOOTH",
"224 405 LINE",
"224 563 LINE",
"374 563 LINE SMOOTH"
);
}
);
};
layerId = "4FE665F2-115E-4010-81D6-04A4227E19CC";
paths = (
{
closed = 1;
nodes = (
"72 686 LINE",
"72 0 LINE",
"224 0 LINE",
"224 264 LINE",
"340 264 LINE SMOOTH",
"429 264 OFFCURVE",
"447 182 OFFCURVE",
"447 102 CURVE SMOOTH",
"447 17 OFFCURVE",
"503 -7 OFFCURVE",
"562 -7 CURVE SMOOTH",
"591 -7 OFFCURVE",
"625 -3 OFFCURVE",
"648 6 CURVE",
"648 40 LINE",
"603 54 OFFCURVE",
"597 122 OFFCURVE",
"597 166 CURVE SMOOTH",
"597 259 OFFCURVE",
"536 313 OFFCURVE",
"487 329 CURVE",
"487 334 LINE",
"552 360 OFFCURVE",
"610 424 OFFCURVE",
"610 510 CURVE SMOOTH",
"610 640 OFFCURVE",
"495 686 OFFCURVE",
"382 686 CURVE SMOOTH"
);
},
{
closed = 1;
nodes = (
"426 563 OFFCURVE",
"454 531 OFFCURVE",
"454 488 CURVE SMOOTH",
"454 435 OFFCURVE",
"420 385 OFFCURVE",
"374 385 CURVE SMOOTH",
"224 385 LINE",
"224 563 LINE",
"379 563 LINE SMOOTH"
);
}
);
width = 665;
},
{
anchors = (
{
name = bottom;
position = "{338, 0}";
},
{
name = top;
position = "{338, 686}";
}
);
background = {
paths = (
{
closed = 1;
nodes = (
"57 686 LINE",
"57 0 LINE",
"262 0 LINE",
"262 266 LINE",
"320 266 LINE SMOOTH",
"405 266 OFFCURVE",
"409 183 OFFCURVE",
"409 119 CURVE SMOOTH",
"409 23 OFFCURVE",
"459 -10 OFFCURVE",
"550 -10 CURVE SMOOTH",
"589 -10 OFFCURVE",
"634 -6 OFFCURVE",
"670 9 CURVE",
"670 50 LINE",
"620 63 OFFCURVE",
"619 132 OFFCURVE",
"619 173 CURVE SMOOTH",
"619 256 OFFCURVE",
"586 326 OFFCURVE",
"509 349 CURVE",
"509 354 LINE",
"578 367 OFFCURVE",
"632 443 OFFCURVE",
"632 516 CURVE SMOOTH",
"632 619 OFFCURVE",
"539 686 OFFCURVE",
"442 686 CURVE SMOOTH"
);
},
{
closed = 1;
nodes = (
"396 529 OFFCURVE",
"418 507 OFFCURVE",
"418 479 CURVE SMOOTH",
"418 439 OFFCURVE",
"398 419 OFFCURVE",
"368 419 CURVE SMOOTH",
"262 419 LINE",
"262 529 LINE",
"368 529 LINE SMOOTH"
);
}
);
};
layerId = "B61048DD-A105-4E1B-AF86-BB1631F6D87A";
paths = (
{
closed = 1;
nodes = (
"57 686 LINE",
"57 0 LINE",
"262 0 LINE",
"262 242 LINE",
"320 242 LINE SMOOTH",
"405 242 OFFCURVE",
"409 159 OFFCURVE",
"409 119 CURVE SMOOTH",
"409 23 OFFCURVE",
"459 -10 OFFCURVE",
"550 -10 CURVE SMOOTH",
"589 -10 OFFCURVE",
"634 -6 OFFCURVE",
"670 9 CURVE",
"670 50 LINE",
"620 63 OFFCURVE",
"619 132 OFFCURVE",
"619 173 CURVE SMOOTH",
"619 232 OFFCURVE",
"586 302 OFFCURVE",
"509 325 CURVE",
"509 330 LINE",
"574 355 OFFCURVE",
"632 428 OFFCURVE",
"632 509 CURVE SMOOTH",
"632 612 OFFCURVE",
"541 686 OFFCURVE",
"444 686 CURVE SMOOTH"
);
},
{
closed = 1;
nodes = (
"398 529 OFFCURVE",
"418 502 OFFCURVE",
"418 474 CURVE SMOOTH",
"418 432 OFFCURVE",
"398 395 OFFCURVE",
"368 395 CURVE SMOOTH",
"262 395 LINE",
"262 529 LINE",
"370 529 LINE SMOOTH"
);
}
);
width = 682;
}
);
leftKerningGroup = H;
note = R;
rightKerningGroup = R;
unicode = 0052;
},
{
glyphname = S;
layers = (
{
anchors = (
{
name = bottom;
position = "{317, 0}";
},
{
name = top;
position = "{312, 686}";
}
);
layerId = "86BFE29D-DE3A-4B42-8FD7-32CE7A5DD9A0";
paths = (
{
closed = 1;
nodes = (
"174 696 OFFCURVE",
"68 640 OFFCURVE",
"68 501 CURVE SMOOTH",
"68 257 OFFCURVE",
"476 358 OFFCURVE",
"476 182 CURVE SMOOTH",
"476 118 OFFCURVE",
"414 79 OFFCURVE",
"314 79 CURVE SMOOTH",
"214 79 OFFCURVE",
"150 115 OFFCURVE",
"150 194 CURVE SMOOTH",
"150 201 OFFCURVE",
"150 206 OFFCURVE",
"151 215 CURVE",
"53 215 LINE",
"52 206 OFFCURVE",
"52 202 OFFCURVE",
"52 195 CURVE",
"52 59 OFFCURVE",
"151 -10 OFFCURVE",
"313 -10 CURVE SMOOTH",
"470 -10 OFFCURVE",
"574 50 OFFCURVE",
"574 205 CURVE SMOOTH",
"574 449 OFFCURVE",
"166 359 OFFCURVE",
"166 516 CURVE SMOOTH",
"166 575 OFFCURVE",
"223 607 OFFCURVE",
"316 607 CURVE SMOOTH",
"399 607 OFFCURVE",
"458 572 OFFCURVE",
"458 507 CURVE SMOOTH",
"458 492 LINE",
"556 492 LINE",
"556 504 LINE SMOOTH",
"556 628 OFFCURVE",
"462 696 OFFCURVE",
"314 696 CURVE SMOOTH"
);
}
);
width = 627;
},
{
anchors = (
{
name = bottom;
position = "{316, 0}";
},
{
name = top;
position = "{311, 686}";
}
);
layerId = "F84504BD-929B-4EC5-838D-CC63F45B30C5";
paths = (
{
closed = 1;
nodes = (
"190 696 OFFCURVE",
"84 646 OFFCURVE",
"84 528 CURVE SMOOTH",
"84 277 OFFCURVE",
"505 396 OFFCURVE",
"505 185 CURVE SMOOTH",
"505 72 OFFCURVE",
"418 38 OFFCURVE",
"311 38 CURVE SMOOTH",
"204 38 OFFCURVE",
"118 74 OFFCURVE",
"118 178 CURVE SMOOTH",
"118 187 OFFCURVE",
"118 196 OFFCURVE",
"119 205 CURVE",
"68 205 LINE",
"67 200 OFFCURVE",
"67 192 OFFCURVE",
"67 187 CURVE SMOOTH",
"67 39 OFFCURVE",
"179 -10 OFFCURVE",
"315 -10 CURVE SMOOTH",
"447 -10 OFFCURVE",
"558 42 OFFCURVE",
"558 188 CURVE SMOOTH",
"558 447 OFFCURVE",
"137 332 OFFCURVE",
"137 525 CURVE SMOOTH",
"137 615 OFFCURVE",
"215 648 OFFCURVE",
"312 648 CURVE SMOOTH",
"409 648 OFFCURVE",
"488 608 OFFCURVE",
"488 525 CURVE SMOOTH",
"488 503 LINE",
"538 503 LINE",
"538 516 LINE SMOOTH",
"538 646 OFFCURVE",
"436 696 OFFCURVE",
"311 696 CURVE SMOOTH"
);
}
);
width = 627;
},
{
anchors = (
{
name = bottom;
position = "{327, 0}";
},
{
name = top;
position = "{322, 686}";
}
);
layerId = "4FE665F2-115E-4010-81D6-04A4227E19CC";
paths = (
{
closed = 1;
nodes = (
"174 696 OFFCURVE",
"51 630 OFFCURVE",
"51 493 CURVE SMOOTH",
"51 231 OFFCURVE",
"438 323 OFFCURVE",
"438 191 CURVE SMOOTH",
"438 152 OFFCURVE",
"408 113 OFFCURVE",
"307 113 CURVE SMOOTH",
"225 113 OFFCURVE",
"181 151 OFFCURVE",
"181 208 CURVE SMOOTH",
"181 213 OFFCURVE",
"181 216 OFFCURVE",
"182 224 CURVE",
"36 224 LINE",
"35 214 OFFCURVE",
"35 210 OFFCURVE",
"35 202 CURVE SMOOTH",
"35 51 OFFCURVE",
"165 -10 OFFCURVE",
"312 -10 CURVE SMOOTH",
"478 -10 OFFCURVE",
"595 53 OFFCURVE",
"595 216 CURVE SMOOTH",
"595 466 OFFCURVE",
"206 379 OFFCURVE",
"206 509 CURVE SMOOTH",
"206 547 OFFCURVE",
"248 573 OFFCURVE",
"322 573 CURVE SMOOTH",
"393 573 OFFCURVE",
"435 542 OFFCURVE",
"435 492 CURVE SMOOTH",
"435 483 LINE",
"580 483 LINE",
"580 495 LINE SMOOTH",
"580 635 OFFCURVE",
"462 696 OFFCURVE",
"319 696 CURVE SMOOTH"
);
}
);
width = 635;
},
{
anchors = (
{
name = bottom;
position = "{338, 0}";
},
{
name = top;
position = "{333, 686}";
}
);
background = {
paths = (
{
closed = 1;
nodes = (
"171 696 OFFCURVE",
"40 623 OFFCURVE",
"40 478 CURVE SMOOTH",
"40 209 OFFCURVE",
"407 291 OFFCURVE",
"407 194 CURVE SMOOTH",
"407 172 OFFCURVE",
"393 151 OFFCURVE",
"312 151 CURVE SMOOTH",
"240 151 OFFCURVE",
"219 186 OFFCURVE",
"219 222 CURVE SMOOTH",
"219 227 OFFCURVE",
"219 229 OFFCURVE",
"220 234 CURVE",
"26 234 LINE",
"25 224 OFFCURVE",
"25 218 OFFCURVE",
"25 210 CURVE SMOOTH",
"25 58 OFFCURVE",
"166 -10 OFFCURVE",
"318 -10 CURVE SMOOTH",
"500 -10 OFFCURVE",
"623 59 OFFCURVE",
"623 229 CURVE SMOOTH",
"623 352 OFFCURVE",
"530 401 OFFCURVE",
"437 422 CURVE SMOOTH",
"348 442 LINE SMOOTH",
"293 454 OFFCURVE",
"252 469 OFFCURVE",
"252 502 CURVE SMOOTH",
"252 527 OFFCURVE",
"278 544 OFFCURVE",
"335 544 CURVE SMOOTH",
"395 544 OFFCURVE",
"418 513 OFFCURVE",
"418 478 CURVE SMOOTH",
"418 474 LINE",
"610 474 LINE",
"610 486 LINE SMOOTH",
"610 631 OFFCURVE",
"484 696 OFFCURVE",
"331 696 CURVE SMOOTH"
);
}
);
};
layerId = "B61048DD-A105-4E1B-AF86-BB1631F6D87A";
paths = (
{
closed = 1;
nodes = (
"171 696 OFFCURVE",
"40 623 OFFCURVE",
"40 478 CURVE SMOOTH",
"40 209 OFFCURVE",
"407 291 OFFCURVE",
"407 194 CURVE SMOOTH",
"407 172 OFFCURVE",
"393 151 OFFCURVE",
"312 151 CURVE SMOOTH",
"240 151 OFFCURVE",
"219 186 OFFCURVE",
"219 222 CURVE SMOOTH",
"219 227 OFFCURVE",
"219 229 OFFCURVE",
"220 234 CURVE",
"26 234 LINE",
"25 224 OFFCURVE",
"25 218 OFFCURVE",
"25 210 CURVE SMOOTH",
"25 58 OFFCURVE",
"166 -10 OFFCURVE",
"318 -10 CURVE SMOOTH",
"500 -10 OFFCURVE",
"623 59 OFFCURVE",
"623 229 CURVE SMOOTH",
"623 482 OFFCURVE",
"252 399 OFFCURVE",
"252 502 CURVE SMOOTH",
"252 527 OFFCURVE",
"278 544 OFFCURVE",
"335 544 CURVE SMOOTH",
"395 544 OFFCURVE",
"418 513 OFFCURVE",
"418 478 CURVE SMOOTH",
"418 474 LINE",
"610 474 LINE",
"610 486 LINE SMOOTH",
"610 631 OFFCURVE",
"484 696 OFFCURVE",
"331 696 CURVE SMOOTH"
);
}
);
width = 651;
}
);
leftKerningGroup = S;
note = S;
rightKerningGroup = S;
unicode = 0053;
},
{
glyphname = Germandbls;
layers = (
{
background = {
paths = (
{
closed = 1;
nodes = (
"283 696 OFFCURVE",
"32 688 OFFCURVE",
"32 386 CURVE SMOOTH",
"32 0 LINE",
"257 0 LINE",
"257 406 LINE SMOOTH",
"257 533 OFFCURVE",
"350 547 OFFCURVE",
"436 547 CURVE SMOOTH",
"535 547 OFFCURVE",
"584 524 OFFCURVE",
"584 484 CURVE SMOOTH",
"584 435 OFFCURVE",
"553 412 OFFCURVE",
"514 412 CURVE SMOOTH",
"406 412 LINE",
"406 289 LINE",
"530 289 LINE SMOOTH",
"569 289 OFFCURVE",
"600 266 OFFCURVE",
"600 217 CURVE SMOOTH",
"600 165 OFFCURVE",
"579 139 OFFCURVE",
"526 139 CURVE SMOOTH",
"476 139 OFFCURVE",
"453 161 OFFCURVE",
"453 209 CURVE",
"277 209 LINE",
"277 188 LINE SMOOTH",
"277 55 OFFCURVE",
"369 -10 OFFCURVE",
"520 -10 CURVE SMOOTH",
"674 -10 OFFCURVE",
"799 59 OFFCURVE",
"799 199 CURVE SMOOTH",
"799 283 OFFCURVE",
"750 337 OFFCURVE",
"682 358 CURVE",
"681 362 LINE",
"743 387 OFFCURVE",
"779 442 OFFCURVE",
"779 510 CURVE SMOOTH",
"779 622 OFFCURVE",
"660 696 OFFCURVE",
"449 696 CURVE SMOOTH"
);
}
);
};
layerId = "B61048DD-A105-4E1B-AF86-BB1631F6D87A";
paths = (
{
closed = 1;
nodes = (
"221 696 OFFCURVE",
"52 617 OFFCURVE",
"52 366 CURVE SMOOTH",
"52 0 LINE",
"277 0 LINE",
"277 416 LINE SMOOTH",
"277 520 OFFCURVE",
"332 547 OFFCURVE",
"427 547 CURVE SMOOTH",
"508 547 OFFCURVE",
"574 532 OFFCURVE",
"574 474 CURVE SMOOTH",
"574 430 OFFCURVE",
"538 412 OFFCURVE",
"504 412 CURVE SMOOTH",
"396 412 LINE",
"396 289 LINE",
"520 289 LINE SMOOTH",
"559 289 OFFCURVE",
"590 266 OFFCURVE",
"590 217 CURVE SMOOTH",
"590 170 OFFCURVE",
"579 139 OFFCURVE",
"531 139 CURVE SMOOTH",
"486 139 OFFCURVE",
"483 166 OFFCURVE",
"483 209 CURVE",
"307 209 LINE",
"307 188 LINE SMOOTH",
"307 55 OFFCURVE",
"378 -10 OFFCURVE",
"529 -10 CURVE SMOOTH",
"683 -10 OFFCURVE",
"789 58 OFFCURVE",
"789 198 CURVE SMOOTH",
"789 282 OFFCURVE",
"737 336 OFFCURVE",
"672 358 CURVE",
"671 362 LINE",
"724 384 OFFCURVE",
"769 437 OFFCURVE",
"769 500 CURVE SMOOTH",
"769 631 OFFCURVE",
"632 696 OFFCURVE",
"442 696 CURVE SMOOTH"
);
}
);
width = 816;
},
{
background = {
paths = (
{
closed = 1;
nodes = (
"155 0 LINE",
"155 441 LINE SMOOTH",
"155 585 OFFCURVE",
"226 648 OFFCURVE",
"359 648 CURVE SMOOTH",
"456 648 OFFCURVE",
"556 613 OFFCURVE",
"556 515 CURVE SMOOTH",
"556 423 OFFCURVE",
"478 375 OFFCURVE",
"389 375 CURVE SMOOTH",
"297 375 LINE",
"297 327 LINE",
"394 327 LINE SMOOTH",
"490 327 OFFCURVE",
"571 281 OFFCURVE",
"571 181 CURVE SMOOTH",
"571 88 OFFCURVE",
"515 36 OFFCURVE",
"414 36 CURVE SMOOTH",
"310 36 OFFCURVE",
"258 90 OFFCURVE",
"258 181 CURVE SMOOTH",
"258 199 LINE",
"205 199 LINE",
"205 182 LINE SMOOTH",
"205 65 OFFCURVE",
"282 -10 OFFCURVE",
"414 -10 CURVE SMOOTH",
"539 -10 OFFCURVE",
"624 61 OFFCURVE",
"624 182 CURVE SMOOTH",
"624 276 OFFCURVE",
"569 330 OFFCURVE",
"497 351 CURVE",
"497 355 LINE",
"561 387 OFFCURVE",
"610 428 OFFCURVE",
"610 516 CURVE SMOOTH",
"610 644 OFFCURVE",
"487 696 OFFCURVE",
"364 696 CURVE SMOOTH",
"201 696 OFFCURVE",
"101 606 OFFCURVE",
"101 441 CURVE SMOOTH",
"101 0 LINE"
);
}
);
};
layerId = "F84504BD-929B-4EC5-838D-CC63F45B30C5";
paths = (
{
closed = 1;
nodes = (
"226 696 OFFCURVE",
"101 625 OFFCURVE",
"101 436 CURVE SMOOTH",
"101 0 LINE",
"155 0 LINE",
"155 441 LINE SMOOTH",
"155 598 OFFCURVE",
"252 648 OFFCURVE",
"366 648 CURVE SMOOTH",
"472 648 OFFCURVE",
"556 606 OFFCURVE",
"556 515 CURVE SMOOTH",
"556 423 OFFCURVE",
"478 375 OFFCURVE",
"389 375 CURVE SMOOTH",
"297 375 LINE",
"297 327 LINE",
"394 327 LINE SMOOTH",
"490 327 OFFCURVE",
"571 281 OFFCURVE",
"571 181 CURVE SMOOTH",
"571 88 OFFCURVE",
"515 36 OFFCURVE",
"414 36 CURVE SMOOTH",
"304 36 OFFCURVE",
"258 89 OFFCURVE",
"258 199 CURVE",
"205 199 LINE",
"205 182 LINE SMOOTH",
"205 65 OFFCURVE",
"270 -10 OFFCURVE",
"414 -10 CURVE SMOOTH",
"539 -10 OFFCURVE",
"624 61 OFFCURVE",
"624 182 CURVE SMOOTH",
"624 276 OFFCURVE",
"569 330 OFFCURVE",
"497 351 CURVE",
"497 355 LINE",
"561 387 OFFCURVE",
"610 428 OFFCURVE",
"610 516 CURVE SMOOTH",
"610 638 OFFCURVE",
"500 696 OFFCURVE",
"367 696 CURVE SMOOTH"
);
}
);
width = 698;
},
{
layerId = "4FE665F2-115E-4010-81D6-04A4227E19CC";
paths = (
{
closed = 1;
nodes = (
"219 695 OFFCURVE",
"64 612 OFFCURVE",
"64 374 CURVE SMOOTH",
"64 0 LINE",
"216 0 LINE",
"216 413 LINE SMOOTH",
"216 539 OFFCURVE",
"296 577 OFFCURVE",
"398 577 CURVE SMOOTH",
"503 577 OFFCURVE",
"564 557 OFFCURVE",
"564 492 CURVE SMOOTH",
"564 432 OFFCURVE",
"517 403 OFFCURVE",
"461 403 CURVE SMOOTH",
"359 403 LINE",
"359 296 LINE",
"451 296 LINE SMOOTH",
"515 296 OFFCURVE",
"580 286 OFFCURVE",
"580 205 CURVE SMOOTH",
"580 145 OFFCURVE",
"561 109 OFFCURVE",
"488 109 CURVE SMOOTH",
"414 109 OFFCURVE",
"400 145 OFFCURVE",
"400 205 CURVE",
"263 205 LINE",
"263 191 LINE SMOOTH",
"263 55 OFFCURVE",
"335 -10 OFFCURVE",
"485 -10 CURVE SMOOTH",
"626 -10 OFFCURVE",
"729 61 OFFCURVE",
"729 191 CURVE SMOOTH",
"729 274 OFFCURVE",
"682 330 OFFCURVE",
"609 354 CURVE",
"609 359 LINE",
"669 386 OFFCURVE",
"711 435 OFFCURVE",
"711 510 CURVE SMOOTH",
"711 639 OFFCURVE",
"586 695 OFFCURVE",
"414 695 CURVE SMOOTH"
);
}
);
width = 766;
},
{
layerId = "86BFE29D-DE3A-4B42-8FD7-32CE7A5DD9A0";
paths = (
{
closed = 1;
nodes = (
"227 697 OFFCURVE",
"86 619 OFFCURVE",
"86 404 CURVE SMOOTH",
"86 0 LINE",
"184 0 LINE",
"184 422 LINE SMOOTH",
"184 560 OFFCURVE",
"276 607 OFFCURVE",
"393 607 CURVE SMOOTH",
"498 607 OFFCURVE",
"570 578 OFFCURVE",
"570 502 CURVE SMOOTH",
"570 430 OFFCURVE",
"512 394 OFFCURVE",
"434 394 CURVE SMOOTH",
"337 394 LINE",
"337 304 LINE",
"432 304 LINE SMOOTH",
"536 304 OFFCURVE",
"586 266 OFFCURVE",
"586 194 CURVE SMOOTH",
"586 115 OFFCURVE",
"547 79 OFFCURVE",
"456 79 CURVE SMOOTH",
"364 79 OFFCURVE",
"333 114 OFFCURVE",
"333 202 CURVE",
"235 202 LINE",
"235 194 LINE SMOOTH",
"235 62 OFFCURVE",
"310 -10 OFFCURVE",
"456 -10 CURVE SMOOTH",
"594 -10 OFFCURVE",
"684 68 OFFCURVE",
"684 184 CURVE SMOOTH",
"684 276 OFFCURVE",
"632 330 OFFCURVE",
"560 353 CURVE",
"559 356 LINE",
"616 379 OFFCURVE",
"668 429 OFFCURVE",
"668 510 CURVE SMOOTH",
"668 637 OFFCURVE",
"557 697 OFFCURVE",
"406 697 CURVE SMOOTH"
);
}
);
width = 743;
}
);
leftKerningGroup = Germandbls;
rightKerningGroup = Germandbls;
unicode = 1E9E;
},
{
glyphname = Schwa;
layers = (
{
layerId = "B61048DD-A105-4E1B-AF86-BB1631F6D87A";
paths = (
{
closed = 1;
nodes = (
"332 694 LINE SMOOTH",
"197 694 OFFCURVE",
"42 603 OFFCURVE",
"42 460 CURVE SMOOTH",
"42 437 LINE",
"258 437 LINE",
"258 451 LINE SMOOTH",
"258 515 OFFCURVE",
"310 540 OFFCURVE",
"364 540 CURVE SMOOTH",
"431 540 OFFCURVE",
"458 496 OFFCURVE",
"458 440 CURVE SMOOTH",
"458 220 LINE SMOOTH",
"458 164 OFFCURVE",
"421 130 OFFCURVE",
"360 130 CURVE SMOOTH",
"303 130 OFFCURVE",
"263 162 OFFCURVE",
"263 220 CURVE SMOOTH",
"263 365 LINE",
"37 365 LINE",
"37 272 LINE SMOOTH",
"37 106 OFFCURVE",
"166 -10 OFFCURVE",
"332 -10 CURVE SMOOTH",
"388 -10 LINE SMOOTH",
"554 -10 OFFCURVE",
"683 124 OFFCURVE",
"683 290 CURVE SMOOTH",
"683 394 LINE SMOOTH",
"683 560 OFFCURVE",
"556 694 OFFCURVE",
"390 694 CURVE SMOOTH"
);
},
{
closed = 1;
nodes = (
"91 365 LINE",
"91 220 LINE",
"647 220 LINE",
"647 365 LINE"
);
}
);
width = 714;
},
{
background = {
hints = (
{
horizontal = 1;
place = "{-10, 48}";
type = Stem;
},
{
horizontal = 1;
place = "{648, 48}";
type = Stem;
},
{
place = "{61, 54}";
type = Stem;
},
{
place = "{539, 54}";
type = Stem;
}
);
paths = (
{
closed = 1;
nodes = (
"350 696 LINE SMOOTH",
"202 696 OFFCURVE",
"98 617 OFFCURVE",
"98 463 CURVE",
"148 463 LINE",
"148 590 OFFCURVE",
"231 648 OFFCURVE",
"351 648 CURVE SMOOTH",
"473 648 OFFCURVE",
"561 600 OFFCURVE",
"561 368 CURVE SMOOTH",
"561 318 LINE SMOOTH",
"561 91 OFFCURVE",
"471 38 OFFCURVE",
"354 38 CURVE SMOOTH",
"242 38 OFFCURVE",
"147 86 OFFCURVE",
"147 308 CURVE SMOOTH",
"147 335 LINE",
"93 335 LINE",
"93 320 LINE SMOOTH",
"93 50 OFFCURVE",
"212 -10 OFFCURVE",
"354 -10 CURVE SMOOTH",
"357 -10 LINE SMOOTH",
"502 -10 OFFCURVE",
"615 58 OFFCURVE",
"615 330 CURVE SMOOTH",
"615 356 LINE SMOOTH",
"615 630 OFFCURVE",
"505 696 OFFCURVE",
"357 696 CURVE SMOOTH"
);
},
{
closed = 1;
nodes = (
"107 335 LINE",
"107 287 LINE",
"583 287 LINE",
"583 335 LINE"
);
}
);
};
layerId = "F84504BD-929B-4EC5-838D-CC63F45B30C5";
paths = (
{
closed = 1;
nodes = (
"350 696 LINE SMOOTH",
"206 696 OFFCURVE",
"98 616 OFFCURVE",
"98 472 CURVE SMOOTH",
"98 460 LINE",
"148 460 LINE",
"148 469 LINE SMOOTH",
"148 588 OFFCURVE",
"234 648 OFFCURVE",
"351 648 CURVE SMOOTH",
"473 648 OFFCURVE",
"561 600 OFFCURVE",
"561 368 CURVE SMOOTH",
"561 318 LINE SMOOTH",
"561 91 OFFCURVE",
"471 38 OFFCURVE",
"354 38 CURVE SMOOTH",
"242 38 OFFCURVE",
"147 86 OFFCURVE",
"147 308 CURVE SMOOTH",
"147 335 LINE",
"93 335 LINE",
"93 320 LINE SMOOTH",
"93 50 OFFCURVE",
"212 -10 OFFCURVE",
"354 -10 CURVE SMOOTH",
"357 -10 LINE SMOOTH",
"502 -10 OFFCURVE",
"615 58 OFFCURVE",
"615 330 CURVE SMOOTH",
"615 356 LINE SMOOTH",
"615 630 OFFCURVE",
"505 696 OFFCURVE",
"357 696 CURVE SMOOTH"
);
},
{
closed = 1;
nodes = (
"107 335 LINE",
"107 287 LINE",
"583 287 LINE",
"583 335 LINE"
);
}
);
width = 694;
},
{
background = {
paths = (
{
closed = 1;
nodes = (
"357 696 LINE SMOOTH",
"216 696 OFFCURVE",
"78 615 OFFCURVE",
"67 463 CURVE SMOOTH",
"66 457 OFFCURVE",
"66 450 OFFCURVE",
"66 443 CURVE",
"220 443 LINE",
"220 448 OFFCURVE",
"220 452 OFFCURVE",
"220 456 CURVE SMOOTH",
"226 545 OFFCURVE",
"293 573 OFFCURVE",
"362 573 CURVE SMOOTH",
"444 573 OFFCURVE",
"501 519 OFFCURVE",
"501 414 CURVE SMOOTH",
"501 272 LINE SMOOTH",
"501 167 OFFCURVE",
"444 113 OFFCURVE",
"362 113 CURVE SMOOTH",
"280 113 OFFCURVE",
"223 167 OFFCURVE",
"223 272 CURVE SMOOTH",
"223 354 LINE",
"61 354 LINE",
"61 294 LINE SMOOTH",
"61 99 OFFCURVE",
"198 -10 OFFCURVE",
"357 -10 CURVE SMOOTH",
"368 -10 LINE SMOOTH",
"530 -10 OFFCURVE",
"663 101 OFFCURVE",
"663 294 CURVE SMOOTH",
"663 392 LINE SMOOTH",
"663 586 OFFCURVE",
"532 696 OFFCURVE",
"368 696 CURVE SMOOTH"
);
},
{
closed = 1;
nodes = (
"90 354 LINE",
"90 230 LINE",
"632 230 LINE",
"632 354 LINE"
);
}
);
};
layerId = "4FE665F2-115E-4010-81D6-04A4227E19CC";
paths = (
{
closed = 1;
nodes = (
"357 696 LINE SMOOTH",
"212 696 OFFCURVE",
"66 605 OFFCURVE",
"66 453 CURVE SMOOTH",
"66 436 LINE",
"219 436 LINE",
"219 445 LINE SMOOTH",
"219 540 OFFCURVE",
"293 573 OFFCURVE",
"362 573 CURVE SMOOTH",
"444 573 OFFCURVE",
"501 519 OFFCURVE",
"501 414 CURVE SMOOTH",
"501 272 LINE SMOOTH",
"501 167 OFFCURVE",
"444 113 OFFCURVE",
"362 113 CURVE SMOOTH",
"280 113 OFFCURVE",
"223 167 OFFCURVE",
"223 272 CURVE SMOOTH",
"223 354 LINE",
"61 354 LINE",
"61 294 LINE SMOOTH",
"61 99 OFFCURVE",
"198 -10 OFFCURVE",
"357 -10 CURVE SMOOTH",
"368 -10 LINE SMOOTH",
"530 -10 OFFCURVE",
"663 101 OFFCURVE",
"663 294 CURVE SMOOTH",
"663 392 LINE SMOOTH",
"663 586 OFFCURVE",
"532 696 OFFCURVE",
"368 696 CURVE SMOOTH"
);
},
{
closed = 1;
nodes = (
"90 354 LINE",
"90 230 LINE",
"632 230 LINE",
"632 354 LINE"
);
}
);
width = 711;
},
{
background = {
paths = (
{
closed = 1;
nodes = (
"345 696 LINE SMOOTH",
"213 696 OFFCURVE",
"83 616 OFFCURVE",
"74 454 CURVE SMOOTH",
"74 449 OFFCURVE",
"74 444 OFFCURVE",
"74 438 CURVE",
"170 438 LINE",
"170 442 OFFCURVE",
"170 445 OFFCURVE",
"170 449 CURVE SMOOTH",
"175 566 OFFCURVE",
"261 607 OFFCURVE",
"351 607 CURVE SMOOTH",
"473 607 OFFCURVE",
"530 530 OFFCURVE",
"530 388 CURVE SMOOTH",
"530 298 LINE SMOOTH",
"530 151 OFFCURVE",
"463 79 OFFCURVE",
"349 79 CURVE SMOOTH",
"227 79 OFFCURVE",
"168 140 OFFCURVE",
"168 282 CURVE SMOOTH",
"168 330 LINE",
"70 330 LINE",
"70 282 LINE SMOOTH",
"70 84 OFFCURVE",
"179 -10 OFFCURVE",
"345 -10 CURVE SMOOTH",
"355 -10 LINE SMOOTH",
"518 -10 OFFCURVE",
"628 106 OFFCURVE",
"628 298 CURVE SMOOTH",
"628 388 LINE SMOOTH",
"628 580 OFFCURVE",
"528 696 OFFCURVE",
"360 696 CURVE SMOOTH"
);
},
{
closed = 1;
nodes = (
"84 330 LINE",
"84 241 LINE",
"612 241 LINE",
"612 330 LINE"
);
}
);
};
layerId = "86BFE29D-DE3A-4B42-8FD7-32CE7A5DD9A0";
paths = (
{
closed = 1;
nodes = (
"343 696 LINE SMOOTH",
"208 696 OFFCURVE",
"75 612 OFFCURVE",
"75 448 CURVE SMOOTH",
"75 432 LINE",
"169 432 LINE",
"169 443 LINE SMOOTH",
"169 563 OFFCURVE",
"257 607 OFFCURVE",
"349 607 CURVE SMOOTH",
"473 607 OFFCURVE",
"530 530 OFFCURVE",
"530 388 CURVE SMOOTH",
"530 298 LINE SMOOTH",
"530 151 OFFCURVE",
"463 79 OFFCURVE",
"349 79 CURVE SMOOTH",
"227 79 OFFCURVE",
"168 140 OFFCURVE",
"168 282 CURVE SMOOTH",
"168 330 LINE",
"70 330 LINE",
"70 282 LINE SMOOTH",
"70 84 OFFCURVE",
"179 -10 OFFCURVE",
"345 -10 CURVE SMOOTH",
"355 -10 LINE SMOOTH",
"518 -10 OFFCURVE",
"628 106 OFFCURVE",
"628 298 CURVE SMOOTH",
"628 388 LINE SMOOTH",
"628 580 OFFCURVE",
"528 696 OFFCURVE",
"358 696 CURVE SMOOTH"
);
},
{
closed = 1;
nodes = (
"84 330 LINE",
"84 241 LINE",
"612 241 LINE",
"612 330 LINE"
);
}
);
width = 689;
}
);
leftKerningGroup = Schwa;
rightKerningGroup = O;
unicode = 018F;
},
{
glyphname = T;
layers = (
{
anchors = (
{
name = bottom;
position = "{289, 0}";
},
{
name = center;
position = "{289, 334}";
},
{
name = top;
position = "{289, 686}";
}
);
layerId = "86BFE29D-DE3A-4B42-8FD7-32CE7A5DD9A0";
paths = (
{
closed = 1;
nodes = (
"25 597 LINE",
"240 597 LINE",
"240 0 LINE",
"338 0 LINE",
"338 597 LINE",
"553 597 LINE",
"553 686 LINE",
"25 686 LINE"
);
}
);
width = 578;
},
{
anchors = (
{
name = bottom;
position = "{289, 0}";
},
{
name = center;
position = "{289, 334}";
},
{
name = top;
position = "{289, 686}";
}
);
layerId = "F84504BD-929B-4EC5-838D-CC63F45B30C5";
paths = (
{
closed = 1;
nodes = (
"31 638 LINE",
"263 638 LINE",
"263 0 LINE",
"315 0 LINE",
"315 638 LINE",
"547 638 LINE",
"547 686 LINE",
"31 686 LINE"
);
}
);
width = 578;
},
{
anchors = (
{
name = bottom;
position = "{279, 0}";
},
{
name = center;
position = "{279, 334}";
},
{
name = top;
position = "{279, 686}";
}
);
layerId = "4FE665F2-115E-4010-81D6-04A4227E19CC";
paths = (
{
closed = 1;
nodes = (
"7 562 LINE",
"202 562 LINE",
"202 0 LINE",
"355 0 LINE",
"355 562 LINE",
"549 562 LINE",
"549 686 LINE",
"7 686 LINE"
);
}
);
width = 557;
},
{
anchors = (
{
name = bottom;
position = "{292, 0}";
},
{
name = center;
position = "{292, 334}";
},
{
name = top;
position = "{292, 686}";
}
);
layerId = "B61048DD-A105-4E1B-AF86-BB1631F6D87A";
paths = (
{
closed = 1;
nodes = (
"15 521 LINE",
"189 521 LINE",
"189 0 LINE",
"397 0 LINE",
"397 521 LINE",
"571 521 LINE",
"571 686 LINE",
"15 686 LINE"
);
}
);
width = 586;
}
);
leftKerningGroup = T;
note = T;
rightKerningGroup = T;
unicode = 0054;
},
{
glyphname = U;
layers = (
{
anchors = (
{
name = bottom;
position = "{342, 0}";
},
{
name = ogonek;
position = "{385, 0}";
},
{
name = top;
position = "{344, 686}";
},
{
name = topright;
position = "{409, 719}";
}
);
layerId = "86BFE29D-DE3A-4B42-8FD7-32CE7A5DD9A0";
paths = (
{
closed = 1;
nodes = (
"86 219 LINE SMOOTH",
"86 79 OFFCURVE",
"185 -10 OFFCURVE",
"333 -10 CURVE SMOOTH",
"346 -10 LINE SMOOTH",
"496 -10 OFFCURVE",
"594 81 OFFCURVE",
"594 219 CURVE SMOOTH",
"594 686 LINE",
"496 686 LINE",
"496 221 LINE SMOOTH",
"496 137 OFFCURVE",
"437 79 OFFCURVE",
"342 79 CURVE SMOOTH",
"251 79 OFFCURVE",
"184 135 OFFCURVE",
"184 221 CURVE SMOOTH",
"184 686 LINE",
"86 686 LINE"
);
}
);
width = 680;
},
{
anchors = (
{
name = bottom;
position = "{339, 0}";
},
{
name = ogonek;
position = "{378, 0}";
},
{
name = top;
position = "{341, 686}";
},
{
name = topright;
position = "{401, 724}";
}
);
background = {
paths = (
{
closed = 1;
nodes = (
"101 220 LINE SMOOTH",
"101 81 OFFCURVE",
"195 -10 OFFCURVE",
"339 -10 CURVE SMOOTH",
"483 -10 OFFCURVE",
"578 81 OFFCURVE",
"578 220 CURVE SMOOTH",
"578 686 LINE",
"524 686 LINE",
"524 222 LINE SMOOTH",
"524 114 OFFCURVE",
"458 38 OFFCURVE",
"339 38 CURVE SMOOTH",
"221 38 OFFCURVE",
"155 111 OFFCURVE",
"155 222 CURVE SMOOTH",
"155 686 LINE",
"101 686 LINE"
);
}
);
};
layerId = "F84504BD-929B-4EC5-838D-CC63F45B30C5";
paths = (
{
closed = 1;
nodes = (
"101 220 LINE SMOOTH",
"101 81 OFFCURVE",
"195 -10 OFFCURVE",
"337 -10 CURVE SMOOTH",
"343 -10 LINE SMOOTH",
"482 -10 OFFCURVE",
"578 83 OFFCURVE",
"578 220 CURVE SMOOTH",
"578 686 LINE",
"524 686 LINE",
"524 222 LINE SMOOTH",
"524 114 OFFCURVE",
"458 38 OFFCURVE",
"339 38 CURVE SMOOTH",
"221 38 OFFCURVE",
"155 111 OFFCURVE",
"155 222 CURVE SMOOTH",
"155 686 LINE",
"101 686 LINE"
);
}
);
width = 679;
},
{
anchors = (
{
name = bottom;
position = "{337, 0}";
},
{
name = ogonek;
position = "{384, 0}";
},
{
name = top;
position = "{339, 686}";
},
{
name = topright;
position = "{377, 721}";
}
);
layerId = "4FE665F2-115E-4010-81D6-04A4227E19CC";
paths = (
{
closed = 1;
nodes = (
"64 218 LINE SMOOTH",
"64 80 OFFCURVE",
"166 -10 OFFCURVE",
"322 -10 CURVE SMOOTH",
"350 -10 LINE SMOOTH",
"506 -10 OFFCURVE",
"609 80 OFFCURVE",
"609 218 CURVE SMOOTH",
"609 686 LINE",
"455 686 LINE",
"455 221 LINE SMOOTH",
"455 157 OFFCURVE",
"408 112 OFFCURVE",
"337 112 CURVE SMOOTH",
"267 112 OFFCURVE",
"218 158 OFFCURVE",
"218 221 CURVE SMOOTH",
"218 686 LINE",
"64 686 LINE"
);
}
);
width = 673;
},
{
anchors = (
{
name = bottom;
position = "{344, 0}";
},
{
name = ogonek;
position = "{392, 0}";
},
{
name = top;
position = "{346, 686}";
},
{
name = topright;
position = "{394, 712}";
}
);
layerId = "B61048DD-A105-4E1B-AF86-BB1631F6D87A";
paths = (
{
closed = 1;
nodes = (
"52 218 LINE SMOOTH",
"52 79 OFFCURVE",
"159 -10 OFFCURVE",
"322 -10 CURVE SMOOTH",
"365 -10 LINE SMOOTH",
"528 -10 OFFCURVE",
"635 79 OFFCURVE",
"635 218 CURVE SMOOTH",
"635 686 LINE",
"425 686 LINE",
"425 221 LINE SMOOTH",
"425 177 OFFCURVE",
"389 146 OFFCURVE",
"344 146 CURVE SMOOTH",
"299 146 OFFCURVE",
"263 177 OFFCURVE",
"263 221 CURVE SMOOTH",
"263 686 LINE",
"52 686 LINE"
);
}
);
width = 687;
}
);
leftKerningGroup = H;
note = U;
rightKerningGroup = H;
unicode = 0055;
},
{
glyphname = Uogonek;
layers = (
{
background = {
paths = (
{
closed = 1;
nodes = (
"496 686 LINE",
"496 221 LINE SMOOTH",
"496 137 OFFCURVE",
"437 79 OFFCURVE",
"342 79 CURVE SMOOTH",
"251 79 OFFCURVE",
"184 135 OFFCURVE",
"184 221 CURVE SMOOTH",
"184 686 LINE",
"86 686 LINE",
"86 219 LINE SMOOTH",
"86 79 OFFCURVE",
"185 -10 OFFCURVE",
"333 -10 CURVE SMOOTH",
"346 -10 LINE",
"364 -10 LINE",
"344 -25 OFFCURVE",
"324 -45 OFFCURVE",
"324 -69 CURVE SMOOTH",
"324 -120 OFFCURVE",
"362 -143 OFFCURVE",
"421 -143 CURVE SMOOTH",
"453 -143 OFFCURVE",
"483 -135 OFFCURVE",
"510 -119 CURVE",
"497 -82 LINE",
"467 -91 OFFCURVE",
"445 -96 OFFCURVE",
"430 -96 CURVE SMOOTH",
"401 -96 OFFCURVE",
"386 -83 OFFCURVE",
"386 -58 CURVE SMOOTH",
"386 -35 OFFCURVE",
"412 -11 OFFCURVE",
"432 0 CURVE",
"427 0 LINE",
"530 27 OFFCURVE",
"594 108 OFFCURVE",
"594 219 CURVE SMOOTH",
"594 686 LINE"
);
}
);
};
components = (
{
name = U;
},
{
name = ogonekcomb;
transform = "{1, 0, 0, 1, 590, 0}";
}
);
layerId = "86BFE29D-DE3A-4B42-8FD7-32CE7A5DD9A0";
width = 680;
},
{
background = {
paths = (
{
closed = 1;
nodes = (
"509 686 LINE",
"509 222 LINE SMOOTH",
"509 114 OFFCURVE",
"443 38 OFFCURVE",
"324 38 CURVE SMOOTH",
"206 38 OFFCURVE",
"140 111 OFFCURVE",
"140 222 CURVE SMOOTH",
"140 686 LINE",
"86 686 LINE",
"86 220 LINE SMOOTH",
"86 81 OFFCURVE",
"180 -10 OFFCURVE",
"324 -10 CURVE SMOOTH",
"336 -10 LINE",
"316 -25 OFFCURVE",
"296 -45 OFFCURVE",
"296 -71 CURVE SMOOTH",
"296 -126 OFFCURVE",
"347 -143 OFFCURVE",
"393 -143 CURVE SMOOTH",
"422 -143 OFFCURVE",
"451 -135 OFFCURVE",
"477 -119 CURVE",
"464 -86 LINE",
"443 -93 OFFCURVE",
"421 -100 OFFCURVE",
"397 -100 CURVE SMOOTH",
"376 -100 OFFCURVE",
"353 -91 OFFCURVE",
"353 -60 CURVE SMOOTH",
"353 -33 OFFCURVE",
"377 -16 OFFCURVE",
"397 -2 CURVE",
"399 -1 LINE",
"500 25 OFFCURVE",
"563 107 OFFCURVE",
"563 220 CURVE SMOOTH",
"563 686 LINE"
);
}
);
};
components = (
{
name = U;
},
{
name = ogonekcomb;
transform = "{1, 0, 0, 1, 583, 0}";
}
);
layerId = "F84504BD-929B-4EC5-838D-CC63F45B30C5";
width = 679;
},
{
background = {
paths = (
{
closed = 1;
nodes = (
"455 686 LINE",
"455 221 LINE SMOOTH",
"455 157 OFFCURVE",
"408 112 OFFCURVE",
"337 112 CURVE SMOOTH",
"267 112 OFFCURVE",
"218 158 OFFCURVE",
"218 221 CURVE SMOOTH",
"218 686 LINE",
"64 686 LINE",
"64 218 LINE SMOOTH",
"64 80 OFFCURVE",
"166 -10 OFFCURVE",
"322 -10 CURVE SMOOTH",
"350 -10 LINE SMOOTH",
"357 -10 OFFCURVE",
"364 -10 OFFCURVE",
"370 -9 CURVE",
"350 -25 OFFCURVE",
"330 -45 OFFCURVE",
"330 -71 CURVE SMOOTH",
"330 -126 OFFCURVE",
"381 -143 OFFCURVE",
"427 -143 CURVE SMOOTH",
"460 -143 OFFCURVE",
"494 -135 OFFCURVE",
"523 -119 CURVE",
"510 -79 LINE",
"489 -87 OFFCURVE",
"467 -93 OFFCURVE",
"443 -93 CURVE SMOOTH",
"422 -93 OFFCURVE",
"399 -85 OFFCURVE",
"399 -57 CURVE SMOOTH",
"399 -32 OFFCURVE",
"426 -11 OFFCURVE",
"446 0 CURVE",
"435 0 LINE",
"542 27 OFFCURVE",
"609 107 OFFCURVE",
"609 218 CURVE SMOOTH",
"609 686 LINE"
);
}
);
};
components = (
{
name = U;
},
{
name = ogonekcomb;
transform = "{1, 0, 0, 1, 589, 0}";
}
);
layerId = "4FE665F2-115E-4010-81D6-04A4227E19CC";
width = 673;
},
{
background = {
paths = (
{
closed = 1;
nodes = (
"425 686 LINE",
"425 221 LINE SMOOTH",
"425 177 OFFCURVE",
"389 146 OFFCURVE",
"344 146 CURVE SMOOTH",
"299 146 OFFCURVE",
"263 177 OFFCURVE",
"263 221 CURVE SMOOTH",
"263 686 LINE",
"52 686 LINE",
"52 218 LINE SMOOTH",
"52 79 OFFCURVE",
"159 -10 OFFCURVE",
"322 -10 CURVE SMOOTH",
"365 -10 LINE",
"345 -25 OFFCURVE",
"325 -45 OFFCURVE",
"325 -71 CURVE SMOOTH",
"325 -126 OFFCURVE",
"376 -143 OFFCURVE",
"422 -143 CURVE SMOOTH",
"459 -143 OFFCURVE",
"494 -135 OFFCURVE",
"526 -119 CURVE",
"513 -76 LINE",
"492 -84 OFFCURVE",
"469 -90 OFFCURVE",
"446 -90 CURVE SMOOTH",
"425 -90 OFFCURVE",
"402 -83 OFFCURVE",
"402 -56 CURVE SMOOTH",
"402 -30 OFFCURVE",
"427 -14 OFFCURVE",
"446 -2 CURVE",
"563 23 OFFCURVE",
"635 104 OFFCURVE",
"635 218 CURVE SMOOTH",
"635 686 LINE"
);
}
);
};
components = (
{
name = U;
},
{
name = ogonekcomb;
transform = "{1, 0, 0, 1, 597, 0}";
}
);
layerId = "B61048DD-A105-4E1B-AF86-BB1631F6D87A";
width = 687;
}
);
leftKerningGroup = H;
note = Uogonek;
rightKerningGroup = H;
unicode = 0172;
},
{
glyphname = V;
layers = (
{
layerId = "86BFE29D-DE3A-4B42-8FD7-32CE7A5DD9A0";
paths = (
{
closed = 1;
nodes = (
"249 0 LINE",
"354 0 LINE",
"598 686 LINE",
"503 686 LINE",
"309 133 LINE",
"303 133 LINE",
"110 686 LINE",
"5 686 LINE"
);
}
);
width = 603;
},
{
layerId = "F84504BD-929B-4EC5-838D-CC63F45B30C5";
paths = (
{
closed = 1;
nodes = (
"278 0 LINE",
"326 0 LINE",
"585 686 LINE",
"532 686 LINE",
"307 86 LINE",
"302 86 LINE",
"77 686 LINE",
"18 686 LINE"
);
}
);
width = 603;
},
{
layerId = "4FE665F2-115E-4010-81D6-04A4227E19CC";
paths = (
{
closed = 1;
nodes = (
"232 0 LINE",
"409 0 LINE",
"635 686 LINE",
"487 686 LINE",
"330 196 LINE",
"325 196 LINE",
"169 686 LINE",
"7 686 LINE"
);
}
);
width = 643;
},
{
layerId = "B61048DD-A105-4E1B-AF86-BB1631F6D87A";
paths = (
{
closed = 1;
nodes = (
"202 0 LINE",
"452 0 LINE",
"660 686 LINE",
"458 686 LINE",
"339 260 LINE",
"335 260 LINE",
"215 686 LINE",
"-3 686 LINE"
);
}
);
width = 656;
}
);
leftKerningGroup = V;
note = V;
rightKerningGroup = V;
unicode = 0056;
},
{
glyphname = W;
layers = (
{
anchors = (
{
name = top;
position = "{457, 686}";
}
);
layerId = "86BFE29D-DE3A-4B42-8FD7-32CE7A5DD9A0";
paths = (
{
closed = 1;
nodes = (
"210 0 LINE",
"310 0 LINE",
"455 496 LINE",
"462 496 LINE",
"602 0 LINE",
"702 0 LINE",
"903 686 LINE",
"808 686 LINE",
"662 169 LINE",
"656 169 LINE",
"511 686 LINE",
"416 686 LINE",
"270 169 LINE",
"264 169 LINE",
"119 686 LINE",
"14 686 LINE"
);
}
);
width = 916;
},
{
anchors = (
{
name = top;
position = "{460, 686}";
}
);
layerId = "F84504BD-929B-4EC5-838D-CC63F45B30C5";
paths = (
{
closed = 1;
nodes = (
"241 0 LINE",
"287 0 LINE",
"456 581 LINE",
"460 581 LINE",
"629 0 LINE",
"675 0 LINE",
"875 686 LINE",
"825 686 LINE",
"658 107 LINE",
"654 107 LINE",
"487 686 LINE",
"437 686 LINE",
"270 107 LINE",
"266 107 LINE",
"99 686 LINE",
"41 686 LINE"
);
}
);
width = 916;
},
{
anchors = (
{
name = top;
position = "{485, 686}";
}
);
layerId = "4FE665F2-115E-4010-81D6-04A4227E19CC";
paths = (
{
closed = 1;
nodes = (
"199 0 LINE",
"370 0 LINE",
"484 412 LINE",
"490 412 LINE",
"602 0 LINE",
"771 0 LINE",
"964 686 LINE",
"818 686 LINE",
"697 237 LINE",
"692 237 LINE",
"571 686 LINE",
"416 686 LINE",
"294 237 LINE",
"289 237 LINE",
"168 686 LINE",
"7 686 LINE"
);
}
);
width = 972;
},
{
anchors = (
{
name = top;
position = "{511, 686}";
}
);
layerId = "B61048DD-A105-4E1B-AF86-BB1631F6D87A";
paths = (
{
closed = 1;
nodes = (
"185 0 LINE",
"427 0 LINE",
"510 329 LINE",
"516 329 LINE",
"599 0 LINE",
"837 0 LINE",
"1023 686 LINE",
"826 686 LINE",
"729 305 LINE",
"725 305 LINE",
"629 686 LINE",
"414 686 LINE",
"316 305 LINE",
"312 305 LINE",
"215 686 LINE",
"-2 686 LINE"
);
}
);
width = 1021;
}
);
leftKerningGroup = V;
note = W;
rightKerningGroup = V;
unicode = 0057;
},
{
glyphname = X;
layers = (
{
background = {
paths = (
{
closed = 1;
nodes = (
"32 685 LINE",
"259 355 LINE",
"9 0 LINE",
"118 0 LINE",
"313 276 LINE",
"503 0 LINE",
"621 0 LINE",
"372 361 LINE",
"599 685 LINE",
"490 685 LINE",
"318 440 LINE",
"150 685 LINE"
);
}
);
};
layerId = "86BFE29D-DE3A-4B42-8FD7-32CE7A5DD9A0";
paths = (
{
closed = 1;
nodes = (
"32 685 LINE",
"259 355 LINE",
"9 0 LINE",
"118 0 LINE",
"311 275 LINE",
"315 275 LINE",
"503 0 LINE",
"621 0 LINE",
"372 361 LINE",
"599 685 LINE",
"490 685 LINE",
"320 441 LINE",
"316 441 LINE",
"150 685 LINE"
);
}
);
width = 631;
},
{
layerId = "F84504BD-929B-4EC5-838D-CC63F45B30C5";
paths = (
{
closed = 1;
nodes = (
"52 686 LINE",
"284 359 LINE",
"29 0 LINE",
"88 0 LINE",
"312 315 LINE",
"314 315 LINE",
"536 0 LINE",
"601 0 LINE",
"346 359 LINE",
"579 686 LINE",
"520 686 LINE",
"318 402 LINE",
"316 402 LINE",
"117 686 LINE"
);
}
);
width = 631;
},
{
layerId = "4FE665F2-115E-4010-81D6-04A4227E19CC";
paths = (
{
closed = 1;
nodes = (
"22 686 LINE",
"232 360 LINE",
"0 0 LINE",
"167 0 LINE",
"321 245 LINE",
"325 245 LINE",
"477 0 LINE",
"658 0 LINE",
"426 362 LINE",
"637 686 LINE",
"470 686 LINE",
"337 476 LINE",
"333 476 LINE",
"203 686 LINE"
);
}
);
width = 658;
},
{
layerId = "B61048DD-A105-4E1B-AF86-BB1631F6D87A";
paths = (
{
closed = 1;
nodes = (
"7 686 LINE",
"200 363 LINE",
"-15 0 LINE",
"211 0 LINE",
"326 213 LINE",
"330 213 LINE",
"446 0 LINE",
"690 0 LINE",
"475 362 LINE",
"669 686 LINE",
"444 686 LINE",
"349 511 LINE",
"345 511 LINE",
"250 686 LINE"
);
}
);
width = 675;
}
);
leftKerningGroup = X;
note = X;
rightKerningGroup = X;
unicode = 0058;
},
{
glyphname = Y;
layers = (
{
anchors = (
{
name = bottom;
position = "{292, 0}";
},
{
name = top;
position = "{294, 686}";
}
);
layerId = "86BFE29D-DE3A-4B42-8FD7-32CE7A5DD9A0";
paths = (
{
closed = 1;
nodes = (
"-5 686 LINE",
"237 265 LINE",
"237 0 LINE",
"335 0 LINE",
"335 265 LINE",
"576 686 LINE",
"475 686 LINE",
"294 367 LINE",
"290 367 LINE",
"107 686 LINE"
);
}
);
width = 572;
},
{
anchors = (
{
name = bottom;
position = "{287, 0}";
},
{
name = top;
position = "{289, 686}";
}
);
layerId = "F84504BD-929B-4EC5-838D-CC63F45B30C5";
paths = (
{
closed = 1;
nodes = (
"12 686 LINE",
"258 266 LINE",
"258 0 LINE",
"312 0 LINE",
"312 266 LINE",
"558 686 LINE",
"503 686 LINE",
"289 321 LINE",
"286 321 LINE",
"75 686 LINE"
);
}
);
width = 572;
},
{
anchors = (
{
name = bottom;
position = "{326, 0}";
},
{
name = top;
position = "{328, 686}";
}
);
layerId = "4FE665F2-115E-4010-81D6-04A4227E19CC";
paths = (
{
closed = 1;
nodes = (
"7 686 LINE",
"242 263 LINE",
"242 0 LINE",
"396 0 LINE",
"396 263 LINE",
"630 686 LINE",
"472 686 LINE",
"329 414 LINE",
"324 414 LINE",
"181 686 LINE"
);
}
);
width = 637;
},
{
anchors = (
{
name = bottom;
position = "{332, 0}";
},
{
name = top;
position = "{334, 686}";
}
);
layerId = "B61048DD-A105-4E1B-AF86-BB1631F6D87A";
paths = (
{
closed = 1;
nodes = (
"-9 686 LINE",
"219 262 LINE",
"219 0 LINE",
"428 0 LINE",
"428 262 LINE",
"655 686 LINE",
"440 686 LINE",
"335 461 LINE",
"330 461 LINE",
"227 686 LINE"
);
}
);
width = 646;
}
);
leftKerningGroup = Y;
note = Y;
rightKerningGroup = Y;
unicode = 0059;
},
{
glyphname = Z;
layers = (
{
anchors = (
{
name = top;
position = "{300, 686}";
}
);
layerId = "86BFE29D-DE3A-4B42-8FD7-32CE7A5DD9A0";
paths = (
{
closed = 1;
nodes = (
"56 597 LINE",
"397 597 LINE",
"32 38 LINE",
"32 0 LINE",
"555 0 LINE",
"555 89 LINE",
"181 89 LINE",
"547 648 LINE",
"547 686 LINE",
"56 686 LINE"
);
}
);
width = 596;
},
{
anchors = (
{
name = top;
position = "{305, 686}";
}
);
layerId = "F84504BD-929B-4EC5-838D-CC63F45B30C5";
paths = (
{
closed = 1;
nodes = (
"71 638 LINE",
"460 638 LINE",
"47 25 LINE",
"47 0 LINE",
"550 0 LINE",
"550 48 LINE",
"128 48 LINE",
"542 662 LINE",
"542 686 LINE",
"71 686 LINE"
);
}
);
width = 596;
},
{
anchors = (
{
name = top;
position = "{326, 686}";
}
);
layerId = "4FE665F2-115E-4010-81D6-04A4227E19CC";
paths = (
{
closed = 1;
nodes = (
"66 563 LINE",
"358 563 LINE",
"42 49 LINE",
"42 0 LINE",
"589 0 LINE",
"589 123 LINE",
"266 123 LINE",
"581 636 LINE",
"581 686 LINE",
"66 686 LINE"
);
}
);
width = 631;
},
{
anchors = (
{
name = top;
position = "{316, 686}";
}
);
layerId = "B61048DD-A105-4E1B-AF86-BB1631F6D87A";
paths = (
{
closed = 1;
nodes = (
"38 526 LINE",
"282 526 LINE",
"14 61 LINE",
"14 0 LINE",
"585 0 LINE",
"585 161 LINE",
"314 161 LINE",
"577 625 LINE",
"577 686 LINE",
"38 686 LINE"
);
}
);
width = 608;
}
);
leftKerningGroup = Z;
note = Z;
rightKerningGroup = Z;
unicode = 005A;
},
{
glyphname = a;
layers = (
{
anchors = (
{
name = bottom;
position = "{264, 0}";
},
{
name = ogonek;
position = "{495, 0}";
},
{
name = top;
position = "{276, 511}";
}
);
layerId = "86BFE29D-DE3A-4B42-8FD7-32CE7A5DD9A0";
paths = (
{
closed = 1;
nodes = (
"275 521 LINE SMOOTH",
"156 521 OFFCURVE",
"65 458 OFFCURVE",
"65 387 CURVE SMOOTH",
"65 372 OFFCURVE",
"66 361 OFFCURVE",
"67 354 CURVE",
"159 354 LINE",
"159 366 LINE SMOOTH",
"159 417 OFFCURVE",
"201 446 OFFCURVE",
"273 446 CURVE SMOOTH",
"344 446 OFFCURVE",
"390 425 OFFCURVE",
"390 354 CURVE SMOOTH",
"390 307 LINE",
"133 307 OFFCURVE",
"48 263 OFFCURVE",
"48 142 CURVE SMOOTH",
"48 35 OFFCURVE",
"105 -10 OFFCURVE",
"215 -10 CURVE SMOOTH",
"294 -10 OFFCURVE",
"353 21 OFFCURVE",
"394 82 CURVE",
"397 29 OFFCURVE",
"421 -10 OFFCURVE",
"481 -10 CURVE SMOOTH",
"510 -10 OFFCURVE",
"536 -3 OFFCURVE",
"558 10 CURVE",
"558 79 LINE",
"543 70 OFFCURVE",
"528 65 OFFCURVE",
"512 65 CURVE SMOOTH",
"497 65 OFFCURVE",
"484 75 OFFCURVE",
"484 100 CURVE SMOOTH",
"484 365 LINE SMOOTH",
"484 465 OFFCURVE",
"420 521 OFFCURVE",
"284 521 CURVE SMOOTH"
);
},
{
closed = 1;
nodes = (
"390 214 LINE SMOOTH",
"390 122 OFFCURVE",
"321 65 OFFCURVE",
"247 65 CURVE SMOOTH",
"177 65 OFFCURVE",
"142 88 OFFCURVE",
"142 134 CURVE SMOOTH",
"142 202 OFFCURVE",
"175 234 OFFCURVE",
"390 234 CURVE"
);
}
);
width = 585;
},
{
anchors = (
{
name = bottom;
position = "{266, 0}";
},
{
name = ogonek;
position = "{479, 0}";
},
{
name = top;
position = "{278, 511}";
}
);
background = {
paths = (
{
closed = 1;
nodes = (
"457 370 LINE SMOOTH",
"457 473 OFFCURVE",
"397 521 OFFCURVE",
"273 521 CURVE SMOOTH",
"163 521 OFFCURVE",
"76 471 OFFCURVE",
"76 381 CURVE SMOOTH",
"76 372 OFFCURVE",
"77 363 OFFCURVE",
"78 355 CURVE",
"127 355 LINE",
"127 371 LINE SMOOTH",
"127 446 OFFCURVE",
"191 475 OFFCURVE",
"273 475 CURVE SMOOTH",
"368 475 OFFCURVE",
"406 447 OFFCURVE",
"406 360 CURVE SMOOTH",
"406 296 LINE",
"204 296 OFFCURVE",
"58 282 OFFCURVE",
"58 133 CURVE SMOOTH",
"58 20 OFFCURVE",
"137 -10 OFFCURVE",
"219 -10 CURVE SMOOTH",
"301 -10 OFFCURVE",
"364 19 OFFCURVE",
"406 89 CURVE",
"406 34 OFFCURVE",
"419 -10 OFFCURVE",
"470 -10 CURVE SMOOTH",
"494 -10 OFFCURVE",
"516 -3 OFFCURVE",
"534 9 CURVE",
"534 52 LINE",
"519 43 OFFCURVE",
"499 36 OFFCURVE",
"484 36 CURVE SMOOTH",
"469 36 OFFCURVE",
"457 45 OFFCURVE",
"457 69 CURVE SMOOTH"
);
},
{
closed = 1;
nodes = (
"406 216 LINE SMOOTH",
"406 92 OFFCURVE",
"315 36 OFFCURVE",
"229 36 CURVE SMOOTH",
"144 36 OFFCURVE",
"109 66 OFFCURVE",
"109 132 CURVE SMOOTH",
"109 243 OFFCURVE",
"226 250 OFFCURVE",
"406 250 CURVE"
);
}
);
};
layerId = "F84504BD-929B-4EC5-838D-CC63F45B30C5";
paths = (
{
closed = 1;
nodes = (
"273 521 LINE SMOOTH",
"163 521 OFFCURVE",
"76 471 OFFCURVE",
"76 381 CURVE SMOOTH",
"76 372 OFFCURVE",
"77 363 OFFCURVE",
"78 355 CURVE",
"127 355 LINE",
"127 371 LINE SMOOTH",
"127 446 OFFCURVE",
"191 475 OFFCURVE",
"273 475 CURVE SMOOTH",
"368 475 OFFCURVE",
"406 447 OFFCURVE",
"406 360 CURVE SMOOTH",
"406 296 LINE",
"204 296 OFFCURVE",
"58 282 OFFCURVE",
"58 133 CURVE SMOOTH",
"58 20 OFFCURVE",
"137 -10 OFFCURVE",
"219 -10 CURVE SMOOTH",
"301 -10 OFFCURVE",
"364 19 OFFCURVE",
"406 89 CURVE",
"406 34 OFFCURVE",
"419 -10 OFFCURVE",
"470 -10 CURVE SMOOTH",
"494 -10 OFFCURVE",
"516 -3 OFFCURVE",
"534 9 CURVE",
"534 52 LINE",
"519 43 OFFCURVE",
"499 36 OFFCURVE",
"484 36 CURVE SMOOTH",
"469 36 OFFCURVE",
"457 45 OFFCURVE",
"457 69 CURVE SMOOTH",
"457 370 LINE SMOOTH",
"457 472 OFFCURVE",
"397 521 OFFCURVE",
"277 521 CURVE SMOOTH"
);
},
{
closed = 1;
nodes = (
"406 216 LINE SMOOTH",
"406 92 OFFCURVE",
"315 36 OFFCURVE",
"229 36 CURVE SMOOTH",
"144 36 OFFCURVE",
"109 66 OFFCURVE",
"109 132 CURVE SMOOTH",
"109 243 OFFCURVE",
"226 250 OFFCURVE",
"406 250 CURVE"
);
}
);
width = 585;
},
{
anchors = (
{
name = bottom;
position = "{279, 0}";
},
{
name = ogonek;
position = "{517, 0}";
},
{
name = top;
position = "{291, 511}";
}
);
layerId = "4FE665F2-115E-4010-81D6-04A4227E19CC";
paths = (
{
closed = 1;
nodes = (
"281 521 LINE SMOOTH",
"147 521 OFFCURVE",
"56 458 OFFCURVE",
"56 372 CURVE SMOOTH",
"56 365 OFFCURVE",
"57 360 OFFCURVE",
"58 354 CURVE",
"199 354 LINE",
"199 362 LINE SMOOTH",
"199 385 OFFCURVE",
"229 421 OFFCURVE",
"288 421 CURVE SMOOTH",
"356 421 OFFCURVE",
"379 387 OFFCURVE",
"379 345 CURVE SMOOTH",
"379 311 LINE",
"174 311 OFFCURVE",
"40 286 OFFCURVE",
"40 139 CURVE SMOOTH",
"40 11 OFFCURVE",
"132 -10 OFFCURVE",
"214 -10 CURVE SMOOTH",
"296 -10 OFFCURVE",
"351 33 OFFCURVE",
"386 76 CURVE",
"392 24 OFFCURVE",
"428 -10 OFFCURVE",
"504 -10 CURVE SMOOTH",
"554 -10 OFFCURVE",
"585 7 OFFCURVE",
"592 11 CURVE",
"592 101 LINE",
"586 98 OFFCURVE",
"566 90 OFFCURVE",
"551 90 CURVE SMOOTH",
"537 90 OFFCURVE",
"522 100 OFFCURVE",
"522 126 CURVE SMOOTH",
"522 362 LINE SMOOTH",
"522 457 OFFCURVE",
"450 521 OFFCURVE",
"302 521 CURVE SMOOTH"
);
},
{
closed = 1;
nodes = (
"379 202 LINE SMOOTH",
"379 134 OFFCURVE",
"316 90 OFFCURVE",
"266 90 CURVE SMOOTH",
"217 90 OFFCURVE",
"191 105 OFFCURVE",
"191 150 CURVE SMOOTH",
"191 208 OFFCURVE",
"256 229 OFFCURVE",
"379 229 CURVE"
);
}
);
width = 598;
},
{
anchors = (
{
name = bottom;
position = "{283, 0}";
},
{
name = ogonek;
position = "{532, 0}";
},
{
name = top;
position = "{295, 511}";
}
);
layerId = "B61048DD-A105-4E1B-AF86-BB1631F6D87A";
paths = (
{
closed = 1;
nodes = (
"279 521 LINE SMOOTH",
"131 521 OFFCURVE",
"39 453 OFFCURVE",
"39 368 CURVE SMOOTH",
"39 362 OFFCURVE",
"39 357 OFFCURVE",
"40 354 CURVE",
"230 354 LINE",
"230 358 LINE SMOOTH",
"230 386 OFFCURVE",
"265 405 OFFCURVE",
"294 405 CURVE SMOOTH",
"330 405 OFFCURVE",
"359 384 OFFCURVE",
"359 345 CURVE SMOOTH",
"359 316 LINE",
"151 316 OFFCURVE",
"24 285 OFFCURVE",
"24 143 CURVE SMOOTH",
"24 7 OFFCURVE",
"121 -10 OFFCURVE",
"204 -10 CURVE SMOOTH",
"286 -10 OFFCURVE",
"334 31 OFFCURVE",
"369 71 CURVE",
"380 23 OFFCURVE",
"427 -10 OFFCURVE",
"516 -10 CURVE SMOOTH",
"568 -10 OFFCURVE",
"599 0 OFFCURVE",
"617 13 CURVE",
"617 120 LINE",
"606 114 OFFCURVE",
"594 111 OFFCURVE",
"582 111 CURVE SMOOTH",
"567 111 OFFCURVE",
"551 121 OFFCURVE",
"551 148 CURVE SMOOTH",
"551 359 LINE SMOOTH",
"551 451 OFFCURVE",
"473 521 OFFCURVE",
"312 521 CURVE SMOOTH"
);
},
{
closed = 1;
nodes = (
"359 181 LINE SMOOTH",
"359 138 OFFCURVE",
"327 111 OFFCURVE",
"291 111 CURVE SMOOTH",
"260 111 OFFCURVE",
"231 120 OFFCURVE",
"231 159 CURVE SMOOTH",
"231 198 OFFCURVE",
"267 225 OFFCURVE",
"359 225 CURVE"
);
}
);
width = 624;
}
);
leftKerningGroup = a;
note = a;
rightKerningGroup = a;
unicode = 0061;
},
{
glyphname = aacute;
layers = (
{
background = {
paths = (
{
closed = 1;
nodes = (
"430 720 LINE",
"340 720 LINE",
"246 575 LINE",
"315 575 LINE",
"431 717 LINE"
);
},
{
closed = 1;
nodes = (
"275 521 LINE SMOOTH",
"156 521 OFFCURVE",
"65 458 OFFCURVE",
"65 387 CURVE SMOOTH",
"65 372 OFFCURVE",
"66 361 OFFCURVE",
"67 354 CURVE",
"159 354 LINE",
"159 366 LINE SMOOTH",
"159 417 OFFCURVE",
"201 446 OFFCURVE",
"273 446 CURVE SMOOTH",
"344 446 OFFCURVE",
"390 425 OFFCURVE",
"390 354 CURVE SMOOTH",
"390 307 LINE",
"133 307 OFFCURVE",
"48 263 OFFCURVE",
"48 142 CURVE SMOOTH",
"48 35 OFFCURVE",
"105 -10 OFFCURVE",
"215 -10 CURVE SMOOTH",
"294 -10 OFFCURVE",
"353 21 OFFCURVE",
"394 82 CURVE",
"397 29 OFFCURVE",
"421 -10 OFFCURVE",
"481 -10 CURVE SMOOTH",
"510 -10 OFFCURVE",
"536 -3 OFFCURVE",
"558 10 CURVE",
"558 79 LINE",
"543 70 OFFCURVE",
"528 65 OFFCURVE",
"512 65 CURVE SMOOTH",
"497 65 OFFCURVE",
"484 75 OFFCURVE",
"484 100 CURVE SMOOTH",
"484 365 LINE SMOOTH",
"484 465 OFFCURVE",
"420 521 OFFCURVE",
"284 521 CURVE SMOOTH"
);
},
{
closed = 1;
nodes = (
"390 214 LINE SMOOTH",
"390 122 OFFCURVE",
"321 65 OFFCURVE",
"247 65 CURVE SMOOTH",
"177 65 OFFCURVE",
"142 88 OFFCURVE",
"142 134 CURVE SMOOTH",
"142 202 OFFCURVE",
"175 234 OFFCURVE",
"390 234 CURVE"
);
}
);
};
components = (
{
name = a;
},
{
name = acutecomb;
transform = "{1, 0, 0, 1, 497, 0}";
}
);
layerId = "86BFE29D-DE3A-4B42-8FD7-32CE7A5DD9A0";
width = 585;
},
{
background = {
paths = (
{
closed = 1;
nodes = (
"251 575 LINE",
"301 575 LINE",
"412 717 LINE",
"412 720 LINE",
"347 720 LINE"
);
},
{
closed = 1;
nodes = (
"447 370 LINE SMOOTH",
"447 473 OFFCURVE",
"387 521 OFFCURVE",
"263 521 CURVE SMOOTH",
"153 521 OFFCURVE",
"66 471 OFFCURVE",
"66 381 CURVE SMOOTH",
"66 372 OFFCURVE",
"67 363 OFFCURVE",
"68 355 CURVE",
"117 355 LINE",
"117 371 LINE SMOOTH",
"117 446 OFFCURVE",
"181 475 OFFCURVE",
"263 475 CURVE SMOOTH",
"358 475 OFFCURVE",
"396 447 OFFCURVE",
"396 360 CURVE SMOOTH",
"396 296 LINE",
"194 296 OFFCURVE",
"48 282 OFFCURVE",
"48 133 CURVE SMOOTH",
"48 20 OFFCURVE",
"127 -10 OFFCURVE",
"209 -10 CURVE SMOOTH",
"291 -10 OFFCURVE",
"354 19 OFFCURVE",
"396 89 CURVE",
"396 34 OFFCURVE",
"409 -10 OFFCURVE",
"460 -10 CURVE SMOOTH",
"484 -10 OFFCURVE",
"506 -3 OFFCURVE",
"524 9 CURVE",
"524 52 LINE",
"509 43 OFFCURVE",
"489 36 OFFCURVE",
"474 36 CURVE SMOOTH",
"459 36 OFFCURVE",
"447 45 OFFCURVE",
"447 69 CURVE SMOOTH"
);
},
{
closed = 1;
nodes = (
"396 216 LINE SMOOTH",
"396 92 OFFCURVE",
"305 36 OFFCURVE",
"219 36 CURVE SMOOTH",
"134 36 OFFCURVE",
"99 66 OFFCURVE",
"99 132 CURVE SMOOTH",
"99 243 OFFCURVE",
"216 250 OFFCURVE",
"396 250 CURVE"
);
}
);
};
components = (
{
name = a;
},
{
name = acutecomb;
transform = "{1, 0, 0, 1, 481, 0}";
}
);
layerId = "F84504BD-929B-4EC5-838D-CC63F45B30C5";
width = 585;
},
{
background = {
paths = (
{
closed = 1;
nodes = (
"246 575 LINE",
"347 575 LINE",
"468 717 LINE",
"467 720 LINE",
"338 720 LINE"
);
},
{
closed = 1;
nodes = (
"379 311 LINE",
"174 311 OFFCURVE",
"40 286 OFFCURVE",
"40 139 CURVE SMOOTH",
"40 11 OFFCURVE",
"132 -10 OFFCURVE",
"214 -10 CURVE SMOOTH",
"296 -10 OFFCURVE",
"351 33 OFFCURVE",
"386 76 CURVE",
"392 24 OFFCURVE",
"428 -10 OFFCURVE",
"504 -10 CURVE SMOOTH",
"554 -10 OFFCURVE",
"585 7 OFFCURVE",
"592 11 CURVE",
"592 101 LINE",
"586 98 OFFCURVE",
"566 90 OFFCURVE",
"551 90 CURVE SMOOTH",
"537 90 OFFCURVE",
"522 100 OFFCURVE",
"522 126 CURVE SMOOTH",
"522 362 LINE SMOOTH",
"522 457 OFFCURVE",
"450 521 OFFCURVE",
"302 521 CURVE SMOOTH",
"281 521 LINE SMOOTH",
"147 521 OFFCURVE",
"56 458 OFFCURVE",
"56 372 CURVE SMOOTH",
"56 365 OFFCURVE",
"57 360 OFFCURVE",
"58 354 CURVE",
"199 354 LINE",
"199 362 LINE SMOOTH",
"199 385 OFFCURVE",
"229 421 OFFCURVE",
"288 421 CURVE SMOOTH",
"356 421 OFFCURVE",
"379 387 OFFCURVE",
"379 345 CURVE SMOOTH"
);
},
{
closed = 1;
nodes = (
"379 202 LINE SMOOTH",
"379 134 OFFCURVE",
"316 90 OFFCURVE",
"266 90 CURVE SMOOTH",
"217 90 OFFCURVE",
"191 105 OFFCURVE",
"191 150 CURVE SMOOTH",
"191 208 OFFCURVE",
"256 229 OFFCURVE",
"379 229 CURVE"
);
}
);
};
components = (
{
name = a;
},
{
name = acutecomb;
transform = "{1, 0, 0, 1, 515, 0}";
}
);
layerId = "4FE665F2-115E-4010-81D6-04A4227E19CC";
width = 598;
},
{
background = {
paths = (
{
closed = 1;
nodes = (
"489 717 LINE",
"487 720 LINE",
"336 720 LINE",
"245 575 LINE",
"363 575 LINE"
);
},
{
closed = 1;
nodes = (
"279 521 LINE SMOOTH",
"131 521 OFFCURVE",
"39 453 OFFCURVE",
"39 368 CURVE SMOOTH",
"39 362 OFFCURVE",
"39 357 OFFCURVE",
"40 354 CURVE",
"230 354 LINE",
"230 358 LINE SMOOTH",
"230 386 OFFCURVE",
"265 405 OFFCURVE",
"294 405 CURVE SMOOTH",
"330 405 OFFCURVE",
"359 384 OFFCURVE",
"359 345 CURVE SMOOTH",
"359 316 LINE",
"151 316 OFFCURVE",
"24 285 OFFCURVE",
"24 143 CURVE SMOOTH",
"24 7 OFFCURVE",
"121 -10 OFFCURVE",
"204 -10 CURVE SMOOTH",
"286 -10 OFFCURVE",
"334 31 OFFCURVE",
"369 71 CURVE",
"380 23 OFFCURVE",
"427 -10 OFFCURVE",
"516 -10 CURVE SMOOTH",
"568 -10 OFFCURVE",
"599 0 OFFCURVE",
"617 13 CURVE",
"617 120 LINE",
"606 114 OFFCURVE",
"594 111 OFFCURVE",
"582 111 CURVE SMOOTH",
"567 111 OFFCURVE",
"551 121 OFFCURVE",
"551 148 CURVE SMOOTH",
"551 359 LINE SMOOTH",
"551 451 OFFCURVE",
"473 521 OFFCURVE",
"312 521 CURVE SMOOTH"
);
},
{
closed = 1;
nodes = (
"359 181 LINE SMOOTH",
"359 138 OFFCURVE",
"327 111 OFFCURVE",
"291 111 CURVE SMOOTH",
"260 111 OFFCURVE",
"231 120 OFFCURVE",
"231 159 CURVE SMOOTH",
"231 198 OFFCURVE",
"267 225 OFFCURVE",
"359 225 CURVE"
);
}
);
};
components = (
{
name = a;
},
{
name = acutecomb;
transform = "{1, 0, 0, 1, 526, 0}";
}
);
layerId = "B61048DD-A105-4E1B-AF86-BB1631F6D87A";
width = 624;
}
);
leftKerningGroup = a;
note = aacute;
rightKerningGroup = a;
unicode = 00E1;
},
{
glyphname = agrave;
layers = (
{
background = {
paths = (
{
closed = 1;
nodes = (
"219 720 LINE",
"130 720 LINE",
"129 717 LINE",
"244 575 LINE",
"314 575 LINE"
);
},
{
closed = 1;
nodes = (
"275 521 LINE SMOOTH",
"156 521 OFFCURVE",
"65 458 OFFCURVE",
"65 387 CURVE SMOOTH",
"65 372 OFFCURVE",
"66 361 OFFCURVE",
"67 354 CURVE",
"159 354 LINE",
"159 366 LINE SMOOTH",
"159 417 OFFCURVE",
"201 446 OFFCURVE",
"273 446 CURVE SMOOTH",
"344 446 OFFCURVE",
"390 425 OFFCURVE",
"390 354 CURVE SMOOTH",
"390 307 LINE",
"133 307 OFFCURVE",
"48 263 OFFCURVE",
"48 142 CURVE SMOOTH",
"48 35 OFFCURVE",
"105 -10 OFFCURVE",
"215 -10 CURVE SMOOTH",
"294 -10 OFFCURVE",
"353 21 OFFCURVE",
"394 82 CURVE",
"397 29 OFFCURVE",
"421 -10 OFFCURVE",
"481 -10 CURVE SMOOTH",
"510 -10 OFFCURVE",
"536 -3 OFFCURVE",
"558 10 CURVE",
"558 79 LINE",
"543 70 OFFCURVE",
"528 65 OFFCURVE",
"512 65 CURVE SMOOTH",
"497 65 OFFCURVE",
"484 75 OFFCURVE",
"484 100 CURVE SMOOTH",
"484 365 LINE SMOOTH",
"484 465 OFFCURVE",
"420 521 OFFCURVE",
"284 521 CURVE SMOOTH"
);
},
{
closed = 1;
nodes = (
"390 214 LINE SMOOTH",
"390 122 OFFCURVE",
"321 65 OFFCURVE",
"247 65 CURVE SMOOTH",
"177 65 OFFCURVE",
"142 88 OFFCURVE",
"142 134 CURVE SMOOTH",
"142 202 OFFCURVE",
"175 234 OFFCURVE",
"390 234 CURVE"
);
}
);
};
components = (
{
name = a;
},
{
name = gravecomb;
transform = "{1, 0, 0, 1, 393, 0}";
}
);
layerId = "86BFE29D-DE3A-4B42-8FD7-32CE7A5DD9A0";
width = 585;
},
{
background = {
paths = (
{
closed = 1;
nodes = (
"250 575 LINE",
"300 575 LINE",
"204 720 LINE",
"139 720 LINE",
"139 717 LINE"
);
},
{
closed = 1;
nodes = (
"447 370 LINE SMOOTH",
"447 473 OFFCURVE",
"387 521 OFFCURVE",
"263 521 CURVE SMOOTH",
"153 521 OFFCURVE",
"66 471 OFFCURVE",
"66 381 CURVE SMOOTH",
"66 372 OFFCURVE",
"67 363 OFFCURVE",
"68 355 CURVE",
"117 355 LINE",
"117 371 LINE SMOOTH",
"117 446 OFFCURVE",
"181 475 OFFCURVE",
"263 475 CURVE SMOOTH",
"358 475 OFFCURVE",
"396 447 OFFCURVE",
"396 360 CURVE SMOOTH",
"396 296 LINE",
"194 296 OFFCURVE",
"48 282 OFFCURVE",
"48 133 CURVE SMOOTH",
"48 20 OFFCURVE",
"127 -10 OFFCURVE",
"209 -10 CURVE SMOOTH",
"291 -10 OFFCURVE",
"354 19 OFFCURVE",
"396 89 CURVE",
"396 34 OFFCURVE",
"409 -10 OFFCURVE",
"460 -10 CURVE SMOOTH",
"484 -10 OFFCURVE",
"506 -3 OFFCURVE",
"524 9 CURVE",
"524 52 LINE",
"509 43 OFFCURVE",
"489 36 OFFCURVE",
"474 36 CURVE SMOOTH",
"459 36 OFFCURVE",
"447 45 OFFCURVE",
"447 69 CURVE SMOOTH"
);
},
{
closed = 1;
nodes = (
"396 216 LINE SMOOTH",
"396 92 OFFCURVE",
"305 36 OFFCURVE",
"219 36 CURVE SMOOTH",
"134 36 OFFCURVE",
"99 66 OFFCURVE",
"99 132 CURVE SMOOTH",
"99 243 OFFCURVE",
"216 250 OFFCURVE",
"396 250 CURVE"
);
}
);
};
components = (
{
name = a;
},
{
name = gravecomb;
transform = "{1, 0, 0, 1, 413, 0}";
}
);
layerId = "F84504BD-929B-4EC5-838D-CC63F45B30C5";
width = 585;
},
{
background = {
paths = (
{
closed = 1;
nodes = (
"242 575 LINE",
"344 575 LINE",
"251 720 LINE",
"123 720 LINE",
"122 717 LINE"
);
},
{
closed = 1;
nodes = (
"379 311 LINE",
"174 311 OFFCURVE",
"40 286 OFFCURVE",
"40 139 CURVE SMOOTH",
"40 11 OFFCURVE",
"132 -10 OFFCURVE",
"214 -10 CURVE SMOOTH",
"296 -10 OFFCURVE",
"351 33 OFFCURVE",
"386 76 CURVE",
"392 24 OFFCURVE",
"428 -10 OFFCURVE",
"504 -10 CURVE SMOOTH",
"554 -10 OFFCURVE",
"585 7 OFFCURVE",
"592 11 CURVE",
"592 101 LINE",
"586 98 OFFCURVE",
"566 90 OFFCURVE",
"551 90 CURVE SMOOTH",
"537 90 OFFCURVE",
"522 100 OFFCURVE",
"522 126 CURVE SMOOTH",
"522 362 LINE SMOOTH",
"522 457 OFFCURVE",
"450 521 OFFCURVE",
"302 521 CURVE SMOOTH",
"281 521 LINE SMOOTH",
"147 521 OFFCURVE",
"56 458 OFFCURVE",
"56 372 CURVE SMOOTH",
"56 365 OFFCURVE",
"57 360 OFFCURVE",
"58 354 CURVE",
"199 354 LINE",
"199 362 LINE SMOOTH",
"199 385 OFFCURVE",
"229 421 OFFCURVE",
"288 421 CURVE SMOOTH",
"356 421 OFFCURVE",
"379 387 OFFCURVE",
"379 345 CURVE SMOOTH"
);
},
{
closed = 1;
nodes = (
"379 202 LINE SMOOTH",
"379 134 OFFCURVE",
"316 90 OFFCURVE",
"266 90 CURVE SMOOTH",
"217 90 OFFCURVE",
"191 105 OFFCURVE",
"191 150 CURVE SMOOTH",
"191 208 OFFCURVE",
"256 229 OFFCURVE",
"379 229 CURVE"
);
}
);
};
components = (
{
name = a;
},
{
name = gravecomb;
transform = "{1, 0, 0, 1, 404, 0}";
}
);
layerId = "4FE665F2-115E-4010-81D6-04A4227E19CC";
width = 598;
},
{
background = {
paths = (
{
closed = 1;
nodes = (
"358 575 LINE",
"267 720 LINE",
"116 720 LINE",
"114 717 LINE",
"240 575 LINE"
);
},
{
closed = 1;
nodes = (
"279 521 LINE SMOOTH",
"131 521 OFFCURVE",
"39 453 OFFCURVE",
"39 368 CURVE SMOOTH",
"39 362 OFFCURVE",
"39 357 OFFCURVE",
"40 354 CURVE",
"230 354 LINE",
"230 358 LINE SMOOTH",
"230 386 OFFCURVE",
"265 405 OFFCURVE",
"294 405 CURVE SMOOTH",
"330 405 OFFCURVE",
"359 384 OFFCURVE",
"359 345 CURVE SMOOTH",
"359 316 LINE",
"151 316 OFFCURVE",
"24 285 OFFCURVE",
"24 143 CURVE SMOOTH",
"24 7 OFFCURVE",
"121 -10 OFFCURVE",
"204 -10 CURVE SMOOTH",
"286 -10 OFFCURVE",
"334 31 OFFCURVE",
"369 71 CURVE",
"380 23 OFFCURVE",
"427 -10 OFFCURVE",
"516 -10 CURVE SMOOTH",
"568 -10 OFFCURVE",
"599 0 OFFCURVE",
"617 13 CURVE",
"617 120 LINE",
"606 114 OFFCURVE",
"594 111 OFFCURVE",
"582 111 CURVE SMOOTH",
"567 111 OFFCURVE",
"551 121 OFFCURVE",
"551 148 CURVE SMOOTH",
"551 359 LINE SMOOTH",
"551 451 OFFCURVE",
"473 521 OFFCURVE",
"312 521 CURVE SMOOTH"
);
},
{
closed = 1;
nodes = (
"359 181 LINE SMOOTH",
"359 138 OFFCURVE",
"327 111 OFFCURVE",
"291 111 CURVE SMOOTH",
"260 111 OFFCURVE",
"231 120 OFFCURVE",
"231 159 CURVE SMOOTH",
"231 198 OFFCURVE",
"267 225 OFFCURVE",
"359 225 CURVE"
);
}
);
};
components = (
{
name = a;
},
{
name = gravecomb;
transform = "{1, 0, 0, 1, 405, 0}";
}
);
layerId = "B61048DD-A105-4E1B-AF86-BB1631F6D87A";
width = 624;
}
);
leftKerningGroup = a;
note = agrave;
rightKerningGroup = a;
unicode = 00E0;
},
{
glyphname = ae;
layers = (
{
anchors = (
{
name = top;
position = "{457, 511}";
}
);
layerId = "86BFE29D-DE3A-4B42-8FD7-32CE7A5DD9A0";
paths = (
{
closed = 1;
nodes = (
"620 521 LINE SMOOTH",
"551 521 OFFCURVE",
"497 500 OFFCURVE",
"457 457 CURVE",
"426 500 OFFCURVE",
"368 521 OFFCURVE",
"284 521 CURVE SMOOTH",
"275 521 LINE SMOOTH",
"156 521 OFFCURVE",
"65 458 OFFCURVE",
"65 387 CURVE SMOOTH",
"65 372 OFFCURVE",
"66 361 OFFCURVE",
"67 354 CURVE",
"159 354 LINE",
"159 366 LINE SMOOTH",
"159 417 OFFCURVE",
"201 446 OFFCURVE",
"273 446 CURVE SMOOTH",
"344 446 OFFCURVE",
"390 425 OFFCURVE",
"390 354 CURVE SMOOTH",
"390 307 LINE",
"133 307 OFFCURVE",
"48 263 OFFCURVE",
"48 142 CURVE SMOOTH",
"48 35 OFFCURVE",
"105 -10 OFFCURVE",
"215 -10 CURVE SMOOTH",
"295 -10 OFFCURVE",
"378 29 OFFCURVE",
"423 101 CURVE",
"463 29 OFFCURVE",
"534 -10 OFFCURVE",
"623 -10 CURVE SMOOTH",
"627 -10 LINE SMOOTH",
"754 -10 OFFCURVE",
"841 71 OFFCURVE",
"841 190 CURVE",
"752 190 LINE",
"752 130 OFFCURVE",
"720 65 OFFCURVE",
"629 65 CURVE SMOOTH",
"533 65 OFFCURVE",
"487 128 OFFCURVE",
"484 234 CURVE",
"841 234 LINE",
"841 305 LINE SMOOTH",
"841 439 OFFCURVE",
"752 521 OFFCURVE",
"627 521 CURVE SMOOTH"
);
},
{
closed = 1;
nodes = (
"698 446 OFFCURVE",
"748 400 OFFCURVE",
"748 307 CURVE",
"486 307 LINE",
"497 400 OFFCURVE",
"547 446 OFFCURVE",
"622 446 CURVE SMOOTH"
);
},
{
closed = 1;
nodes = (
"390 214 LINE SMOOTH",
"390 122 OFFCURVE",
"321 65 OFFCURVE",
"247 65 CURVE SMOOTH",
"177 65 OFFCURVE",
"142 88 OFFCURVE",
"142 134 CURVE SMOOTH",
"142 202 OFFCURVE",
"175 234 OFFCURVE",
"390 234 CURVE"
);
}
);
width = 895;
},
{
anchors = (
{
name = top;
position = "{446, 511}";
}
);
layerId = "F84504BD-929B-4EC5-838D-CC63F45B30C5";
paths = (
{
closed = 1;
nodes = (
"618 521 LINE SMOOTH",
"546 521 OFFCURVE",
"486 489 OFFCURVE",
"448 430 CURVE",
"427 491 OFFCURVE",
"370 521 OFFCURVE",
"277 521 CURVE SMOOTH",
"273 521 LINE SMOOTH",
"163 521 OFFCURVE",
"76 471 OFFCURVE",
"76 381 CURVE SMOOTH",
"76 372 OFFCURVE",
"77 363 OFFCURVE",
"78 355 CURVE",
"127 355 LINE",
"127 371 LINE SMOOTH",
"127 446 OFFCURVE",
"191 475 OFFCURVE",
"273 475 CURVE SMOOTH",
"368 475 OFFCURVE",
"406 447 OFFCURVE",
"406 360 CURVE SMOOTH",
"406 296 LINE",
"204 296 OFFCURVE",
"58 282 OFFCURVE",
"58 133 CURVE SMOOTH",
"58 20 OFFCURVE",
"137 -10 OFFCURVE",
"219 -10 CURVE SMOOTH",
"298 -10 OFFCURVE",
"392 23 OFFCURVE",
"429 118 CURVE",
"463 35 OFFCURVE",
"532 -10 OFFCURVE",
"619 -10 CURVE SMOOTH",
"624 -10 LINE SMOOTH",
"730 -10 OFFCURVE",
"819 63 OFFCURVE",
"819 189 CURVE",
"769 189 LINE",
"769 84 OFFCURVE",
"699 36 OFFCURVE",
"620 36 CURVE SMOOTH",
"520 36 OFFCURVE",
"457 110 OFFCURVE",
"457 250 CURVE",
"819 250 LINE",
"819 314 LINE SMOOTH",
"819 446 OFFCURVE",
"730 521 OFFCURVE",
"622 521 CURVE SMOOTH"
);
},
{
closed = 1;
nodes = (
"713 475 OFFCURVE",
"769 417 OFFCURVE",
"769 296 CURVE",
"458 296 LINE",
"466 416 OFFCURVE",
"533 475 OFFCURVE",
"619 475 CURVE SMOOTH"
);
},
{
closed = 1;
nodes = (
"406 216 LINE SMOOTH",
"406 92 OFFCURVE",
"315 36 OFFCURVE",
"229 36 CURVE SMOOTH",
"144 36 OFFCURVE",
"109 66 OFFCURVE",
"109 132 CURVE SMOOTH",
"109 243 OFFCURVE",
"226 250 OFFCURVE",
"406 250 CURVE"
);
}
);
width = 891;
},
{
anchors = (
{
name = top;
position = "{467, 511}";
}
);
layerId = "4FE665F2-115E-4010-81D6-04A4227E19CC";
paths = (
{
closed = 1;
nodes = (
"626 521 LINE SMOOTH",
"565 521 OFFCURVE",
"510 504 OFFCURVE",
"469 472 CURVE",
"434 503 OFFCURVE",
"379 521 OFFCURVE",
"302 521 CURVE SMOOTH",
"281 521 LINE SMOOTH",
"147 521 OFFCURVE",
"56 458 OFFCURVE",
"56 372 CURVE SMOOTH",
"56 365 OFFCURVE",
"57 360 OFFCURVE",
"58 354 CURVE",
"199 354 LINE",
"199 362 LINE SMOOTH",
"199 383 OFFCURVE",
"219 425 OFFCURVE",
"288 425 CURVE SMOOTH",
"360 425 OFFCURVE",
"379 387 OFFCURVE",
"379 349 CURVE SMOOTH",
"379 311 LINE",
"174 311 OFFCURVE",
"40 286 OFFCURVE",
"40 139 CURVE SMOOTH",
"40 11 OFFCURVE",
"139 -10 OFFCURVE",
"221 -10 CURVE SMOOTH",
"304 -10 OFFCURVE",
"385 23 OFFCURVE",
"430 79 CURVE",
"475 21 OFFCURVE",
"546 -10 OFFCURVE",
"631 -10 CURVE SMOOTH",
"641 -10 LINE SMOOTH",
"782 -10 OFFCURVE",
"872 73 OFFCURVE",
"872 191 CURVE",
"736 191 LINE",
"736 150 OFFCURVE",
"717 88 OFFCURVE",
"637 88 CURVE SMOOTH",
"555 88 OFFCURVE",
"528 146 OFFCURVE",
"528 231 CURVE",
"873 231 LINE",
"873 298 LINE SMOOTH",
"873 431 OFFCURVE",
"784 521 OFFCURVE",
"642 521 CURVE SMOOTH"
);
},
{
closed = 1;
nodes = (
"689 423 OFFCURVE",
"729 386 OFFCURVE",
"729 311 CURVE",
"529 311 LINE",
"534 378 OFFCURVE",
"569 423 OFFCURVE",
"632 423 CURVE SMOOTH"
);
},
{
closed = 1;
nodes = (
"379 197 LINE SMOOTH",
"379 129 OFFCURVE",
"327 88 OFFCURVE",
"273 88 CURVE SMOOTH",
"224 88 OFFCURVE",
"191 102 OFFCURVE",
"191 150 CURVE SMOOTH",
"191 208 OFFCURVE",
"256 229 OFFCURVE",
"379 229 CURVE"
);
}
);
width = 918;
},
{
anchors = (
{
name = top;
position = "{471, 511}";
}
);
layerId = "B61048DD-A105-4E1B-AF86-BB1631F6D87A";
paths = (
{
closed = 1;
nodes = (
"623 521 LINE SMOOTH",
"566 521 OFFCURVE",
"515 510 OFFCURVE",
"472 487 CURVE",
"433 508 OFFCURVE",
"380 521 OFFCURVE",
"311 521 CURVE SMOOTH",
"278 521 LINE SMOOTH",
"130 521 OFFCURVE",
"38 453 OFFCURVE",
"38 368 CURVE SMOOTH",
"38 362 OFFCURVE",
"38 357 OFFCURVE",
"39 354 CURVE",
"229 354 LINE",
"229 358 LINE SMOOTH",
"229 386 OFFCURVE",
"264 405 OFFCURVE",
"293 405 CURVE SMOOTH",
"329 405 OFFCURVE",
"358 384 OFFCURVE",
"358 345 CURVE SMOOTH",
"358 316 LINE",
"150 316 OFFCURVE",
"23 285 OFFCURVE",
"23 143 CURVE SMOOTH",
"23 7 OFFCURVE",
"135 -10 OFFCURVE",
"217 -10 CURVE SMOOTH",
"305 -10 OFFCURVE",
"382 18 OFFCURVE",
"427 58 CURVE",
"478 14 OFFCURVE",
"549 -10 OFFCURVE",
"630 -10 CURVE SMOOTH",
"645 -10 LINE SMOOTH",
"803 -10 OFFCURVE",
"894 79 OFFCURVE",
"894 192 CURVE",
"711 192 LINE",
"711 143 OFFCURVE",
"687 111 OFFCURVE",
"639 111 CURVE SMOOTH",
"573 111 OFFCURVE",
"562 166 OFFCURVE",
"562 229 CURVE",
"895 229 LINE",
"895 291 LINE SMOOTH",
"895 424 OFFCURVE",
"805 521 OFFCURVE",
"648 521 CURVE SMOOTH"
);
},
{
closed = 1;
nodes = (
"671 400 OFFCURVE",
"700 374 OFFCURVE",
"700 316 CURVE",
"562 316 LINE",
"562 371 OFFCURVE",
"589 400 OFFCURVE",
"631 400 CURVE SMOOTH"
);
},
{
closed = 1;
nodes = (
"358 181 LINE SMOOTH",
"358 138 OFFCURVE",
"326 111 OFFCURVE",
"290 111 CURVE SMOOTH",
"259 111 OFFCURVE",
"230 120 OFFCURVE",
"230 159 CURVE SMOOTH",
"230 198 OFFCURVE",
"266 225 OFFCURVE",
"358 225 CURVE"
);
}
);
width = 924;
}
);
leftKerningGroup = a;
note = ae;
rightKerningGroup = e;
unicode = 00E6;
},
{
glyphname = b;
layers = (
{
background = {
paths = (
{
closed = 1;
nodes = (
"261 521 OFFCURVE",
"206 487 OFFCURVE",
"177 446 CURVE",
"177 720 LINE",
"83 720 LINE",
"83 0 LINE",
"119 0 LINE",
"152 81 LINE",
"191 20 OFFCURVE",
"248 -10 OFFCURVE",
"324 -10 CURVE SMOOTH",
"452 -10 OFFCURVE",
"531 90 OFFCURVE",
"531 256 CURVE SMOOTH",
"531 267 LINE SMOOTH",
"531 420 OFFCURVE",
"457 521 OFFCURVE",
"325 521 CURVE SMOOTH"
);
},
{
closed = 1;
nodes = (
"392 446 OFFCURVE",
"437 387 OFFCURVE",
"437 255 CURVE SMOOTH",
"437 128 OFFCURVE",
"393 65 OFFCURVE",
"306 65 CURVE SMOOTH",
"219 65 OFFCURVE",
"176 123 OFFCURVE",
"176 255 CURVE SMOOTH",
"176 385 OFFCURVE",
"217 446 OFFCURVE",
"306 446 CURVE SMOOTH"
);
}
);
};
layerId = "86BFE29D-DE3A-4B42-8FD7-32CE7A5DD9A0";
paths = (
{
closed = 1;
nodes = (
"261 521 OFFCURVE",
"206 487 OFFCURVE",
"177 446 CURVE",
"177 720 LINE",
"83 720 LINE",
"83 0 LINE",
"119 0 LINE",
"152 81 LINE",
"191 20 OFFCURVE",
"248 -10 OFFCURVE",
"324 -10 CURVE SMOOTH",
"452 -10 OFFCURVE",
"531 90 OFFCURVE",
"531 256 CURVE SMOOTH",
"531 267 LINE SMOOTH",
"531 420 OFFCURVE",
"457 521 OFFCURVE",
"325 521 CURVE SMOOTH"
);
},
{
closed = 1;
nodes = (
"390 446 OFFCURVE",
"437 386 OFFCURVE",
"437 262 CURVE SMOOTH",
"437 253 LINE SMOOTH",
"437 128 OFFCURVE",
"393 65 OFFCURVE",
"306 65 CURVE SMOOTH",
"219 65 OFFCURVE",
"176 124 OFFCURVE",
"176 253 CURVE SMOOTH",
"176 258 LINE SMOOTH",
"176 385 OFFCURVE",
"218 446 OFFCURVE",
"306 446 CURVE SMOOTH"
);
}
);
width = 583;
},
{
layerId = "F84504BD-929B-4EC5-838D-CC63F45B30C5";
paths = (
{
closed = 1;
nodes = (
"235 521 OFFCURVE",
"177 490 OFFCURVE",
"144 440 CURVE",
"144 720 LINE",
"93 720 LINE",
"93 0 LINE",
"114 0 LINE",
"133 85 LINE",
"171 21 OFFCURVE",
"229 -10 OFFCURVE",
"307 -10 CURVE SMOOTH",
"419 -10 OFFCURVE",
"510 70 OFFCURVE",
"510 260 CURVE SMOOTH",
"510 271 LINE SMOOTH",
"510 433 OFFCURVE",
"419 521 OFFCURVE",
"307 521 CURVE SMOOTH"
);
},
{
closed = 1;
nodes = (
"389 475 OFFCURVE",
"459 412 OFFCURVE",
"459 269 CURVE SMOOTH",
"459 258 LINE SMOOTH",
"459 92 OFFCURVE",
"389 36 OFFCURVE",
"302 36 CURVE SMOOTH",
"216 36 OFFCURVE",
"143 88 OFFCURVE",
"143 257 CURVE SMOOTH",
"143 269 LINE SMOOTH",
"143 413 OFFCURVE",
"215 475 OFFCURVE",
"302 475 CURVE SMOOTH"
);
}
);
width = 580;
},
{
layerId = "4FE665F2-115E-4010-81D6-04A4227E19CC";
paths = (
{
closed = 1;
nodes = (
"285 521 OFFCURVE",
"237 485 OFFCURVE",
"212 452 CURVE",
"212 720 LINE",
"66 720 LINE",
"66 0 LINE",
"119 0 LINE",
"170 78 LINE",
"208 21 OFFCURVE",
"266 -10 OFFCURVE",
"340 -10 CURVE SMOOTH",
"457 -10 OFFCURVE",
"552 73 OFFCURVE",
"552 253 CURVE SMOOTH",
"552 264 LINE SMOOTH",
"552 435 OFFCURVE",
"464 521 OFFCURVE",
"355 521 CURVE SMOOTH"
);
},
{
closed = 1;
nodes = (
"362 415 OFFCURVE",
"404 375 OFFCURVE",
"404 294 CURVE SMOOTH",
"404 211 LINE SMOOTH",
"404 130 OFFCURVE",
"362 90 OFFCURVE",
"308 90 CURVE SMOOTH",
"254 90 OFFCURVE",
"212 130 OFFCURVE",
"212 211 CURVE SMOOTH",
"212 294 LINE SMOOTH",
"212 375 OFFCURVE",
"254 415 OFFCURVE",
"308 415 CURVE SMOOTH"
);
}
);
width = 595;
},
{
layerId = "B61048DD-A105-4E1B-AF86-BB1631F6D87A";
paths = (
{
closed = 1;
nodes = (
"312 521 OFFCURVE",
"267 482 OFFCURVE",
"248 458 CURVE",
"248 720 LINE",
"50 720 LINE",
"50 0 LINE",
"120 0 LINE",
"188 75 LINE",
"227 20 OFFCURVE",
"284 -10 OFFCURVE",
"356 -10 CURVE SMOOTH",
"476 -10 OFFCURVE",
"573 75 OFFCURVE",
"573 250 CURVE SMOOTH",
"573 261 LINE SMOOTH",
"573 436 OFFCURVE",
"487 521 OFFCURVE",
"380 521 CURVE SMOOTH"
);
},
{
closed = 1;
nodes = (
"345 396 OFFCURVE",
"372 365 OFFCURVE",
"372 326 CURVE SMOOTH",
"372 181 LINE SMOOTH",
"372 142 OFFCURVE",
"345 111 OFFCURVE",
"310 111 CURVE SMOOTH",
"275 111 OFFCURVE",
"248 142 OFFCURVE",
"248 181 CURVE SMOOTH",
"248 326 LINE SMOOTH",
"248 365 OFFCURVE",
"275 396 OFFCURVE",
"310 396 CURVE SMOOTH"
);
}
);
width = 601;
}
);
leftKerningGroup = h;
note = b;
rightKerningGroup = o;
unicode = 0062;
},
{
glyphname = c;
layers = (
{
anchors = (
{
name = bottom;
position = "{280, 0}";
},
{
name = top;
position = "{283, 511}";
}
);
layerId = "86BFE29D-DE3A-4B42-8FD7-32CE7A5DD9A0";
paths = (
{
closed = 1;
nodes = (
"275 521 LINE SMOOTH",
"141 521 OFFCURVE",
"51 420 OFFCURVE",
"51 267 CURVE SMOOTH",
"51 243 LINE SMOOTH",
"51 91 OFFCURVE",
"138 -10 OFFCURVE",
"276 -10 CURVE SMOOTH",
"284 -10 LINE SMOOTH",
"411 -10 OFFCURVE",
"495 71 OFFCURVE",
"495 200 CURVE",
"405 200 LINE",
"405 121 OFFCURVE",
"367 65 OFFCURVE",
"283 65 CURVE SMOOTH",
"198 65 OFFCURVE",
"145 118 OFFCURVE",
"145 237 CURVE SMOOTH",
"145 291 LINE SMOOTH",
"145 388 OFFCURVE",
"198 446 OFFCURVE",
"280 446 CURVE SMOOTH",
"361 446 OFFCURVE",
"402 390 OFFCURVE",
"402 310 CURVE",
"495 310 LINE",
"495 437 OFFCURVE",
"406 521 OFFCURVE",
"283 521 CURVE SMOOTH"
);
}
);
width = 544;
},
{
anchors = (
{
name = bottom;
position = "{263, 0}";
},
{
name = top;
position = "{266, 511}";
}
);
background = {
paths = (
{
closed = 1;
nodes = (
"139 521 OFFCURVE",
"52 428 OFFCURVE",
"52 263 CURVE SMOOTH",
"52 248 LINE SMOOTH",
"52 83 OFFCURVE",
"140 -10 OFFCURVE",
"266 -10 CURVE SMOOTH",
"378 -10 OFFCURVE",
"465 64 OFFCURVE",
"465 197 CURVE",
"415 197 LINE",
"415 86 OFFCURVE",
"347 36 OFFCURVE",
"266 36 CURVE SMOOTH",
"174 36 OFFCURVE",
"103 103 OFFCURVE",
"103 242 CURVE SMOOTH",
"103 269 LINE SMOOTH",
"103 408 OFFCURVE",
"173 475 OFFCURVE",
"265 475 CURVE SMOOTH",
"347 475 OFFCURVE",
"415 423 OFFCURVE",
"415 314 CURVE",
"465 314 LINE",
"465 447 OFFCURVE",
"377 521 OFFCURVE",
"265 521 CURVE SMOOTH"
);
}
);
};
layerId = "F84504BD-929B-4EC5-838D-CC63F45B30C5";
paths = (
{
closed = 1;
nodes = (
"284 521 LINE SMOOTH",
"159 521 OFFCURVE",
"72 427 OFFCURVE",
"72 263 CURVE SMOOTH",
"72 248 LINE SMOOTH",
"72 84 OFFCURVE",
"160 -10 OFFCURVE",
"284 -10 CURVE SMOOTH",
"287 -10 LINE SMOOTH",
"398 -10 OFFCURVE",
"485 64 OFFCURVE",
"485 197 CURVE",
"435 197 LINE",
"435 86 OFFCURVE",
"367 36 OFFCURVE",
"286 36 CURVE SMOOTH",
"194 36 OFFCURVE",
"123 103 OFFCURVE",
"123 242 CURVE SMOOTH",
"123 269 LINE SMOOTH",
"123 408 OFFCURVE",
"193 475 OFFCURVE",
"285 475 CURVE SMOOTH",
"367 475 OFFCURVE",
"435 423 OFFCURVE",
"435 314 CURVE",
"485 314 LINE",
"485 447 OFFCURVE",
"397 521 OFFCURVE",
"286 521 CURVE SMOOTH"
);
}
);
width = 548;
},
{
anchors = (
{
name = bottom;
position = "{290, 0}";
},
{
name = top;
position = "{293, 511}";
}
);
layerId = "4FE665F2-115E-4010-81D6-04A4227E19CC";
paths = (
{
closed = 1;
nodes = (
"287 521 LINE SMOOTH",
"146 521 OFFCURVE",
"43 429 OFFCURVE",
"43 270 CURVE SMOOTH",
"43 241 LINE SMOOTH",
"43 82 OFFCURVE",
"139 -10 OFFCURVE",
"287 -10 CURVE SMOOTH",
"303 -10 LINE SMOOTH",
"418 -10 OFFCURVE",
"524 55 OFFCURVE",
"524 203 CURVE",
"386 203 LINE",
"386 127 OFFCURVE",
"347 90 OFFCURVE",
"287 90 CURVE SMOOTH",
"226 90 OFFCURVE",
"191 142 OFFCURVE",
"191 207 CURVE SMOOTH",
"191 296 LINE SMOOTH",
"191 365 OFFCURVE",
"226 421 OFFCURVE",
"288 421 CURVE SMOOTH",
"350 421 OFFCURVE",
"379 373 OFFCURVE",
"379 307 CURVE",
"524 307 LINE",
"524 444 OFFCURVE",
"419 521 OFFCURVE",
"303 521 CURVE SMOOTH"
);
}
);
width = 567;
},
{
anchors = (
{
name = bottom;
position = "{290, 0}";
},
{
name = top;
position = "{293, 511}";
}
);
layerId = "B61048DD-A105-4E1B-AF86-BB1631F6D87A";
paths = (
{
closed = 1;
nodes = (
"276 521 LINE SMOOTH",
"141 521 OFFCURVE",
"26 411 OFFCURVE",
"26 276 CURVE SMOOTH",
"26 235 LINE SMOOTH",
"26 100 OFFCURVE",
"143 -10 OFFCURVE",
"278 -10 CURVE SMOOTH",
"307 -10 LINE SMOOTH",
"451 -10 OFFCURVE",
"545 68 OFFCURVE",
"545 207 CURVE",
"387 207 LINE",
"387 133 OFFCURVE",
"368 111 OFFCURVE",
"309 111 CURVE SMOOTH",
"260 111 OFFCURVE",
"238 142 OFFCURVE",
"238 181 CURVE SMOOTH",
"238 330 LINE SMOOTH",
"238 369 OFFCURVE",
"268 400 OFFCURVE",
"307 400 CURVE SMOOTH",
"357 400 OFFCURVE",
"376 367 OFFCURVE",
"376 304 CURVE",
"545 304 LINE",
"545 428 OFFCURVE",
"458 521 OFFCURVE",
"306 521 CURVE SMOOTH"
);
}
);
width = 569;
}
);
leftKerningGroup = o;
note = c;
rightKerningGroup = c;
unicode = 0063;
},
{
glyphname = d;
layers = (
{
anchors = (
{
name = center;
position = "{419, 617}";
},
{
name = topright;
position = "{380, 400}";
}
);
background = {
paths = (
{
closed = 1;
nodes = (
"362 446 OFFCURVE",
"407 387 OFFCURVE",
"407 255 CURVE SMOOTH",
"407 128 OFFCURVE",
"363 65 OFFCURVE",
"276 65 CURVE SMOOTH",
"189 65 OFFCURVE",
"146 123 OFFCURVE",
"146 255 CURVE SMOOTH",
"146 385 OFFCURVE",
"187 446 OFFCURVE",
"276 446 CURVE SMOOTH"
);
}
);
};
layerId = "86BFE29D-DE3A-4B42-8FD7-32CE7A5DD9A0";
paths = (
{
closed = 1;
nodes = (
"127 521 OFFCURVE",
"52 421 OFFCURVE",
"52 267 CURVE SMOOTH",
"52 256 LINE SMOOTH",
"52 90 OFFCURVE",
"131 -10 OFFCURVE",
"259 -10 CURVE SMOOTH",
"326 -10 OFFCURVE",
"379 17 OFFCURVE",
"417 70 CURVE",
"430 0 LINE",
"500 0 LINE",
"500 720 LINE",
"406 720 LINE",
"406 446 LINE",
"371 496 OFFCURVE",
"322 521 OFFCURVE",
"259 521 CURVE SMOOTH"
);
},
{
closed = 1;
nodes = (
"361 446 OFFCURVE",
"407 387 OFFCURVE",
"407 259 CURVE SMOOTH",
"407 254 LINE SMOOTH",
"407 128 OFFCURVE",
"363 65 OFFCURVE",
"276 65 CURVE SMOOTH",
"189 65 OFFCURVE",
"146 124 OFFCURVE",
"146 254 CURVE SMOOTH",
"146 260 LINE SMOOTH",
"146 384 OFFCURVE",
"188 446 OFFCURVE",
"276 446 CURVE SMOOTH"
);
}
);
width = 583;
},
{
anchors = (
{
name = center;
position = "{423, 617}";
},
{
name = topright;
position = "{360, 469}";
}
);
layerId = "F84504BD-929B-4EC5-838D-CC63F45B30C5";
paths = (
{
closed = 1;
nodes = (
"163 521 OFFCURVE",
"72 433 OFFCURVE",
"72 271 CURVE SMOOTH",
"72 260 LINE SMOOTH",
"72 70 OFFCURVE",
"163 -10 OFFCURVE",
"275 -10 CURVE SMOOTH",
"350 -10 OFFCURVE",
"406 18 OFFCURVE",
"444 77 CURVE",
"455 0 LINE",
"489 0 LINE",
"489 720 LINE",
"438 720 LINE",
"438 440 LINE",
"405 490 OFFCURVE",
"347 521 OFFCURVE",
"275 521 CURVE SMOOTH"
);
},
{
closed = 1;
nodes = (
"367 475 OFFCURVE",
"439 413 OFFCURVE",
"439 269 CURVE SMOOTH",
"439 257 LINE SMOOTH",
"439 88 OFFCURVE",
"366 36 OFFCURVE",
"280 36 CURVE SMOOTH",
"193 36 OFFCURVE",
"123 92 OFFCURVE",
"123 258 CURVE SMOOTH",
"123 269 LINE SMOOTH",
"123 412 OFFCURVE",
"193 475 OFFCURVE",
"280 475 CURVE SMOOTH"
);
}
);
width = 583;
},
{
anchors = (
{
name = center;
position = "{411, 617}";
},
{
name = topright;
position = "{380, 333}";
}
);
layerId = "4FE665F2-115E-4010-81D6-04A4227E19CC";
paths = (
{
closed = 1;
nodes = (
"131 521 OFFCURVE",
"43 435 OFFCURVE",
"43 264 CURVE SMOOTH",
"43 253 LINE SMOOTH",
"43 73 OFFCURVE",
"138 -10 OFFCURVE",
"255 -10 CURVE SMOOTH",
"322 -10 OFFCURVE",
"367 22 OFFCURVE",
"399 64 CURVE",
"414 0 LINE",
"529 0 LINE",
"529 720 LINE",
"383 720 LINE",
"383 452 LINE",
"358 485 OFFCURVE",
"310 521 OFFCURVE",
"240 521 CURVE SMOOTH"
);
},
{
closed = 1;
nodes = (
"341 415 OFFCURVE",
"383 375 OFFCURVE",
"383 294 CURVE SMOOTH",
"383 211 LINE SMOOTH",
"383 130 OFFCURVE",
"341 90 OFFCURVE",
"287 90 CURVE SMOOTH",
"233 90 OFFCURVE",
"191 130 OFFCURVE",
"191 211 CURVE SMOOTH",
"191 294 LINE SMOOTH",
"191 375 OFFCURVE",
"233 415 OFFCURVE",
"287 415 CURVE SMOOTH"
);
}
);
width = 595;
},
{
anchors = (
{
name = center;
position = "{389, 617}";
},
{
name = topright;
position = "{357, 286}";
}
);
layerId = "B61048DD-A105-4E1B-AF86-BB1631F6D87A";
paths = (
{
closed = 1;
nodes = (
"114 521 OFFCURVE",
"28 436 OFFCURVE",
"28 261 CURVE SMOOTH",
"28 250 LINE SMOOTH",
"28 75 OFFCURVE",
"125 -10 OFFCURVE",
"246 -10 CURVE SMOOTH",
"307 -10 OFFCURVE",
"347 24 OFFCURVE",
"375 59 CURVE",
"393 0 LINE",
"551 0 LINE",
"551 720 LINE",
"353 720 LINE",
"353 458 LINE",
"332 493 OFFCURVE",
"292 521 OFFCURVE",
"221 521 CURVE SMOOTH"
);
},
{
closed = 1;
nodes = (
"326 396 OFFCURVE",
"353 365 OFFCURVE",
"353 326 CURVE SMOOTH",
"353 181 LINE SMOOTH",
"353 142 OFFCURVE",
"326 111 OFFCURVE",
"291 111 CURVE SMOOTH",
"256 111 OFFCURVE",
"229 142 OFFCURVE",
"229 181 CURVE SMOOTH",
"229 326 LINE SMOOTH",
"229 365 OFFCURVE",
"256 396 OFFCURVE",
"291 396 CURVE SMOOTH"
);
}
);
width = 601;
}
);
leftKerningGroup = o;
note = d;
rightKerningGroup = l;
unicode = 0064;
},
{
glyphname = eth;
layers = (
{
layerId = "86BFE29D-DE3A-4B42-8FD7-32CE7A5DD9A0";
paths = (
{
closed = 1;
nodes = (
"114 700 LINE",
"135 685 OFFCURVE",
"172 666 OFFCURVE",
"203 639 CURVE",
"109 595 LINE",
"145 562 LINE",
"236 605 LINE",
"267 576 OFFCURVE",
"295 547 OFFCURVE",
"319 518 CURVE",
"304 521 OFFCURVE",
"288 522 OFFCURVE",
"274 522 CURVE SMOOTH",
"147 522 OFFCURVE",
"52 421 OFFCURVE",
"52 274 CURVE SMOOTH",
"52 237 LINE SMOOTH",
"52 84 OFFCURVE",
"143 -10 OFFCURVE",
"285 -10 CURVE SMOOTH",
"295 -10 LINE SMOOTH",
"431 -10 OFFCURVE",
"522 88 OFFCURVE",
"522 237 CURVE SMOOTH",
"522 274 LINE SMOOTH",
"522 408 OFFCURVE",
"443 531 OFFCURVE",
"307 643 CURVE",
"394 683 LINE",
"362 717 LINE",
"268 673 LINE",
"235 695 OFFCURVE",
"203 714 OFFCURVE",
"173 729 CURVE"
);
},
{
closed = 1;
nodes = (
"378 446 OFFCURVE",
"428 380 OFFCURVE",
"428 265 CURVE SMOOTH",
"428 246 LINE SMOOTH",
"428 126 OFFCURVE",
"374 65 OFFCURVE",
"287 65 CURVE SMOOTH",
"196 65 OFFCURVE",
"146 131 OFFCURVE",
"146 246 CURVE SMOOTH",
"146 265 LINE SMOOTH",
"146 385 OFFCURVE",
"199 446 OFFCURVE",
"287 446 CURVE SMOOTH"
);
}
);
width = 575;
},
{
background = {
paths = (
{
closed = 1;
nodes = (
"131 707 LINE",
"155 691 OFFCURVE",
"188 669 OFFCURVE",
"223 642 CURVE",
"122 593 LINE",
"148 570 LINE",
"250 620 LINE",
"289 587 OFFCURVE",
"329 549 OFFCURVE",
"363 508 CURVE",
"335 518 OFFCURVE",
"308 522 OFFCURVE",
"282 522 CURVE SMOOTH",
"160 522 OFFCURVE",
"72 418 OFFCURVE",
"72 263 CURVE SMOOTH",
"72 248 LINE SMOOTH",
"72 83 OFFCURVE",
"162 -10 OFFCURVE",
"288 -10 CURVE SMOOTH",
"414 -10 OFFCURVE",
"504 83 OFFCURVE",
"504 248 CURVE SMOOTH",
"504 263 LINE SMOOTH",
"504 422 OFFCURVE",
"407 550 OFFCURVE",
"291 640 CURVE",
"390 688 LINE",
"367 711 LINE",
"263 661 LINE",
"231 684 OFFCURVE",
"198 705 OFFCURVE",
"168 724 CURVE"
);
},
{
closed = 1;
nodes = (
"380 475 OFFCURVE",
"453 408 OFFCURVE",
"453 269 CURVE SMOOTH",
"453 242 LINE SMOOTH",
"453 103 OFFCURVE",
"380 36 OFFCURVE",
"288 36 CURVE SMOOTH",
"196 36 OFFCURVE",
"123 103 OFFCURVE",
"123 242 CURVE SMOOTH",
"123 269 LINE SMOOTH",
"123 408 OFFCURVE",
"196 475 OFFCURVE",
"288 475 CURVE SMOOTH"
);
}
);
};
layerId = "F84504BD-929B-4EC5-838D-CC63F45B30C5";
paths = (
{
closed = 1;
nodes = (
"131 707 LINE",
"155 691 OFFCURVE",
"188 669 OFFCURVE",
"223 642 CURVE",
"122 593 LINE",
"148 570 LINE",
"250 620 LINE",
"289 587 OFFCURVE",
"329 549 OFFCURVE",
"363 508 CURVE",
"335 518 OFFCURVE",
"308 522 OFFCURVE",
"282 522 CURVE SMOOTH",
"160 522 OFFCURVE",
"72 418 OFFCURVE",
"72 263 CURVE SMOOTH",
"72 248 LINE SMOOTH",
"72 83 OFFCURVE",
"162 -10 OFFCURVE",
"286 -10 CURVE SMOOTH",
"291 -10 LINE SMOOTH",
"415 -10 OFFCURVE",
"504 85 OFFCURVE",
"504 248 CURVE SMOOTH",
"504 263 LINE SMOOTH",
"504 422 OFFCURVE",
"407 550 OFFCURVE",
"291 640 CURVE",
"390 688 LINE",
"367 711 LINE",
"263 661 LINE",
"231 684 OFFCURVE",
"198 705 OFFCURVE",
"168 724 CURVE"
);
},
{
closed = 1;
nodes = (
"380 475 OFFCURVE",
"453 408 OFFCURVE",
"453 269 CURVE SMOOTH",
"453 242 LINE SMOOTH",
"453 103 OFFCURVE",
"380 36 OFFCURVE",
"288 36 CURVE SMOOTH",
"196 36 OFFCURVE",
"123 103 OFFCURVE",
"123 242 CURVE SMOOTH",
"123 269 LINE SMOOTH",
"123 408 OFFCURVE",
"196 475 OFFCURVE",
"288 475 CURVE SMOOTH"
);
}
);
width = 576;
},
{
layerId = "4FE665F2-115E-4010-81D6-04A4227E19CC";
paths = (
{
closed = 1;
nodes = (
"110 692 LINE",
"136 680 OFFCURVE",
"168 660 OFFCURVE",
"195 637 CURVE",
"111 597 LINE",
"158 555 LINE",
"237 592 LINE",
"265 565 OFFCURVE",
"289 532 OFFCURVE",
"303 510 CURVE",
"290 516 OFFCURVE",
"275 517 OFFCURVE",
"262 517 CURVE SMOOTH",
"148 517 OFFCURVE",
"45 413 OFFCURVE",
"45 270 CURVE SMOOTH",
"45 241 LINE SMOOTH",
"45 82 OFFCURVE",
"154 -10 OFFCURVE",
"295 -10 CURVE SMOOTH",
"311 -10 LINE SMOOTH",
"452 -10 OFFCURVE",
"561 81 OFFCURVE",
"561 241 CURVE SMOOTH",
"561 270 LINE SMOOTH",
"561 416 OFFCURVE",
"462 552 OFFCURVE",
"344 646 CURVE",
"417 680 LINE",
"374 722 LINE",
"291 684 LINE",
"260 703 OFFCURVE",
"228 720 OFFCURVE",
"197 734 CURVE"
);
},
{
closed = 1;
nodes = (
"365 421 OFFCURVE",
"413 380 OFFCURVE",
"413 296 CURVE SMOOTH",
"413 215 LINE SMOOTH",
"413 131 OFFCURVE",
"365 90 OFFCURVE",
"303 90 CURVE SMOOTH",
"241 90 OFFCURVE",
"193 131 OFFCURVE",
"193 215 CURVE SMOOTH",
"193 296 LINE SMOOTH",
"193 380 OFFCURVE",
"241 421 OFFCURVE",
"303 421 CURVE SMOOTH"
);
}
);
width = 614;
},
{
layerId = "B61048DD-A105-4E1B-AF86-BB1631F6D87A";
paths = (
{
closed = 1;
nodes = (
"94 688 LINE",
"125 677 OFFCURVE",
"153 656 OFFCURVE",
"176 635 CURVE",
"101 600 LINE",
"160 549 LINE",
"226 580 LINE",
"252 553 OFFCURVE",
"283 524 OFFCURVE",
"294 506 CURVE",
"280 512 OFFCURVE",
"256 515 OFFCURVE",
"232 515 CURVE SMOOTH",
"105 515 OFFCURVE",
"26 392 OFFCURVE",
"26 266 CURVE SMOOTH",
"26 245 LINE SMOOTH",
"26 95 OFFCURVE",
"139 -10 OFFCURVE",
"291 -10 CURVE SMOOTH",
"323 -10 LINE SMOOTH",
"475 -10 OFFCURVE",
"588 93 OFFCURVE",
"588 245 CURVE SMOOTH",
"588 266 LINE SMOOTH",
"588 405 OFFCURVE",
"494 552 OFFCURVE",
"370 649 CURVE",
"429 677 LINE",
"374 728 LINE",
"303 695 LINE",
"272 713 OFFCURVE",
"241 728 OFFCURVE",
"209 739 CURVE"
);
},
{
closed = 1;
nodes = (
"346 400 OFFCURVE",
"376 369 OFFCURVE",
"376 330 CURVE SMOOTH",
"376 181 LINE SMOOTH",
"376 142 OFFCURVE",
"346 111 OFFCURVE",
"307 111 CURVE SMOOTH",
"268 111 OFFCURVE",
"238 142 OFFCURVE",
"238 181 CURVE SMOOTH",
"238 330 LINE SMOOTH",
"238 369 OFFCURVE",
"268 400 OFFCURVE",
"307 400 CURVE SMOOTH"
);
}
);
width = 615;
}
);
leftKerningGroup = eth;
note = eth;
rightKerningGroup = eth;
unicode = 00F0;
},
{
glyphname = dcaron;
layers = (
{
background = {
paths = (
{
closed = 1;
nodes = (
"500 720 LINE",
"406 720 LINE",
"406 446 LINE",
"371 496 OFFCURVE",
"322 521 OFFCURVE",
"259 521 CURVE SMOOTH",
"127 521 OFFCURVE",
"52 421 OFFCURVE",
"52 267 CURVE SMOOTH",
"52 256 LINE SMOOTH",
"52 90 OFFCURVE",
"131 -10 OFFCURVE",
"259 -10 CURVE SMOOTH",
"326 -10 OFFCURVE",
"379 17 OFFCURVE",
"417 70 CURVE",
"422 36 OFFCURVE",
"427 13 OFFCURVE",
"430 0 CURVE",
"500 0 LINE"
);
},
{
closed = 1;
nodes = (
"673 686 LINE",
"572 686 LINE",
"572 575 LINE",
"613 575 LINE",
"586 451 LINE",
"638 451 LINE",
"673 601 LINE"
);
},
{
closed = 1;
nodes = (
"362 446 OFFCURVE",
"407 387 OFFCURVE",
"407 255 CURVE SMOOTH",
"407 128 OFFCURVE",
"363 65 OFFCURVE",
"276 65 CURVE SMOOTH",
"189 65 OFFCURVE",
"146 123 OFFCURVE",
"146 255 CURVE SMOOTH",
"146 385 OFFCURVE",
"187 446 OFFCURVE",
"276 446 CURVE SMOOTH"
);
}
);
};
layerId = "86BFE29D-DE3A-4B42-8FD7-32CE7A5DD9A0";
paths = (
{
closed = 1;
nodes = (
"127 521 OFFCURVE",
"52 421 OFFCURVE",
"52 267 CURVE SMOOTH",
"52 256 LINE SMOOTH",
"52 90 OFFCURVE",
"131 -10 OFFCURVE",
"259 -10 CURVE SMOOTH",
"326 -10 OFFCURVE",
"379 17 OFFCURVE",
"417 70 CURVE",
"430 0 LINE",
"500 0 LINE",
"500 720 LINE",
"406 720 LINE",
"406 446 LINE",
"371 496 OFFCURVE",
"322 521 OFFCURVE",
"259 521 CURVE SMOOTH"
);
},
{
closed = 1;
nodes = (
"361 446 OFFCURVE",
"407 387 OFFCURVE",
"407 259 CURVE SMOOTH",
"407 254 LINE SMOOTH",
"407 128 OFFCURVE",
"363 65 OFFCURVE",
"276 65 CURVE SMOOTH",
"189 65 OFFCURVE",
"146 124 OFFCURVE",
"146 254 CURVE SMOOTH",
"146 260 LINE SMOOTH",
"146 384 OFFCURVE",
"188 446 OFFCURVE",
"276 446 CURVE SMOOTH"
);
},
{
closed = 1;
nodes = (
"637 450 LINE",
"672 600 LINE",
"672 685 LINE",
"571 685 LINE",
"571 574 LINE",
"612 574 LINE",
"585 450 LINE"
);
}
);
width = 653;
},
{
background = {
paths = (
{
closed = 1;
nodes = (
"455 0 LINE",
"489 0 LINE",
"489 720 LINE",
"438 720 LINE",
"438 440 LINE",
"405 490 OFFCURVE",
"347 521 OFFCURVE",
"275 521 CURVE SMOOTH",
"163 521 OFFCURVE",
"72 433 OFFCURVE",
"72 271 CURVE SMOOTH",
"72 260 LINE SMOOTH",
"72 70 OFFCURVE",
"163 -10 OFFCURVE",
"275 -10 CURVE SMOOTH",
"350 -10 OFFCURVE",
"406 18 OFFCURVE",
"444 77 CURVE"
);
},
{
closed = 1;
nodes = (
"587 516 LINE",
"617 628 LINE",
"617 686 LINE",
"552 686 LINE",
"552 617 LINE",
"576 617 LINE",
"576 617 OFFCURVE",
"554 516 OFFCURVE",
"553 516 CURVE"
);
},
{
closed = 1;
nodes = (
"439 257 LINE SMOOTH",
"439 88 OFFCURVE",
"366 36 OFFCURVE",
"280 36 CURVE SMOOTH",
"193 36 OFFCURVE",
"123 92 OFFCURVE",
"123 258 CURVE SMOOTH",
"123 269 LINE SMOOTH",
"123 412 OFFCURVE",
"193 475 OFFCURVE",
"280 475 CURVE SMOOTH",
"367 475 OFFCURVE",
"439 413 OFFCURVE",
"439 269 CURVE SMOOTH"
);
}
);
};
layerId = "F84504BD-929B-4EC5-838D-CC63F45B30C5";
paths = (
{
closed = 1;
nodes = (
"163 521 OFFCURVE",
"72 433 OFFCURVE",
"72 271 CURVE SMOOTH",
"72 260 LINE SMOOTH",
"72 70 OFFCURVE",
"163 -10 OFFCURVE",
"275 -10 CURVE SMOOTH",
"350 -10 OFFCURVE",
"406 18 OFFCURVE",
"444 77 CURVE",
"455 0 LINE",
"489 0 LINE",
"489 720 LINE",
"438 720 LINE",
"438 440 LINE",
"405 490 OFFCURVE",
"347 521 OFFCURVE",
"275 521 CURVE SMOOTH"
);
},
{
closed = 1;
nodes = (
"367 475 OFFCURVE",
"439 413 OFFCURVE",
"439 269 CURVE SMOOTH",
"439 257 LINE SMOOTH",
"439 88 OFFCURVE",
"366 36 OFFCURVE",
"280 36 CURVE SMOOTH",
"193 36 OFFCURVE",
"123 92 OFFCURVE",
"123 258 CURVE SMOOTH",
"123 269 LINE SMOOTH",
"123 412 OFFCURVE",
"193 475 OFFCURVE",
"280 475 CURVE SMOOTH"
);
},
{
closed = 1;
nodes = (
"587 514 LINE",
"617 626 LINE",
"617 684 LINE",
"552 684 LINE",
"552 615 LINE",
"576 615 LINE",
"553 514 LINE"
);
}
);
width = 593;
},
{
background = {
paths = (
{
closed = 1;
nodes = (
"414 0 LINE",
"529 0 LINE",
"529 720 LINE",
"383 720 LINE",
"383 452 LINE",
"358 485 OFFCURVE",
"310 521 OFFCURVE",
"240 521 CURVE SMOOTH",
"131 521 OFFCURVE",
"43 435 OFFCURVE",
"43 264 CURVE SMOOTH",
"43 253 LINE SMOOTH",
"43 73 OFFCURVE",
"138 -10 OFFCURVE",
"255 -10 CURVE SMOOTH",
"322 -10 OFFCURVE",
"367 22 OFFCURVE",
"399 64 CURVE"
);
},
{
closed = 1;
nodes = (
"688 395 LINE",
"730 563 LINE",
"730 686 LINE",
"584 686 LINE",
"584 539 LINE",
"647 539 LINE",
"636 491 OFFCURVE",
"625 443 OFFCURVE",
"615 395 CURVE"
);
},
{
closed = 1;
nodes = (
"191 294 LINE SMOOTH",
"191 375 OFFCURVE",
"233 415 OFFCURVE",
"287 415 CURVE SMOOTH",
"341 415 OFFCURVE",
"383 375 OFFCURVE",
"383 294 CURVE SMOOTH",
"383 211 LINE SMOOTH",
"383 130 OFFCURVE",
"341 90 OFFCURVE",
"287 90 CURVE SMOOTH",
"233 90 OFFCURVE",
"191 130 OFFCURVE",
"191 211 CURVE SMOOTH"
);
}
);
};
layerId = "4FE665F2-115E-4010-81D6-04A4227E19CC";
paths = (
{
closed = 1;
nodes = (
"131 521 OFFCURVE",
"43 435 OFFCURVE",
"43 264 CURVE SMOOTH",
"43 253 LINE SMOOTH",
"43 73 OFFCURVE",
"138 -10 OFFCURVE",
"255 -10 CURVE SMOOTH",
"322 -10 OFFCURVE",
"367 22 OFFCURVE",
"399 64 CURVE",
"414 0 LINE",
"529 0 LINE",
"529 720 LINE",
"383 720 LINE",
"383 452 LINE",
"358 485 OFFCURVE",
"310 521 OFFCURVE",
"240 521 CURVE SMOOTH"
);
},
{
closed = 1;
nodes = (
"341 415 OFFCURVE",
"383 375 OFFCURVE",
"383 294 CURVE SMOOTH",
"383 211 LINE SMOOTH",
"383 130 OFFCURVE",
"341 90 OFFCURVE",
"287 90 CURVE SMOOTH",
"233 90 OFFCURVE",
"191 130 OFFCURVE",
"191 211 CURVE SMOOTH",
"191 294 LINE SMOOTH",
"191 375 OFFCURVE",
"233 415 OFFCURVE",
"287 415 CURVE SMOOTH"
);
},
{
closed = 1;
nodes = (
"687 393 LINE",
"729 561 LINE",
"729 684 LINE",
"583 684 LINE",
"583 537 LINE",
"646 537 LINE",
"614 393 LINE"
);
}
);
width = 695;
},
{
background = {
paths = (
{
closed = 1;
nodes = (
"551 0 LINE",
"551 720 LINE",
"353 720 LINE",
"353 458 LINE",
"332 493 OFFCURVE",
"292 521 OFFCURVE",
"221 521 CURVE SMOOTH",
"114 521 OFFCURVE",
"28 436 OFFCURVE",
"28 261 CURVE SMOOTH",
"28 250 LINE SMOOTH",
"28 75 OFFCURVE",
"125 -10 OFFCURVE",
"246 -10 CURVE SMOOTH",
"307 -10 OFFCURVE",
"347 24 OFFCURVE",
"375 59 CURVE",
"393 0 LINE"
);
},
{
closed = 1;
nodes = (
"797 686 LINE",
"606 686 LINE",
"606 503 LINE",
"690 503 LINE",
"653 338 LINE",
"747 338 LINE",
"797 525 LINE"
);
},
{
closed = 1;
nodes = (
"326 396 OFFCURVE",
"353 365 OFFCURVE",
"353 326 CURVE SMOOTH",
"353 181 LINE SMOOTH",
"353 142 OFFCURVE",
"326 111 OFFCURVE",
"291 111 CURVE SMOOTH",
"256 111 OFFCURVE",
"229 142 OFFCURVE",
"229 181 CURVE SMOOTH",
"229 326 LINE SMOOTH",
"229 365 OFFCURVE",
"256 396 OFFCURVE",
"291 396 CURVE SMOOTH"
);
}
);
};
layerId = "B61048DD-A105-4E1B-AF86-BB1631F6D87A";
paths = (
{
closed = 1;
nodes = (
"114 521 OFFCURVE",
"28 436 OFFCURVE",
"28 261 CURVE SMOOTH",
"28 250 LINE SMOOTH",
"28 75 OFFCURVE",
"125 -10 OFFCURVE",
"246 -10 CURVE SMOOTH",
"307 -10 OFFCURVE",
"347 24 OFFCURVE",
"375 59 CURVE",
"393 0 LINE",
"551 0 LINE",
"551 720 LINE",
"353 720 LINE",
"353 458 LINE",
"332 493 OFFCURVE",
"292 521 OFFCURVE",
"221 521 CURVE SMOOTH"
);
},
{
closed = 1;
nodes = (
"326 396 OFFCURVE",
"353 365 OFFCURVE",
"353 326 CURVE SMOOTH",
"353 181 LINE SMOOTH",
"353 142 OFFCURVE",
"326 111 OFFCURVE",
"291 111 CURVE SMOOTH",
"256 111 OFFCURVE",
"229 142 OFFCURVE",
"229 181 CURVE SMOOTH",
"229 326 LINE SMOOTH",
"229 365 OFFCURVE",
"256 396 OFFCURVE",
"291 396 CURVE SMOOTH"
);
},
{
closed = 1;
nodes = (
"745 336 LINE",
"795 523 LINE",
"795 684 LINE",
"604 684 LINE",
"604 501 LINE",
"688 501 LINE",
"651 336 LINE"
);
}
);
width = 741;
}
);
leftKerningGroup = o;
note = dcaron;
rightKerningGroup = l;
unicode = 010F;
},
{
glyphname = e;
layers = (
{
anchors = (
{
name = bottom;
position = "{291, 0}";
},
{
name = ogonek;
position = "{319, 0}";
},
{
name = top;
position = "{287, 511}";
}
);
layerId = "86BFE29D-DE3A-4B42-8FD7-32CE7A5DD9A0";
paths = (
{
closed = 1;
nodes = (
"281 521 LINE SMOOTH",
"139 521 OFFCURVE",
"51 417 OFFCURVE",
"51 265 CURVE SMOOTH",
"51 245 LINE SMOOTH",
"51 91 OFFCURVE",
"139 -10 OFFCURVE",
"284 -10 CURVE SMOOTH",
"288 -10 LINE SMOOTH",
"413 -10 OFFCURVE",
"502 69 OFFCURVE",
"502 190 CURVE",
"413 190 LINE",
"413 130 OFFCURVE",
"381 65 OFFCURVE",
"290 65 CURVE SMOOTH",
"194 65 OFFCURVE",
"148 128 OFFCURVE",
"145 234 CURVE",
"502 234 LINE",
"502 305 LINE SMOOTH",
"502 437 OFFCURVE",
"414 521 OFFCURVE",
"288 521 CURVE SMOOTH"
);
},
{
closed = 1;
nodes = (
"359 446 OFFCURVE",
"409 400 OFFCURVE",
"409 307 CURVE",
"147 307 LINE",
"158 400 OFFCURVE",
"208 446 OFFCURVE",
"283 446 CURVE SMOOTH"
);
}
);
width = 556;
},
{
anchors = (
{
name = bottom;
position = "{287, 0}";
},
{
name = ogonek;
position = "{316, 0}";
},
{
name = top;
position = "{288, 511}";
}
);
background = {
paths = (
{
closed = 1;
nodes = (
"158 521 OFFCURVE",
"71 428 OFFCURVE",
"71 263 CURVE SMOOTH",
"71 248 LINE SMOOTH",
"71 83 OFFCURVE",
"159 -10 OFFCURVE",
"285 -10 CURVE SMOOTH",
"395 -10 OFFCURVE",
"484 61 OFFCURVE",
"484 189 CURVE",
"434 189 LINE",
"434 84 OFFCURVE",
"364 36 OFFCURVE",
"285 36 CURVE SMOOTH",
"193 36 OFFCURVE",
"122 103 OFFCURVE",
"122 242 CURVE SMOOTH",
"122 250 LINE",
"484 250 LINE",
"484 314 LINE SMOOTH",
"484 447 OFFCURVE",
"396 521 OFFCURVE",
"284 521 CURVE SMOOTH"
);
},
{
closed = 1;
nodes = (
"366 475 OFFCURVE",
"434 423 OFFCURVE",
"434 314 CURVE SMOOTH",
"434 296 LINE",
"123 296 LINE",
"131 416 OFFCURVE",
"198 475 OFFCURVE",
"284 475 CURVE SMOOTH"
);
}
);
};
layerId = "F84504BD-929B-4EC5-838D-CC63F45B30C5";
paths = (
{
closed = 1;
nodes = (
"283 521 LINE SMOOTH",
"159 521 OFFCURVE",
"71 428 OFFCURVE",
"71 263 CURVE SMOOTH",
"71 248 LINE SMOOTH",
"71 83 OFFCURVE",
"159 -10 OFFCURVE",
"284 -10 CURVE SMOOTH",
"289 -10 LINE SMOOTH",
"395 -10 OFFCURVE",
"484 63 OFFCURVE",
"484 189 CURVE",
"434 189 LINE",
"434 84 OFFCURVE",
"364 36 OFFCURVE",
"285 36 CURVE SMOOTH",
"185 36 OFFCURVE",
"122 110 OFFCURVE",
"122 250 CURVE",
"484 250 LINE",
"484 314 LINE SMOOTH",
"484 446 OFFCURVE",
"395 521 OFFCURVE",
"287 521 CURVE SMOOTH"
);
},
{
closed = 1;
nodes = (
"378 475 OFFCURVE",
"434 417 OFFCURVE",
"434 296 CURVE",
"123 296 LINE",
"131 416 OFFCURVE",
"198 475 OFFCURVE",
"284 475 CURVE SMOOTH"
);
}
);
width = 556;
},
{
anchors = (
{
name = bottom;
position = "{303, 0}";
},
{
name = ogonek;
position = "{339, 0}";
},
{
name = top;
position = "{299, 511}";
}
);
layerId = "4FE665F2-115E-4010-81D6-04A4227E19CC";
paths = (
{
closed = 1;
nodes = (
"293 521 LINE SMOOTH",
"153 521 OFFCURVE",
"43 429 OFFCURVE",
"43 270 CURVE SMOOTH",
"43 241 LINE SMOOTH",
"43 82 OFFCURVE",
"151 -10 OFFCURVE",
"293 -10 CURVE SMOOTH",
"309 -10 LINE SMOOTH",
"427 -10 OFFCURVE",
"540 50 OFFCURVE",
"540 191 CURVE",
"400 191 LINE",
"400 123 OFFCURVE",
"361 90 OFFCURVE",
"301 90 CURVE SMOOTH",
"227 90 OFFCURVE",
"191 137 OFFCURVE",
"191 231 CURVE",
"541 231 LINE",
"541 307 LINE SMOOTH",
"541 444 OFFCURVE",
"431 521 OFFCURVE",
"309 521 CURVE SMOOTH"
);
},
{
closed = 1;
nodes = (
"367 421 OFFCURVE",
"393 374 OFFCURVE",
"393 311 CURVE",
"191 311 LINE",
"196 373 OFFCURVE",
"234 421 OFFCURVE",
"294 421 CURVE SMOOTH"
);
}
);
width = 584;
},
{
anchors = (
{
name = bottom;
position = "{313, 0}";
},
{
name = ogonek;
position = "{349, 0}";
},
{
name = top;
position = "{309, 511}";
}
);
layerId = "B61048DD-A105-4E1B-AF86-BB1631F6D87A";
paths = (
{
closed = 1;
nodes = (
"300 521 LINE SMOOTH",
"141 521 OFFCURVE",
"27 431 OFFCURVE",
"27 271 CURVE SMOOTH",
"27 240 LINE SMOOTH",
"27 80 OFFCURVE",
"148 -10 OFFCURVE",
"307 -10 CURVE SMOOTH",
"322 -10 LINE SMOOTH",
"480 -10 OFFCURVE",
"571 79 OFFCURVE",
"571 192 CURVE",
"388 192 LINE",
"388 143 OFFCURVE",
"363 111 OFFCURVE",
"310 111 CURVE SMOOTH",
"250 111 OFFCURVE",
"239 164 OFFCURVE",
"239 229 CURVE",
"572 229 LINE",
"572 291 LINE SMOOTH",
"572 424 OFFCURVE",
"482 521 OFFCURVE",
"325 521 CURVE SMOOTH"
);
},
{
closed = 1;
nodes = (
"348 400 OFFCURVE",
"377 374 OFFCURVE",
"377 316 CURVE",
"239 316 LINE",
"239 371 OFFCURVE",
"266 400 OFFCURVE",
"308 400 CURVE SMOOTH"
);
}
);
width = 601;
}
);
leftKerningGroup = o;
note = e;
rightKerningGroup = e;
unicode = 0065;
},
{
glyphname = schwa;
layers = (
{
layerId = "B61048DD-A105-4E1B-AF86-BB1631F6D87A";
paths = (
{
closed = 1;
nodes = (
"301 -10 LINE SMOOTH",
"460 -10 OFFCURVE",
"574 80 OFFCURVE",
"574 240 CURVE SMOOTH",
"574 271 LINE SMOOTH",
"574 431 OFFCURVE",
"453 521 OFFCURVE",
"294 521 CURVE SMOOTH",
"279 521 LINE SMOOTH",
"121 521 OFFCURVE",
"30 432 OFFCURVE",
"30 319 CURVE",
"213 319 LINE",
"213 368 OFFCURVE",
"238 400 OFFCURVE",
"291 400 CURVE SMOOTH",
"351 400 OFFCURVE",
"362 347 OFFCURVE",
"362 282 CURVE",
"29 282 LINE",
"29 220 LINE SMOOTH",
"29 87 OFFCURVE",
"119 -10 OFFCURVE",
"276 -10 CURVE SMOOTH"
);
},
{
closed = 1;
nodes = (
"253 111 OFFCURVE",
"224 137 OFFCURVE",
"224 195 CURVE",
"362 195 LINE",
"362 140 OFFCURVE",
"335 111 OFFCURVE",
"293 111 CURVE SMOOTH"
);
}
);
width = 601;
},
{
layerId = "F84504BD-929B-4EC5-838D-CC63F45B30C5";
paths = (
{
closed = 1;
nodes = (
"273 -10 LINE SMOOTH",
"397 -10 OFFCURVE",
"485 83 OFFCURVE",
"485 248 CURVE SMOOTH",
"485 263 LINE SMOOTH",
"485 428 OFFCURVE",
"397 521 OFFCURVE",
"272 521 CURVE SMOOTH",
"267 521 LINE SMOOTH",
"161 521 OFFCURVE",
"72 448 OFFCURVE",
"72 322 CURVE",
"122 322 LINE",
"122 427 OFFCURVE",
"192 475 OFFCURVE",
"271 475 CURVE SMOOTH",
"371 475 OFFCURVE",
"434 401 OFFCURVE",
"434 261 CURVE",
"72 261 LINE",
"72 197 LINE SMOOTH",
"72 65 OFFCURVE",
"161 -10 OFFCURVE",
"269 -10 CURVE SMOOTH"
);
},
{
closed = 1;
nodes = (
"178 36 OFFCURVE",
"122 94 OFFCURVE",
"122 215 CURVE",
"433 215 LINE",
"425 95 OFFCURVE",
"358 36 OFFCURVE",
"272 36 CURVE SMOOTH"
);
}
);
width = 557;
},
{
layerId = "4FE665F2-115E-4010-81D6-04A4227E19CC";
paths = (
{
closed = 1;
nodes = (
"291 -10 LINE SMOOTH",
"431 -10 OFFCURVE",
"541 82 OFFCURVE",
"541 241 CURVE SMOOTH",
"541 270 LINE SMOOTH",
"541 429 OFFCURVE",
"433 521 OFFCURVE",
"291 521 CURVE SMOOTH",
"275 521 LINE SMOOTH",
"157 521 OFFCURVE",
"44 461 OFFCURVE",
"44 320 CURVE",
"184 320 LINE",
"184 388 OFFCURVE",
"223 421 OFFCURVE",
"283 421 CURVE SMOOTH",
"357 421 OFFCURVE",
"393 374 OFFCURVE",
"393 280 CURVE",
"43 280 LINE",
"43 204 LINE SMOOTH",
"43 67 OFFCURVE",
"153 -10 OFFCURVE",
"275 -10 CURVE SMOOTH"
);
},
{
closed = 1;
nodes = (
"217 90 OFFCURVE",
"191 137 OFFCURVE",
"191 200 CURVE",
"393 200 LINE",
"388 138 OFFCURVE",
"350 90 OFFCURVE",
"290 90 CURVE SMOOTH"
);
}
);
width = 584;
},
{
layerId = "86BFE29D-DE3A-4B42-8FD7-32CE7A5DD9A0";
paths = (
{
closed = 1;
nodes = (
"275 -10 LINE SMOOTH",
"417 -10 OFFCURVE",
"505 94 OFFCURVE",
"505 246 CURVE SMOOTH",
"505 266 LINE SMOOTH",
"505 420 OFFCURVE",
"417 521 OFFCURVE",
"272 521 CURVE SMOOTH",
"268 521 LINE SMOOTH",
"143 521 OFFCURVE",
"54 442 OFFCURVE",
"54 321 CURVE",
"143 321 LINE",
"143 381 OFFCURVE",
"175 446 OFFCURVE",
"266 446 CURVE SMOOTH",
"362 446 OFFCURVE",
"408 383 OFFCURVE",
"411 277 CURVE",
"54 277 LINE",
"54 206 LINE SMOOTH",
"54 74 OFFCURVE",
"142 -10 OFFCURVE",
"268 -10 CURVE SMOOTH"
);
},
{
closed = 1;
nodes = (
"197 65 OFFCURVE",
"147 111 OFFCURVE",
"147 204 CURVE",
"409 204 LINE",
"398 111 OFFCURVE",
"348 65 OFFCURVE",
"273 65 CURVE SMOOTH"
);
}
);
width = 556;
}
);
leftKerningGroup = schwa;
rightKerningGroup = o;
unicode = 0259;
},
{
glyphname = f;
layers = (
{
layerId = "86BFE29D-DE3A-4B42-8FD7-32CE7A5DD9A0";
paths = (
{
closed = 1;
nodes = (
"143 728 OFFCURVE",
"103 679 OFFCURVE",
"103 580 CURVE SMOOTH",
"103 511 LINE",
"47 511 LINE",
"47 436 LINE",
"103 436 LINE",
"103 0 LINE",
"197 0 LINE",
"197 436 LINE",
"316 436 LINE",
"316 511 LINE",
"197 511 LINE",
"197 590 LINE SMOOTH",
"197 634 OFFCURVE",
"210 653 OFFCURVE",
"265 653 CURVE SMOOTH",
"278 653 OFFCURVE",
"295 649 OFFCURVE",
"316 640 CURVE",
"316 709 LINE",
"291 722 OFFCURVE",
"259 728 OFFCURVE",
"222 728 CURVE SMOOTH"
);
}
);
width = 338;
},
{
layerId = "F84504BD-929B-4EC5-838D-CC63F45B30C5";
paths = (
{
closed = 1;
nodes = (
"156 728 OFFCURVE",
"113 694 OFFCURVE",
"113 617 CURVE SMOOTH",
"113 511 LINE",
"57 511 LINE",
"57 465 LINE",
"113 465 LINE",
"113 0 LINE",
"164 0 LINE",
"164 465 LINE",
"283 465 LINE",
"283 511 LINE",
"164 511 LINE",
"164 615 LINE SMOOTH",
"164 674 OFFCURVE",
"193 682 OFFCURVE",
"221 682 CURVE SMOOTH",
"236 682 OFFCURVE",
"267 673 OFFCURVE",
"283 666 CURVE",
"283 711 LINE",
"266 721 OFFCURVE",
"240 728 OFFCURVE",
"215 728 CURVE SMOOTH"
);
}
);
width = 338;
},
{
layerId = "4FE665F2-115E-4010-81D6-04A4227E19CC";
paths = (
{
closed = 1;
nodes = (
"142 728 OFFCURVE",
"85 684 OFFCURVE",
"85 578 CURVE SMOOTH",
"85 511 LINE",
"25 511 LINE",
"25 411 LINE",
"85 411 LINE",
"85 0 LINE",
"231 0 LINE",
"231 411 LINE",
"350 411 LINE",
"350 511 LINE",
"231 511 LINE",
"231 569 LINE SMOOTH",
"231 623 OFFCURVE",
"264 629 OFFCURVE",
"288 629 CURVE SMOOTH",
"303 629 OFFCURVE",
"334 623 OFFCURVE",
"350 618 CURVE",
"350 707 LINE",
"322 720 OFFCURVE",
"270 728 OFFCURVE",
"239 728 CURVE SMOOTH"
);
}
);
width = 363;
},
{
layerId = "B61048DD-A105-4E1B-AF86-BB1631F6D87A";
paths = (
{
closed = 1;
nodes = (
"164 728 OFFCURVE",
"89 685 OFFCURVE",
"89 577 CURVE SMOOTH",
"89 511 LINE",
"25 511 LINE",
"25 369 LINE",
"89 369 LINE",
"89 0 LINE",
"287 0 LINE",
"287 369 LINE",
"407 369 LINE",
"407 511 LINE",
"287 511 LINE",
"287 548 LINE SMOOTH",
"287 603 OFFCURVE",
"319 606 OFFCURVE",
"344 606 CURVE SMOOTH",
"359 606 OFFCURVE",
"391 601 OFFCURVE",
"406 596 CURVE",
"406 706 LINE",
"373 720 OFFCURVE",
"306 728 OFFCURVE",
"272 728 CURVE SMOOTH"
);
}
);
width = 419;
}
);
leftKerningGroup = f;
note = f;
rightKerningGroup = f;
unicode = 0066;
},
{
glyphname = g;
layers = (
{
anchors = (
{
name = top;
position = "{285, 511}";
}
);
layerId = "86BFE29D-DE3A-4B42-8FD7-32CE7A5DD9A0";
paths = (
{
closed = 1;
nodes = (
"154 521 OFFCURVE",
"78 458 OFFCURVE",
"78 360 CURVE SMOOTH",
"78 302 OFFCURVE",
"100 260 OFFCURVE",
"145 235 CURVE",
"96 218 OFFCURVE",
"65 183 OFFCURVE",
"65 134 CURVE SMOOTH",
"65 98 OFFCURVE",
"80 70 OFFCURVE",
"111 51 CURVE",
"67 32 OFFCURVE",
"36 -11 OFFCURVE",
"36 -68 CURVE SMOOTH",
"36 -125 OFFCURVE",
"90 -188 OFFCURVE",
"160 -188 CURVE SMOOTH",
"361 -188 LINE SMOOTH",
"477 -188 OFFCURVE",
"551 -129 OFFCURVE",
"551 -38 CURVE SMOOTH",
"551 37 OFFCURVE",
"501 93 OFFCURVE",
"421 93 CURVE SMOOTH",
"228 93 LINE SMOOTH",
"185 93 OFFCURVE",
"158 113 OFFCURVE",
"158 145 CURVE SMOOTH",
"158 177 OFFCURVE",
"188 200 OFFCURVE",
"228 200 CURVE SMOOTH",
"296 200 LINE SMOOTH",
"422 200 OFFCURVE",
"497 265 OFFCURVE",
"497 360 CURVE SMOOTH",
"497 405 OFFCURVE",
"480 441 OFFCURVE",
"447 470 CURVE",
"449 473 LINE",
"513 486 OFFCURVE",
"551 536 OFFCURVE",
"551 603 CURVE",
"471 603 LINE",
"464 560 OFFCURVE",
"437 527 OFFCURVE",
"390 504 CURVE",
"358 516 OFFCURVE",
"325 521 OFFCURVE",
"284 521 CURVE SMOOTH"
);
},
{
closed = 1;
nodes = (
"352 446 OFFCURVE",
"404 423 OFFCURVE",
"404 360 CURVE SMOOTH",
"404 297 OFFCURVE",
"352 275 OFFCURVE",
"287 275 CURVE SMOOTH",
"222 275 OFFCURVE",
"171 297 OFFCURVE",
"171 360 CURVE SMOOTH",
"171 423 OFFCURVE",
"222 446 OFFCURVE",
"287 446 CURVE SMOOTH"
);
},
{
closed = 1;
nodes = (
"436 3 OFFCURVE",
"458 -20 OFFCURVE",
"458 -52 CURVE SMOOTH",
"458 -84 OFFCURVE",
"423 -113 OFFCURVE",
"380 -113 CURVE SMOOTH",
"187 -113 LINE SMOOTH",
"155 -113 OFFCURVE",
"129 -87 OFFCURVE",
"129 -55 CURVE SMOOTH",
"129 -23 OFFCURVE",
"155 3 OFFCURVE",
"187 3 CURVE SMOOTH",
"393 3 LINE SMOOTH"
);
}
);
width = 568;
},
{
anchors = (
{
name = top;
position = "{295, 511}";
}
);
layerId = "F84504BD-929B-4EC5-838D-CC63F45B30C5";
paths = (
{
closed = 1;
nodes = (
"162 521 OFFCURVE",
"98 439 OFFCURVE",
"98 355 CURVE SMOOTH",
"98 305 OFFCURVE",
"125 266 OFFCURVE",
"166 236 CURVE",
"117 217 OFFCURVE",
"85 183 OFFCURVE",
"85 135 CURVE SMOOTH",
"85 101 OFFCURVE",
"100 73 OFFCURVE",
"130 55 CURVE",
"84 36 OFFCURVE",
"56 -13 OFFCURVE",
"56 -61 CURVE SMOOTH",
"56 -126 OFFCURVE",
"109 -188 OFFCURVE",
"182 -188 CURVE SMOOTH",
"399 -188 LINE SMOOTH",
"482 -188 OFFCURVE",
"542 -128 OFFCURVE",
"542 -52 CURVE SMOOTH",
"542 15 OFFCURVE",
"494 67 OFFCURVE",
"424 67 CURVE SMOOTH",
"211 67 LINE SMOOTH",
"169 67 OFFCURVE",
"136 91 OFFCURVE",
"136 133 CURVE SMOOTH",
"136 175 OFFCURVE",
"169 200 OFFCURVE",
"211 200 CURVE SMOOTH",
"293 200 LINE SMOOTH",
"429 200 OFFCURVE",
"488 277 OFFCURVE",
"488 365 CURVE SMOOTH",
"488 411 OFFCURVE",
"472 447 OFFCURVE",
"442 473 CURVE",
"443 477 LINE",
"504 486 OFFCURVE",
"542 547 OFFCURVE",
"542 603 CURVE",
"494 603 LINE",
"487 548 OFFCURVE",
"452 512 OFFCURVE",
"404 499 CURVE",
"375 513 OFFCURVE",
"338 521 OFFCURVE",
"293 521 CURVE SMOOTH"
);
},
{
closed = 1;
nodes = (
"386 475 OFFCURVE",
"437 423 OFFCURVE",
"437 360 CURVE SMOOTH",
"437 297 OFFCURVE",
"386 245 OFFCURVE",
"293 245 CURVE SMOOTH",
"200 245 OFFCURVE",
"149 297 OFFCURVE",
"149 360 CURVE SMOOTH",
"149 423 OFFCURVE",
"200 475 OFFCURVE",
"293 475 CURVE SMOOTH"
);
},
{
closed = 1;
nodes = (
"459 18 OFFCURVE",
"491 -16 OFFCURVE",
"491 -55 CURVE SMOOTH",
"491 -103 OFFCURVE",
"450 -142 OFFCURVE",
"402 -142 CURVE SMOOTH",
"186 -142 LINE SMOOTH",
"142 -142 OFFCURVE",
"106 -106 OFFCURVE",
"106 -62 CURVE SMOOTH",
"106 -18 OFFCURVE",
"142 18 OFFCURVE",
"186 18 CURVE SMOOTH",
"420 18 LINE SMOOTH"
);
}
);
width = 568;
},
{
anchors = (
{
name = top;
position = "{285, 511}";
}
);
layerId = "4FE665F2-115E-4010-81D6-04A4227E19CC";
paths = (
{
closed = 1;
nodes = (
"124 521 OFFCURVE",
"55 449 OFFCURVE",
"55 360 CURVE SMOOTH",
"55 310 OFFCURVE",
"82 265 OFFCURVE",
"127 237 CURVE",
"77 222 OFFCURVE",
"41 183 OFFCURVE",
"41 133 CURVE SMOOTH",
"41 98 OFFCURVE",
"58 68 OFFCURVE",
"88 48 CURVE",
"46 29 OFFCURVE",
"12 -13 OFFCURVE",
"12 -62 CURVE SMOOTH",
"12 -144 OFFCURVE",
"78 -188 OFFCURVE",
"156 -188 CURVE SMOOTH",
"367 -188 LINE SMOOTH",
"475 -188 OFFCURVE",
"562 -121 OFFCURVE",
"562 -27 CURVE SMOOTH",
"562 55 OFFCURVE",
"513 116 OFFCURVE",
"417 116 CURVE SMOOTH",
"239 116 LINE SMOOTH",
"195 116 OFFCURVE",
"176 133 OFFCURVE",
"176 158 CURVE SMOOTH",
"176 177 OFFCURVE",
"196 200 OFFCURVE",
"239 200 CURVE SMOOTH",
"308 200 LINE SMOOTH",
"430 200 OFFCURVE",
"508 272 OFFCURVE",
"508 360 CURVE SMOOTH",
"508 403 OFFCURVE",
"488 440 OFFCURVE",
"455 468 CURVE",
"456 471 LINE",
"522 487 OFFCURVE",
"562 529 OFFCURVE",
"562 603 CURVE",
"448 603 LINE",
"446 585 OFFCURVE",
"435 546 OFFCURVE",
"373 509 CURVE",
"347 517 OFFCURVE",
"317 521 OFFCURVE",
"273 521 CURVE SMOOTH"
);
},
{
closed = 1;
nodes = (
"332 434 OFFCURVE",
"372 409 OFFCURVE",
"372 360 CURVE SMOOTH",
"372 311 OFFCURVE",
"332 286 OFFCURVE",
"283 286 CURVE SMOOTH",
"234 286 OFFCURVE",
"195 311 OFFCURVE",
"195 360 CURVE SMOOTH",
"195 409 OFFCURVE",
"234 434 OFFCURVE",
"283 434 CURVE SMOOTH"
);
},
{
closed = 1;
nodes = (
"405 1 OFFCURVE",
"427 -20 OFFCURVE",
"427 -46 CURVE SMOOTH",
"427 -74 OFFCURVE",
"398 -98 OFFCURVE",
"363 -98 CURVE SMOOTH",
"195 -98 LINE SMOOTH",
"165 -98 OFFCURVE",
"141 -75 OFFCURVE",
"141 -48 CURVE SMOOTH",
"141 -21 OFFCURVE",
"165 1 OFFCURVE",
"195 1 CURVE SMOOTH",
"369 1 LINE SMOOTH"
);
}
);
width = 572;
},
{
anchors = (
{
name = top;
position = "{292, 511}";
}
);
layerId = "B61048DD-A105-4E1B-AF86-BB1631F6D87A";
paths = (
{
closed = 1;
nodes = (
"121 521 OFFCURVE",
"47 449 OFFCURVE",
"47 360 CURVE SMOOTH",
"47 311 OFFCURVE",
"81 269 OFFCURVE",
"124 240 CURVE",
"73 227 OFFCURVE",
"32 184 OFFCURVE",
"32 133 CURVE SMOOTH",
"32 98 OFFCURVE",
"51 66 OFFCURVE",
"80 46 CURVE",
"33 23 OFFCURVE",
"4 -19 OFFCURVE",
"4 -68 CURVE SMOOTH",
"4 -134 OFFCURVE",
"58 -188 OFFCURVE",
"124 -188 CURVE SMOOTH",
"389 -188 LINE SMOOTH",
"498 -188 OFFCURVE",
"589 -108 OFFCURVE",
"589 -17 CURVE SMOOTH",
"589 74 OFFCURVE",
"539 139 OFFCURVE",
"429 139 CURVE SMOOTH",
"266 139 LINE SMOOTH",
"219 139 OFFCURVE",
"209 153 OFFCURVE",
"209 170 CURVE SMOOTH",
"209 186 OFFCURVE",
"225 200 OFFCURVE",
"266 200 CURVE SMOOTH",
"335 200 LINE SMOOTH",
"444 200 OFFCURVE",
"535 272 OFFCURVE",
"535 361 CURVE SMOOTH",
"535 401 OFFCURVE",
"511 438 OFFCURVE",
"478 466 CURVE",
"479 469 LINE",
"546 488 OFFCURVE",
"589 524 OFFCURVE",
"589 603 CURVE",
"441 603 LINE",
"441 586 OFFCURVE",
"427 552 OFFCURVE",
"371 515 CURVE",
"346 519 OFFCURVE",
"314 521 OFFCURVE",
"277 521 CURVE SMOOTH"
);
},
{
closed = 1;
nodes = (
"330 423 OFFCURVE",
"356 395 OFFCURVE",
"356 360 CURVE SMOOTH",
"356 325 OFFCURVE",
"330 297 OFFCURVE",
"295 297 CURVE SMOOTH",
"260 297 OFFCURVE",
"234 325 OFFCURVE",
"234 360 CURVE SMOOTH",
"234 395 OFFCURVE",
"260 423 OFFCURVE",
"295 423 CURVE SMOOTH"
);
},
{
closed = 1;
nodes = (
"389 0 OFFCURVE",
"411 -19 OFFCURVE",
"411 -42 CURVE SMOOTH",
"411 -65 OFFCURVE",
"389 -83 OFFCURVE",
"361 -83 CURVE SMOOTH",
"218 -83 LINE SMOOTH",
"190 -83 OFFCURVE",
"168 -64 OFFCURVE",
"168 -41 CURVE SMOOTH",
"168 -18 OFFCURVE",
"190 0 OFFCURVE",
"218 0 CURVE SMOOTH",
"361 0 LINE SMOOTH"
);
}
);
width = 590;
}
);
leftKerningGroup = g;
note = g;
rightKerningGroup = g;
unicode = 0067;
},
{
glyphname = gcircumflex;
layers = (
{
layerId = "F84504BD-929B-4EC5-838D-CC63F45B30C5";
paths = (
{
closed = 1;
nodes = (
"142 521 OFFCURVE",
"78 439 OFFCURVE",
"78 355 CURVE SMOOTH",
"78 305 OFFCURVE",
"105 266 OFFCURVE",
"146 236 CURVE",
"97 217 OFFCURVE",
"65 183 OFFCURVE",
"65 135 CURVE SMOOTH",
"65 101 OFFCURVE",
"80 73 OFFCURVE",
"110 55 CURVE",
"64 36 OFFCURVE",
"36 -13 OFFCURVE",
"36 -61 CURVE SMOOTH",
"36 -126 OFFCURVE",
"89 -188 OFFCURVE",
"162 -188 CURVE SMOOTH",
"379 -188 LINE SMOOTH",
"462 -188 OFFCURVE",
"522 -128 OFFCURVE",
"522 -52 CURVE SMOOTH",
"522 15 OFFCURVE",
"474 67 OFFCURVE",
"404 67 CURVE SMOOTH",
"191 67 LINE SMOOTH",
"149 67 OFFCURVE",
"116 91 OFFCURVE",
"116 133 CURVE SMOOTH",
"116 175 OFFCURVE",
"149 200 OFFCURVE",
"191 200 CURVE SMOOTH",
"273 200 LINE SMOOTH",
"409 200 OFFCURVE",
"468 277 OFFCURVE",
"468 365 CURVE SMOOTH",
"468 411 OFFCURVE",
"452 447 OFFCURVE",
"422 473 CURVE",
"423 477 LINE",
"484 486 OFFCURVE",
"522 547 OFFCURVE",
"522 603 CURVE",
"474 603 LINE",
"467 548 OFFCURVE",
"432 512 OFFCURVE",
"384 499 CURVE",
"355 513 OFFCURVE",
"318 521 OFFCURVE",
"273 521 CURVE SMOOTH"
);
},
{
closed = 1;
nodes = (
"366 475 OFFCURVE",
"417 423 OFFCURVE",
"417 360 CURVE SMOOTH",
"417 297 OFFCURVE",
"366 245 OFFCURVE",
"273 245 CURVE SMOOTH",
"180 245 OFFCURVE",
"129 297 OFFCURVE",
"129 360 CURVE SMOOTH",
"129 423 OFFCURVE",
"180 475 OFFCURVE",
"273 475 CURVE SMOOTH"
);
},
{
closed = 1;
nodes = (
"439 18 OFFCURVE",
"471 -16 OFFCURVE",
"471 -55 CURVE SMOOTH",
"471 -103 OFFCURVE",
"430 -142 OFFCURVE",
"382 -142 CURVE SMOOTH",
"166 -142 LINE SMOOTH",
"122 -142 OFFCURVE",
"86 -106 OFFCURVE",
"86 -62 CURVE SMOOTH",
"86 -18 OFFCURVE",
"122 18 OFFCURVE",
"166 18 CURVE SMOOTH",
"400 18 LINE SMOOTH"
);
},
{
closed = 1;
nodes = (
"246 720 LINE",
"112 575 LINE",
"172 575 LINE",
"275 672 LINE",
"378 575 LINE",
"438 575 LINE",
"304 720 LINE"
);
}
);
width = 568;
},
{
layerId = "86BFE29D-DE3A-4B42-8FD7-32CE7A5DD9A0";
paths = (
{
closed = 1;
nodes = (
"154 521 OFFCURVE",
"78 458 OFFCURVE",
"78 360 CURVE SMOOTH",
"78 302 OFFCURVE",
"100 260 OFFCURVE",
"145 235 CURVE",
"96 218 OFFCURVE",
"65 183 OFFCURVE",
"65 134 CURVE SMOOTH",
"65 98 OFFCURVE",
"80 70 OFFCURVE",
"111 51 CURVE",
"67 32 OFFCURVE",
"36 -11 OFFCURVE",
"36 -68 CURVE SMOOTH",
"36 -125 OFFCURVE",
"90 -188 OFFCURVE",
"160 -188 CURVE SMOOTH",
"361 -188 LINE SMOOTH",
"477 -188 OFFCURVE",
"551 -129 OFFCURVE",
"551 -38 CURVE SMOOTH",
"551 37 OFFCURVE",
"501 93 OFFCURVE",
"421 93 CURVE SMOOTH",
"228 93 LINE SMOOTH",
"185 93 OFFCURVE",
"158 113 OFFCURVE",
"158 145 CURVE SMOOTH",
"158 177 OFFCURVE",
"188 200 OFFCURVE",
"228 200 CURVE SMOOTH",
"296 200 LINE SMOOTH",
"422 200 OFFCURVE",
"497 265 OFFCURVE",
"497 360 CURVE SMOOTH",
"497 405 OFFCURVE",
"480 441 OFFCURVE",
"447 470 CURVE",
"449 473 LINE",
"513 486 OFFCURVE",
"551 536 OFFCURVE",
"551 603 CURVE",
"471 603 LINE",
"464 560 OFFCURVE",
"437 527 OFFCURVE",
"390 504 CURVE",
"358 516 OFFCURVE",
"325 521 OFFCURVE",
"284 521 CURVE SMOOTH"
);
},
{
closed = 1;
nodes = (
"352 446 OFFCURVE",
"404 423 OFFCURVE",
"404 360 CURVE SMOOTH",
"404 297 OFFCURVE",
"352 275 OFFCURVE",
"287 275 CURVE SMOOTH",
"222 275 OFFCURVE",
"171 297 OFFCURVE",
"171 360 CURVE SMOOTH",
"171 423 OFFCURVE",
"222 446 OFFCURVE",
"287 446 CURVE SMOOTH"
);
},
{
closed = 1;
nodes = (
"436 3 OFFCURVE",
"458 -20 OFFCURVE",
"458 -52 CURVE SMOOTH",
"458 -84 OFFCURVE",
"423 -113 OFFCURVE",
"380 -113 CURVE SMOOTH",
"187 -113 LINE SMOOTH",
"155 -113 OFFCURVE",
"129 -87 OFFCURVE",
"129 -55 CURVE SMOOTH",
"129 -23 OFFCURVE",
"155 3 OFFCURVE",
"187 3 CURVE SMOOTH",
"393 3 LINE SMOOTH"
);
},
{
closed = 1;
nodes = (
"246 720 LINE",
"130 575 LINE",
"210 575 LINE",
"285 664 LINE",
"359 575 LINE",
"439 575 LINE",
"324 720 LINE"
);
}
);
width = 568;
},
{
layerId = "4FE665F2-115E-4010-81D6-04A4227E19CC";
paths = (
{
closed = 1;
nodes = (
"124 521 OFFCURVE",
"55 449 OFFCURVE",
"55 360 CURVE SMOOTH",
"55 310 OFFCURVE",
"82 265 OFFCURVE",
"127 237 CURVE",
"77 222 OFFCURVE",
"41 183 OFFCURVE",
"41 133 CURVE SMOOTH",
"41 98 OFFCURVE",
"58 68 OFFCURVE",
"88 48 CURVE",
"46 29 OFFCURVE",
"12 -13 OFFCURVE",
"12 -62 CURVE SMOOTH",
"12 -144 OFFCURVE",
"78 -188 OFFCURVE",
"156 -188 CURVE SMOOTH",
"367 -188 LINE SMOOTH",
"475 -188 OFFCURVE",
"562 -121 OFFCURVE",
"562 -27 CURVE SMOOTH",
"562 55 OFFCURVE",
"513 116 OFFCURVE",
"417 116 CURVE SMOOTH",
"239 116 LINE SMOOTH",
"195 116 OFFCURVE",
"176 133 OFFCURVE",
"176 158 CURVE SMOOTH",
"176 177 OFFCURVE",
"196 200 OFFCURVE",
"239 200 CURVE SMOOTH",
"308 200 LINE SMOOTH",
"430 200 OFFCURVE",
"508 272 OFFCURVE",
"508 360 CURVE SMOOTH",
"508 403 OFFCURVE",
"488 440 OFFCURVE",
"455 468 CURVE",
"456 471 LINE",
"522 487 OFFCURVE",
"562 529 OFFCURVE",
"562 603 CURVE",
"458 603 LINE",
"456 585 OFFCURVE",
"445 546 OFFCURVE",
"383 509 CURVE",
"357 517 OFFCURVE",
"317 521 OFFCURVE",
"273 521 CURVE SMOOTH"
);
},
{
closed = 1;
nodes = (
"332 434 OFFCURVE",
"372 409 OFFCURVE",
"372 360 CURVE SMOOTH",
"372 311 OFFCURVE",
"332 286 OFFCURVE",
"283 286 CURVE SMOOTH",
"234 286 OFFCURVE",
"195 311 OFFCURVE",
"195 360 CURVE SMOOTH",
"195 409 OFFCURVE",
"234 434 OFFCURVE",
"283 434 CURVE SMOOTH"
);
},
{
closed = 1;
nodes = (
"405 1 OFFCURVE",
"427 -20 OFFCURVE",
"427 -46 CURVE SMOOTH",
"427 -74 OFFCURVE",
"398 -98 OFFCURVE",
"363 -98 CURVE SMOOTH",
"195 -98 LINE SMOOTH",
"165 -98 OFFCURVE",
"141 -75 OFFCURVE",
"141 -48 CURVE SMOOTH",
"141 -21 OFFCURVE",
"165 1 OFFCURVE",
"195 1 CURVE SMOOTH",
"369 1 LINE SMOOTH"
);
},
{
closed = 1;
nodes = (
"221 720 LINE",
"118 575 LINE",
"222 575 LINE",
"272 658 LINE",
"321 575 LINE",
"426 575 LINE",
"324 720 LINE"
);
}
);
width = 572;
},
{
layerId = "B61048DD-A105-4E1B-AF86-BB1631F6D87A";
paths = (
{
closed = 1;
nodes = (
"121 521 OFFCURVE",
"47 449 OFFCURVE",
"47 360 CURVE SMOOTH",
"47 311 OFFCURVE",
"81 269 OFFCURVE",
"124 240 CURVE",
"73 227 OFFCURVE",
"32 184 OFFCURVE",
"32 133 CURVE SMOOTH",
"32 98 OFFCURVE",
"51 66 OFFCURVE",
"80 46 CURVE",
"33 23 OFFCURVE",
"4 -19 OFFCURVE",
"4 -68 CURVE SMOOTH",
"4 -134 OFFCURVE",
"58 -188 OFFCURVE",
"124 -188 CURVE SMOOTH",
"389 -188 LINE SMOOTH",
"498 -188 OFFCURVE",
"589 -108 OFFCURVE",
"589 -17 CURVE SMOOTH",
"589 74 OFFCURVE",
"539 139 OFFCURVE",
"429 139 CURVE SMOOTH",
"266 139 LINE SMOOTH",
"219 139 OFFCURVE",
"209 153 OFFCURVE",
"209 170 CURVE SMOOTH",
"209 186 OFFCURVE",
"225 200 OFFCURVE",
"266 200 CURVE SMOOTH",
"335 200 LINE SMOOTH",
"444 200 OFFCURVE",
"535 272 OFFCURVE",
"535 361 CURVE SMOOTH",
"535 401 OFFCURVE",
"516 432 OFFCURVE",
"491 453 CURVE",
"492 456 LINE",
"559 475 OFFCURVE",
"607 524 OFFCURVE",
"609 603 CURVE",
"474 603 LINE",
"474 586 OFFCURVE",
"457 547 OFFCURVE",
"401 510 CURVE",
"373 518 OFFCURVE",
"314 521 OFFCURVE",
"277 521 CURVE SMOOTH"
);
},
{
closed = 1;
nodes = (
"330 423 OFFCURVE",
"356 395 OFFCURVE",
"356 360 CURVE SMOOTH",
"356 325 OFFCURVE",
"330 297 OFFCURVE",
"295 297 CURVE SMOOTH",
"260 297 OFFCURVE",
"234 325 OFFCURVE",
"234 360 CURVE SMOOTH",
"234 395 OFFCURVE",
"260 423 OFFCURVE",
"295 423 CURVE SMOOTH"
);
},
{
closed = 1;
nodes = (
"389 0 OFFCURVE",
"411 -19 OFFCURVE",
"411 -42 CURVE SMOOTH",
"411 -65 OFFCURVE",
"389 -83 OFFCURVE",
"361 -83 CURVE SMOOTH",
"218 -83 LINE SMOOTH",
"190 -83 OFFCURVE",
"168 -64 OFFCURVE",
"168 -41 CURVE SMOOTH",
"168 -18 OFFCURVE",
"190 0 OFFCURVE",
"218 0 CURVE SMOOTH",
"361 0 LINE SMOOTH"
);
},
{
closed = 1;
nodes = (
"212 724 LINE",
"113 579 LINE",
"241 579 LINE",
"275 656 LINE",
"309 579 LINE",
"439 579 LINE",
"340 724 LINE"
);
}
);
width = 590;
}
);
leftKerningGroup = g;
rightKerningGroup = g;
unicode = 011D;
},
{
glyphname = h;
layers = (
{
anchors = (
{
name = bottom;
position = "{297, 0}";
},
{
name = center;
position = "{176, 607}";
},
{
name = top;
position = "{129, 686}";
}
);
layerId = "86BFE29D-DE3A-4B42-8FD7-32CE7A5DD9A0";
paths = (
{
closed = 1;
nodes = (
"272 521 OFFCURVE",
"219 496 OFFCURVE",
"177 447 CURVE",
"177 720 LINE",
"83 720 LINE",
"83 0 LINE",
"177 0 LINE",
"177 304 LINE SMOOTH",
"177 383 OFFCURVE",
"241 446 OFFCURVE",
"313 446 CURVE SMOOTH",
"377 446 OFFCURVE",
"421 414 OFFCURVE",
"421 327 CURVE SMOOTH",
"421 0 LINE",
"515 0 LINE",
"515 344 LINE SMOOTH",
"515 462 OFFCURVE",
"444 521 OFFCURVE",
"335 521 CURVE SMOOTH"
);
}
);
width = 593;
},
{
anchors = (
{
name = bottom;
position = "{297, 0}";
},
{
name = center;
position = "{172, 607}";
},
{
name = top;
position = "{119, 686}";
}
);
layerId = "F84504BD-929B-4EC5-838D-CC63F45B30C5";
paths = (
{
closed = 1;
nodes = (
"247 521 OFFCURVE",
"179 493 OFFCURVE",
"144 439 CURVE",
"144 720 LINE",
"93 720 LINE",
"93 0 LINE",
"144 0 LINE",
"144 314 LINE SMOOTH",
"144 406 OFFCURVE",
"211 475 OFFCURVE",
"301 475 CURVE SMOOTH",
"391 475 OFFCURVE",
"445 425 OFFCURVE",
"445 314 CURVE SMOOTH",
"445 0 LINE",
"496 0 LINE",
"496 329 LINE SMOOTH",
"496 462 OFFCURVE",
"412 521 OFFCURVE",
"306 521 CURVE SMOOTH"
);
}
);
width = 594;
},
{
anchors = (
{
name = bottom;
position = "{301, 0}";
},
{
name = center;
position = "{180, 607}";
},
{
name = top;
position = "{139, 686}";
}
);
layerId = "4FE665F2-115E-4010-81D6-04A4227E19CC";
paths = (
{
closed = 1;
nodes = (
"290 521 OFFCURVE",
"244 494 OFFCURVE",
"212 461 CURVE",
"212 720 LINE",
"66 720 LINE",
"66 0 LINE",
"212 0 LINE",
"212 314 LINE SMOOTH",
"212 371 OFFCURVE",
"256 415 OFFCURVE",
"307 415 CURVE SMOOTH",
"354 415 OFFCURVE",
"387 377 OFFCURVE",
"387 325 CURVE SMOOTH",
"387 0 LINE",
"533 0 LINE",
"533 357 LINE SMOOTH",
"533 468 OFFCURVE",
"452 521 OFFCURVE",
"354 521 CURVE SMOOTH"
);
}
);
width = 598;
},
{
anchors = (
{
name = bottom;
position = "{303, 0}";
},
{
name = center;
position = "{195, 607}";
},
{
name = top;
position = "{147, 686}";
}
);
layerId = "B61048DD-A105-4E1B-AF86-BB1631F6D87A";
paths = (
{
closed = 1;
nodes = (
"328 521 OFFCURVE",
"287 496 OFFCURVE",
"248 451 CURVE",
"248 720 LINE",
"50 720 LINE",
"50 0 LINE",
"248 0 LINE",
"248 320 LINE SMOOTH",
"248 353 OFFCURVE",
"272 380 OFFCURVE",
"301 380 CURVE SMOOTH",
"330 380 OFFCURVE",
"354 353 OFFCURVE",
"354 320 CURVE SMOOTH",
"354 0 LINE",
"552 0 LINE",
"552 371 LINE SMOOTH",
"552 454 OFFCURVE",
"490 521 OFFCURVE",
"393 521 CURVE SMOOTH"
);
}
);
width = 599;
}
);
leftKerningGroup = h;
note = h;
rightKerningGroup = n;
unicode = 0068;
},
{
glyphname = i;
layers = (
{
anchors = (
{
name = bottom;
position = "{131, 0}";
},
{
name = ogonek;
position = "{117, 0}";
}
);
layerId = "86BFE29D-DE3A-4B42-8FD7-32CE7A5DD9A0";
paths = (
{
closed = 1;
nodes = (
"81 720 LINE",
"81 633 LINE",
"179 633 LINE",
"179 720 LINE"
);
},
{
closed = 1;
nodes = (
"83 0 LINE",
"177 0 LINE",
"177 511 LINE",
"83 511 LINE"
);
}
);
width = 260;
},
{
anchors = (
{
name = bottom;
position = "{131, 0}";
},
{
name = ogonek;
position = "{117, 0}";
}
);
layerId = "F84504BD-929B-4EC5-838D-CC63F45B30C5";
paths = (
{
closed = 1;
nodes = (
"101 720 LINE",
"101 666 LINE",
"160 666 LINE",
"160 720 LINE"
);
},
{
closed = 1;
nodes = (
"105 0 LINE",
"156 0 LINE",
"156 511 LINE",
"105 511 LINE"
);
}
);
width = 260;
},
{
anchors = (
{
name = bottom;
position = "{142, 0}";
},
{
name = ogonek;
position = "{120, 0}";
}
);
layerId = "4FE665F2-115E-4010-81D6-04A4227E19CC";
paths = (
{
closed = 1;
nodes = (
"65 720 LINE",
"65 605 LINE",
"213 605 LINE",
"213 720 LINE"
);
},
{
closed = 1;
nodes = (
"66 0 LINE",
"212 0 LINE",
"212 511 LINE",
"66 511 LINE"
);
}
);
width = 278;
},
{
anchors = (
{
name = bottom;
position = "{152, 0}";
},
{
name = ogonek;
position = "{127, 0}";
}
);
layerId = "B61048DD-A105-4E1B-AF86-BB1631F6D87A";
paths = (
{
closed = 1;
nodes = (
"50 720 LINE",
"50 577 LINE",
"247 577 LINE",
"247 720 LINE"
);
},
{
closed = 1;
nodes = (
"50 0 LINE",
"247 0 LINE",
"247 510 LINE",
"50 510 LINE"
);
}
);
width = 297;
}
);
leftKerningGroup = i;
note = i;
rightKerningGroup = i;
unicode = 0069;
},
{
glyphname = idotless;
layers = (
{
anchors = (
{
name = bottom;
position = "{130, 0}";
},
{
name = top;
position = "{130, 511}";
}
);
layerId = "86BFE29D-DE3A-4B42-8FD7-32CE7A5DD9A0";
paths = (
{
closed = 1;
nodes = (
"83 0 LINE",
"177 0 LINE",
"177 511 LINE",
"83 511 LINE"
);
}
);
width = 260;
},
{
anchors = (
{
name = bottom;
position = "{126, 0}";
},
{
name = top;
position = "{126, 511}";
}
);
layerId = "F84504BD-929B-4EC5-838D-CC63F45B30C5";
paths = (
{
closed = 1;
nodes = (
"101 0 LINE",
"152 0 LINE",
"152 511 LINE",
"101 511 LINE"
);
}
);
width = 252;
},
{
anchors = (
{
name = bottom;
position = "{140, 0}";
},
{
name = top;
position = "{140, 511}";
}
);
layerId = "4FE665F2-115E-4010-81D6-04A4227E19CC";
paths = (
{
closed = 1;
nodes = (
"66 0 LINE",
"212 0 LINE",
"212 511 LINE",
"66 511 LINE"
);
}
);
width = 278;
},
{
anchors = (
{
name = bottom;
position = "{148, 0}";
},
{
name = top;
position = "{148, 511}";
}
);
layerId = "B61048DD-A105-4E1B-AF86-BB1631F6D87A";
paths = (
{
closed = 1;
nodes = (
"50 0 LINE",
"247 0 LINE",
"247 510 LINE",
"50 510 LINE"
);
}
);
width = 297;
}
);
leftKerningGroup = i;
note = dotlessi;
rightKerningGroup = i;
unicode = 0131;
},
{
glyphname = j;
layers = (
{
layerId = "86BFE29D-DE3A-4B42-8FD7-32CE7A5DD9A0";
paths = (
{
closed = 1;
nodes = (
"81 720 LINE",
"81 633 LINE",
"179 633 LINE",
"179 720 LINE"
);
},
{
closed = 1;
nodes = (
"83 511 LINE",
"83 -44 LINE SMOOTH",
"83 -93 OFFCURVE",
"68 -112 OFFCURVE",
"18 -112 CURVE SMOOTH",
"5 -112 OFFCURVE",
"-12 -107 OFFCURVE",
"-34 -97 CURVE",
"-34 -167 LINE",
"-11 -180 OFFCURVE",
"17 -186 OFFCURVE",
"52 -186 CURVE SMOOTH",
"145 -186 OFFCURVE",
"177 -134 OFFCURVE",
"177 -15 CURVE SMOOTH",
"177 511 LINE"
);
}
);
width = 260;
},
{
layerId = "F84504BD-929B-4EC5-838D-CC63F45B30C5";
paths = (
{
closed = 1;
nodes = (
"101 720 LINE",
"101 666 LINE",
"160 666 LINE",
"160 720 LINE"
);
},
{
closed = 1;
nodes = (
"105 511 LINE",
"105 -73 LINE SMOOTH",
"105 -132 OFFCURVE",
"76 -140 OFFCURVE",
"48 -140 CURVE SMOOTH",
"33 -140 OFFCURVE",
"2 -131 OFFCURVE",
"-14 -124 CURVE",
"-14 -169 LINE",
"3 -179 OFFCURVE",
"29 -186 OFFCURVE",
"54 -186 CURVE SMOOTH",
"113 -186 OFFCURVE",
"156 -152 OFFCURVE",
"156 -75 CURVE SMOOTH",
"156 511 LINE"
);
}
);
width = 260;
},
{
layerId = "4FE665F2-115E-4010-81D6-04A4227E19CC";
paths = (
{
closed = 1;
nodes = (
"66 720 LINE",
"66 605 LINE",
"214 605 LINE",
"214 720 LINE"
);
},
{
closed = 1;
nodes = (
"67 510 LINE",
"67 -18 LINE SMOOTH",
"67 -77 OFFCURVE",
"39 -86 OFFCURVE",
"11 -86 CURVE SMOOTH",
"-4 -86 OFFCURVE",
"-35 -80 OFFCURVE",
"-50 -73 CURVE",
"-50 -166 LINE",
"-23 -179 OFFCURVE",
"28 -186 OFFCURVE",
"59 -186 CURVE SMOOTH",
"160 -186 OFFCURVE",
"213 -133 OFFCURVE",
"213 -20 CURVE SMOOTH",
"213 510 LINE"
);
}
);
width = 280;
},
{
layerId = "B61048DD-A105-4E1B-AF86-BB1631F6D87A";
paths = (
{
closed = 1;
nodes = (
"50 720 LINE",
"50 577 LINE",
"249 577 LINE",
"249 720 LINE"
);
},
{
closed = 1;
nodes = (
"50 510 LINE",
"50 4 LINE SMOOTH",
"50 -55 OFFCURVE",
"22 -65 OFFCURVE",
"-6 -65 CURVE SMOOTH",
"-21 -65 OFFCURVE",
"-53 -60 OFFCURVE",
"-68 -53 CURVE",
"-68 -165 LINE",
"-36 -178 OFFCURVE",
"32 -187 OFFCURVE",
"66 -187 CURVE SMOOTH",
"175 -187 OFFCURVE",
"249 -134 OFFCURVE",
"249 -26 CURVE SMOOTH",
"249 510 LINE"
);
}
);
width = 299;
}
);
leftKerningGroup = j;
note = j;
rightKerningGroup = j;
unicode = 006A;
},
